<svg width="15" height="16" viewBox="0 0 15 16" fill="none" xmlns="http://www.w3.org/2000/svg">
<path fill-rule="evenodd" clip-rule="evenodd" d="M7.23795 0.592714C7.39866 0.469095 7.60135 0.469095 7.76205 0.592714L14.2621 5.59271C14.4099 5.70646 14.5 5.90796 14.5 6.125C14.5 6.47018 14.2761 6.75 14 6.75H1C0.826371 6.75 0.665172 6.6374 0.574172 6.45256C0.429447 6.15859 0.502774 5.77362 0.737953 5.59271L7.23795 0.592714ZM2.76652 5.5L7.5 1.85886L12.2335 5.5H2.76652Z" fill="#585865"/>
<path d="M2.5 6.125V12.375C2.5 12.7202 2.72386 13 3 13C3.27614 13 3.5 12.7202 3.5 12.375V6.125C3.5 5.77982 3.27614 5.5 3 5.5C2.72386 5.5 2.5 5.77982 2.5 6.125Z" fill="#585865"/>
<path d="M5.5 6.125V12.375C5.5 12.7202 5.72386 13 6 13C6.27614 13 6.5 12.7202 6.5 12.375V6.125C6.5 5.77982 6.27614 5.5 6 5.5C5.72386 5.5 5.5 5.77982 5.5 6.125Z" fill="#585865"/>
<path d="M8.5 6.125V12.375C8.5 12.7202 8.72386 13 9 13C9.27614 13 9.5 12.7202 9.5 12.375V6.125C9.5 5.77982 9.27614 5.5 9 5.5C8.72386 5.5 8.5 5.77982 8.5 6.125Z" fill="#585865"/>
<path d="M11.5 6.125V12.375C11.5 12.7202 11.7239 13 12 13C12.2761 13 12.5 12.7202 12.5 12.375V6.125C12.5 5.77982 12.2761 5.5 12 5.5C11.7239 5.5 11.5 5.77982 11.5 6.125Z" fill="#585865"/>
<path d="M1.5 13H13.5C13.7761 13 14 12.7202 14 12.375C14 12.0298 13.7761 11.75 13.5 11.75H1.5C1.22386 11.75 1 12.0298 1 12.375C1 12.7202 1.22386 13 1.5 13Z" fill="#585865"/>
<path d="M0.5 15.5H14.5C14.7761 15.5 15 15.2202 15 14.875C15 14.5298 14.7761 14.25 14.5 14.25H0.5C0.223858 14.25 0 14.5298 0 14.875C0 15.2202 0.223858 15.5 0.5 15.5Z" fill="#585865"/>
</svg>
