<svg width="12" height="12" viewBox="0 0 12 12" fill="none" xmlns="http://www.w3.org/2000/svg">
<path d="M1.75738 0.696721C1.46449 0.403827 0.989614 0.403827 0.696721 0.696721C0.403827 0.989614 0.403827 1.46449 0.696721 1.75738L4.93939 6.00005L0.696777 10.2427C0.403884 10.5356 0.403884 11.0104 0.696777 11.3033C0.98967 11.5962 1.46454 11.5962 1.75744 11.3033L6.00005 7.06071L10.2427 11.3033C10.5356 11.5962 11.0104 11.5962 11.3033 11.3033C11.5962 11.0104 11.5962 10.5356 11.3033 10.2427L7.06071 6.00005L11.3034 1.75738C11.5963 1.46449 11.5963 0.989615 11.3034 0.696722C11.0105 0.403829 10.5356 0.403829 10.2427 0.696722L6.00005 4.93939L1.75738 0.696721Z" fill="#050518"/>
</svg>
