<svg width="18" height="19" viewBox="0 0 18 19" fill="none" xmlns="http://www.w3.org/2000/svg">
<g clip-path="url(#clip0_1623_15715)">
<path d="M14 15.5H3V4.5H9.61L10.61 3.5H3C2.73478 3.5 2.48043 3.60536 2.29289 3.79289C2.10536 3.98043 2 4.23478 2 4.5V15.5C2 15.7652 2.10536 16.0196 2.29289 16.2071C2.48043 16.3946 2.73478 16.5 3 16.5H14C14.2652 16.5 14.5196 16.3946 14.7071 16.2071C14.8946 16.0196 15 15.7652 15 15.5V8L14 9V15.5Z" fill="#AA5F03"/>
<path d="M16.765 3.42009L15.08 1.73509C15.0052 1.66011 14.9164 1.60062 14.8185 1.56002C14.7207 1.51943 14.6159 1.49854 14.51 1.49854C14.4041 1.49854 14.2992 1.51943 14.2014 1.56002C14.1036 1.60062 14.0148 1.66011 13.94 1.73509L7.08498 8.63009L6.52998 11.0351C6.50633 11.1517 6.50882 11.272 6.53726 11.3875C6.56569 11.5031 6.61938 11.6108 6.69444 11.7031C6.76951 11.7954 6.86409 11.8699 6.97139 11.9212C7.07868 11.9726 7.19603 11.9995 7.31498 12.0001C7.37646 12.0069 7.4385 12.0069 7.49998 12.0001L9.92498 11.4651L16.765 4.56009C16.84 4.48531 16.8995 4.39647 16.9401 4.29866C16.9806 4.20085 17.0015 4.09599 17.0015 3.99009C17.0015 3.88419 16.9806 3.77934 16.9401 3.68152C16.8995 3.58371 16.84 3.49487 16.765 3.42009ZM9.40498 10.5401L7.57498 10.9451L7.99998 9.13009L13.16 3.93509L14.57 5.34509L9.40498 10.5401ZM15.135 4.78009L13.725 3.37009L14.5 2.58009L15.92 4.00009L15.135 4.78009Z" fill="#AA5F03"/>
</g>
<defs>
<clipPath id="clip0_1623_15715">
<rect width="18" height="18" fill="white" transform="translate(0 0.5)"/>
</clipPath>
</defs>
</svg>
