<svg width="111" height="110" viewBox="0 0 111 110" fill="none" xmlns="http://www.w3.org/2000/svg">
<g filter="url(#filter0_d_2110_23624)">
<rect x="31.5" y="27" width="48" height="48" rx="12" fill="#D1D1E4"/>
<path d="M65.6906 56.6246L57.45 42.3746C57.2527 42.0319 56.9686 41.7472 56.6262 41.5492C56.2839 41.3513 55.8954 41.2471 55.5 41.2471C55.1045 41.2471 54.7161 41.3513 54.3737 41.5492C54.0314 41.7472 53.7473 42.0319 53.55 42.3746L45.3094 56.6246C45.1092 56.9656 45.0028 57.3534 45.001 57.7488C44.9992 58.1442 45.1021 58.5331 45.2992 58.8759C45.4963 59.2186 45.7806 59.5031 46.1232 59.7005C46.4658 59.8979 46.8546 60.0011 47.25 59.9996H63.75C64.1454 60.0011 64.5341 59.8979 64.8768 59.7005C65.2194 59.5031 65.5037 59.2186 65.7008 58.8759C65.8979 58.5331 66.0008 58.1442 65.999 57.7488C65.9972 57.3534 65.8908 56.9656 65.6906 56.6246ZM54.75 48.7496C54.75 48.5507 54.829 48.3599 54.9697 48.2192C55.1103 48.0786 55.3011 47.9996 55.5 47.9996C55.6989 47.9996 55.8897 48.0786 56.0303 48.2192C56.171 48.3599 56.25 48.5507 56.25 48.7496V52.4996C56.25 52.6985 56.171 52.8893 56.0303 53.0299C55.8897 53.1706 55.6989 53.2496 55.5 53.2496C55.3011 53.2496 55.1103 53.1706 54.9697 53.0299C54.829 52.8893 54.75 52.6985 54.75 52.4996V48.7496ZM55.5 56.9996C55.2775 56.9996 55.06 56.9336 54.875 56.81C54.69 56.6864 54.5458 56.5107 54.4606 56.3051C54.3755 56.0995 54.3532 55.8733 54.3966 55.6551C54.44 55.4369 54.5472 55.2364 54.7045 55.0791C54.8618 54.9217 55.0623 54.8146 55.2805 54.7712C55.4987 54.7278 55.7249 54.7501 55.9305 54.8352C56.1361 54.9204 56.3118 55.0646 56.4354 55.2496C56.559 55.4346 56.625 55.6521 56.625 55.8746C56.625 56.1729 56.5065 56.4591 56.2955 56.6701C56.0845 56.881 55.7984 56.9996 55.5 56.9996Z" fill="#6666A6"/>
<rect x="31" y="26.5" width="49" height="49" rx="12.5" stroke="white"/>
</g>
<defs>
<filter id="filter0_d_2110_23624" x="0.5" y="0" width="110" height="110" filterUnits="userSpaceOnUse" color-interpolation-filters="sRGB">
<feFlood flood-opacity="0" result="BackgroundImageFix"/>
<feColorMatrix in="SourceAlpha" type="matrix" values="0 0 0 0 0 0 0 0 0 0 0 0 0 0 0 0 0 0 127 0" result="hardAlpha"/>
<feOffset dy="4"/>
<feGaussianBlur stdDeviation="15"/>
<feComposite in2="hardAlpha" operator="out"/>
<feColorMatrix type="matrix" values="0 0 0 0 0 0 0 0 0 0 0 0 0 0 0 0 0 0 0.1 0"/>
<feBlend mode="normal" in2="BackgroundImageFix" result="effect1_dropShadow_2110_23624"/>
<feBlend mode="normal" in="SourceGraphic" in2="effect1_dropShadow_2110_23624" result="shape"/>
</filter>
</defs>
</svg>
