<svg width="18" height="19" viewBox="0 0 18 19" fill="none" xmlns="http://www.w3.org/2000/svg">
<path d="M3 16.25C2.5875 16.25 2.23425 16.103 1.94025 15.809C1.64625 15.515 1.4995 15.162 1.5 14.75V6.5C1.5 6.0875 1.647 5.73425 1.941 5.44025C2.235 5.14625 2.588 4.9995 3 5H6V3.5C6 3.0875 6.147 2.73425 6.441 2.44025C6.735 2.14625 7.088 1.9995 7.5 2H10.5C10.9125 2 11.2658 2.147 11.5598 2.441C11.8538 2.735 12.0005 3.088 12 3.5V5H15C15.4125 5 15.7658 5.147 16.0598 5.441C16.3538 5.735 16.5005 6.088 16.5 6.5V14.75C16.5 15.1625 16.353 15.5158 16.059 15.8098C15.765 16.1038 15.412 16.2505 15 16.25H3ZM7.5 5H10.5V3.5H7.5V5ZM15 11.75H11.25V13.25H6.75V11.75H3V14.75H15V11.75ZM8.25 11.75H9.75V10.25H8.25V11.75ZM3 10.25H6.75V8.75H11.25V10.25H15V6.5H3V10.25Z" fill="#585865"/>
</svg>
