<svg width="19" height="18" viewBox="0 0 19 18" fill="none" xmlns="http://www.w3.org/2000/svg">
<path d="M7.65069 12.0694C7.51578 12.0283 7.4162 11.9285 7.4162 11.9285C7.31083 11.8229 7.16783 11.7635 7.01865 11.7633L7.01797 11.7633C7.00918 11.7633 7.0004 11.7635 6.99163 11.7639C6.85194 11.7704 6.7197 11.8288 6.6207 11.9276C6.51492 12.0331 6.45547 12.1764 6.45547 12.3258C6.45547 12.3353 6.45571 12.3447 6.45619 12.3542C6.46322 12.4931 6.52149 12.6246 6.61974 12.723C6.9185 13.0225 7.32321 13.1457 7.32321 13.1457C7.72791 13.2688 8.14285 13.1865 8.14285 13.1865C8.55778 13.1042 8.88482 12.8358 8.88482 12.8358C9.21185 12.5675 9.37363 12.1766 9.37363 12.1766C9.53542 11.7858 9.4937 11.3648 9.4937 11.3648C9.45197 10.9438 9.21661 10.5923 9.21661 10.5923C9.02922 10.3125 8.75436 10.1294 8.75436 10.1294L9.37674 9.35139C9.57081 9.10881 9.53148 8.75483 9.28889 8.56076C9.18915 8.48097 9.06523 8.4375 8.9375 8.4375H6.96875C6.65809 8.4375 6.40625 8.68934 6.40625 9C6.40625 9.31066 6.65809 9.5625 6.96875 9.5625H7.76715L7.37326 10.0549C7.29326 10.1549 7.24978 10.2792 7.25 10.4072C7.25026 10.5564 7.30976 10.6994 7.41543 10.8047C7.5211 10.91 7.66428 10.969 7.81346 10.9687C7.95447 10.9685 8.07892 11.0348 8.07892 11.0348C8.20336 11.1011 8.28182 11.2183 8.28182 11.2183C8.36027 11.3354 8.37418 11.4758 8.37418 11.4758C8.38809 11.6161 8.33416 11.7464 8.33416 11.7464C8.28023 11.8767 8.17122 11.9661 8.17122 11.9661C8.06221 12.0555 7.9239 12.083 7.9239 12.083C7.78559 12.1104 7.65069 12.0694 7.65069 12.0694Z" fill="#585865"/>
<path d="M11.1875 12.6562V10.125L10.9625 10.2937C10.8672 10.3653 10.7516 10.4046 10.6324 10.4062L10.625 10.4062C10.4479 10.4062 10.2812 10.3229 10.175 10.1813C10.1024 10.0844 10.0629 9.96673 10.0625 9.84568L10.0625 9.84375C10.0625 9.81713 10.0644 9.79055 10.0682 9.7642C10.0893 9.61652 10.1682 9.48326 10.2875 9.39375L11.4125 8.55C11.5099 8.47697 11.6283 8.4375 11.75 8.4375C12.0607 8.4375 12.3125 8.68934 12.3125 9V12.6562C12.3125 12.9669 12.0607 13.2188 11.75 13.2188C11.4393 13.2188 11.1875 12.9669 11.1875 12.6562Z" fill="#585865"/>
<path fill-rule="evenodd" clip-rule="evenodd" d="M12.3125 2.25V1.6875C12.3125 1.37684 12.5643 1.125 12.875 1.125C13.1857 1.125 13.4375 1.37684 13.4375 1.6875V2.25H15.125C15.125 2.25 15.591 2.25 15.9205 2.5795C15.9205 2.5795 16.25 2.90901 16.25 3.375V14.625C16.25 14.625 16.25 15.091 15.9205 15.4205C15.9205 15.4205 15.591 15.75 15.125 15.75H3.875C3.875 15.75 3.40901 15.75 3.0795 15.4205C3.0795 15.4205 2.75 15.091 2.75 14.625V3.375C2.75 3.375 2.75 2.90901 3.0795 2.5795C3.0795 2.5795 3.40901 2.25 3.875 2.25H5.5625V1.6875C5.5625 1.37684 5.81434 1.125 6.125 1.125C6.43566 1.125 6.6875 1.37684 6.6875 1.6875V2.25H12.3125ZM3.875 6.75V14.625H15.125V6.75H3.875ZM15.125 5.625H3.875V3.375H5.5625V3.9375C5.5625 4.24816 5.81434 4.5 6.125 4.5C6.43566 4.5 6.6875 4.24816 6.6875 3.9375V3.375H12.3125V3.9375C12.3125 4.24816 12.5643 4.5 12.875 4.5C13.1857 4.5 13.4375 4.24816 13.4375 3.9375V3.375H15.125V5.625Z" fill="#585865"/>
</svg>
