<svg width="40" height="40" viewBox="0 0 40 40" fill="none" xmlns="http://www.w3.org/2000/svg">
<g filter="url(#filter0_b_2096_21444)">
<rect width="40" height="40" rx="20" fill="#F4F4F4" fill-opacity="0.41"/>
<path d="M15.7574 14.6962C15.4645 14.4033 14.9896 14.4033 14.6967 14.6962C14.4038 14.9891 14.4038 15.464 14.6967 15.7569L18.9394 19.9996L14.6968 24.2422C14.4039 24.5351 14.4039 25.0099 14.6968 25.3028C14.9897 25.5957 15.4645 25.5957 15.7574 25.3028L20.0001 21.0602L24.2427 25.3028C24.5356 25.5957 25.0104 25.5957 25.3033 25.3028C25.5962 25.0099 25.5962 24.5351 25.3033 24.2422L21.0607 19.9996L25.3034 15.7569C25.5963 15.464 25.5963 14.9891 25.3034 14.6962C25.0105 14.4033 24.5356 14.4033 24.2427 14.6962L20.0001 18.9389L15.7574 14.6962Z" fill="black"/>
<rect x="0.25" y="0.25" width="39.5" height="39.5" rx="19.75" stroke="#ACACB2" stroke-width="0.5"/>
</g>
<defs>
<filter id="filter0_b_2096_21444" x="-10" y="-10" width="60" height="60" filterUnits="userSpaceOnUse" color-interpolation-filters="sRGB">
<feFlood flood-opacity="0" result="BackgroundImageFix"/>
<feGaussianBlur in="BackgroundImageFix" stdDeviation="5"/>
<feComposite in2="SourceAlpha" operator="in" result="effect1_backgroundBlur_2096_21444"/>
<feBlend mode="normal" in="SourceGraphic" in2="effect1_backgroundBlur_2096_21444" result="shape"/>
</filter>
</defs>
</svg>
