<svg width="24" height="25" viewBox="0 0 24 25" fill="none" xmlns="http://www.w3.org/2000/svg">
<path d="M5 12.5H19C19.2761 12.5 19.5 12.2761 19.5 12C19.5 11.7239 19.2761 11.5 19 11.5H5C4.72386 11.5 4.5 11.7239 4.5 12C4.5 12.2761 4.72386 12.5 5 12.5Z" fill="#262633"/>
<path d="M16 17.5V16C16 15.7239 15.7761 15.5 15.5 15.5C15.2239 15.5 15 15.7239 15 16V17.5C15 17.9142 15.2929 18.2071 15.2929 18.2071C15.5858 18.5 16 18.5 16 18.5H17.5C17.9142 18.5 18.2071 18.2071 18.2071 18.2071C18.5 17.9142 18.5 17.5 18.5 17.5V16C18.5 15.7239 18.2761 15.5 18 15.5C17.7239 15.5 17.5 15.7239 17.5 16V17.5H16Z" fill="#262633"/>
<path d="M6.5 17.5V16C6.5 15.7239 6.27614 15.5 6 15.5C5.72386 15.5 5.5 15.7239 5.5 16V17.5C5.5 17.9142 5.79289 18.2071 5.79289 18.2071C6.08579 18.5 6.5 18.5 6.5 18.5H8C8.41422 18.5 8.70711 18.2071 8.70711 18.2071C9 17.9142 9 17.5 9 17.5V16C9 15.7239 8.77614 15.5 8.5 15.5C8.22386 15.5 8 15.7239 8 16V17.5H6.5Z" fill="#262633"/>
<path d="M7.5 14C7.5 14.2761 7.72386 14.5 8 14.5H9C9.27614 14.5 9.5 14.2761 9.5 14C9.5 13.7239 9.27614 13.5 9 13.5H8C7.72386 13.5 7.5 13.7239 7.5 14Z" fill="#262633"/>
<path d="M14.5 14C14.5 14.2761 14.7239 14.5 15 14.5H16C16.2761 14.5 16.5 14.2761 16.5 14C16.5 13.7239 16.2761 13.5 16 13.5H15C14.7239 13.5 14.5 13.7239 14.5 14Z" fill="#262633"/>
<path fill-rule="evenodd" clip-rule="evenodd" d="M18.5 16C18.5 16.2761 18.2761 16.5 18 16.5H6C5.72386 16.5 5.5 16.2761 5.5 16V12C5.5 11.93 5.51471 11.8607 5.54318 11.7967L7.41049 7.6C7.41049 7.6 7.52934 7.32768 7.7776 7.16444C7.7776 7.16444 8.02587 7.0012 8.325 7L15.677 7C15.677 7 15.9741 7.0012 16.2224 7.16444C16.2224 7.16444 16.4707 7.32768 16.5881 7.59674L18.4568 11.7967C18.4853 11.8607 18.5 11.93 18.5 12V16ZM17.5 12.1062V15.5H6.5V12.1062L8.32701 8L15.673 8L15.6744 8.00326L17.5 12.1062Z" fill="#262633"/>
</svg>
