<svg width="18" height="19" viewBox="0 0 18 19" fill="none" xmlns="http://www.w3.org/2000/svg">
<path d="M2.33333 15C1.96667 15 1.65267 14.8693 1.39133 14.608C1.13 14.3467 0.999557 14.0329 1 13.6667V4.33333C1 3.96667 1.13067 3.65267 1.392 3.39133C1.65333 3.13 1.96711 2.99956 2.33333 3H15.6667C16.0333 3 16.3473 3.13067 16.6087 3.392C16.87 3.65333 17.0004 3.96711 17 4.33333V13.6667C17 14.0333 16.8693 14.3473 16.608 14.6087C16.3467 14.87 16.0329 15.0004 15.6667 15H2.33333ZM11.6 13.6667H15.6667V4.33333H2.33333V13.6667H2.4C2.86667 12.8333 3.51111 12.1804 4.33333 11.708C5.15556 11.2356 6.04445 10.9996 7 11C7.95556 11 8.84444 11.2362 9.66667 11.7087C10.4889 12.1811 11.1333 12.8338 11.6 13.6667ZM7 10.3333C7.55556 10.3333 8.02778 10.1389 8.41667 9.75C8.80556 9.36111 9 8.88889 9 8.33333C9 7.77778 8.80556 7.30556 8.41667 6.91667C8.02778 6.52778 7.55556 6.33333 7 6.33333C6.44445 6.33333 5.97222 6.52778 5.58333 6.91667C5.19445 7.30556 5 7.77778 5 8.33333C5 8.88889 5.19445 9.36111 5.58333 9.75C5.97222 10.1389 6.44445 10.3333 7 10.3333ZM13.6667 13L15 11.6667L14 10.3333H12.9C12.8333 10.1333 12.7778 9.91933 12.7333 9.69133C12.6889 9.46333 12.6667 9.23289 12.6667 9C12.6667 8.76667 12.6889 8.54178 12.7333 8.32533C12.7778 8.10889 12.8333 7.88933 12.9 7.66667H14L15 6.33333L13.6667 5C13.0667 5.46667 12.5833 6.05844 12.2167 6.77533C11.85 7.49222 11.6667 8.23378 11.6667 9C11.6667 9.76667 11.85 10.5084 12.2167 11.2253C12.5833 11.9422 13.0667 12.5338 13.6667 13ZM4.03333 13.6667H9.96667C9.58889 13.2444 9.14156 12.9167 8.62467 12.6833C8.10778 12.45 7.56622 12.3333 7 12.3333C6.43333 12.3333 5.89444 12.45 5.38333 12.6833C4.87222 12.9167 4.42222 13.2444 4.03333 13.6667ZM7 9C6.81111 9 6.65267 8.936 6.52467 8.808C6.39667 8.68 6.33289 8.52178 6.33333 8.33333C6.33333 8.14444 6.39733 7.986 6.52533 7.858C6.65333 7.73 6.81156 7.66622 7 7.66667C7.18889 7.66667 7.34733 7.73067 7.47533 7.85867C7.60333 7.98667 7.66711 8.14489 7.66667 8.33333C7.66667 8.52222 7.60267 8.68067 7.47467 8.80867C7.34667 8.93667 7.18844 9.00044 7 9Z" fill="#585865"/>
</svg>
