<svg width="175" height="40" viewBox="0 0 175 40" fill="none" xmlns="http://www.w3.org/2000/svg">
<rect x="0.3" y="0.3" width="174.4" height="39.4" rx="19.7" fill="black" fill-opacity="0.72"/>
<path d="M18.774 15.186C19.3527 15.186 19.838 15.2607 20.23 15.41C20.6313 15.5593 21.0373 15.802 21.448 16.138L20.72 16.992C20.132 16.516 19.5113 16.278 18.858 16.278C18.0553 16.278 17.4067 16.586 16.912 17.202C16.4267 17.818 16.184 18.8073 16.184 20.17C16.184 21.4953 16.4267 22.4753 16.912 23.11C17.3973 23.7353 18.0413 24.048 18.844 24.048C19.2547 24.048 19.614 23.978 19.922 23.838C20.23 23.698 20.5567 23.502 20.902 23.25L21.56 24.09C21.2613 24.398 20.8787 24.6547 20.412 24.86C19.9453 25.0653 19.4087 25.168 18.802 25.168C18.018 25.168 17.318 24.9767 16.702 24.594C16.0953 24.202 15.6193 23.6327 15.274 22.886C14.938 22.13 14.77 21.2247 14.77 20.17C14.77 19.1153 14.9473 18.2147 15.302 17.468C15.6567 16.712 16.1373 16.1427 16.744 15.76C17.3507 15.3773 18.0273 15.186 18.774 15.186ZM26.0809 17.454C26.3422 17.454 26.5849 17.482 26.8089 17.538L26.5709 18.798C26.3469 18.742 26.1322 18.714 25.9269 18.714C25.4696 18.714 25.1009 18.882 24.8209 19.218C24.5409 19.554 24.3216 20.0767 24.1629 20.786V25H22.8749V17.622H23.9809L24.1069 19.12C24.3029 18.5693 24.5689 18.154 24.9049 17.874C25.2409 17.594 25.6329 17.454 26.0809 17.454ZM33.3395 21.094C33.3395 21.3087 33.3301 21.528 33.3115 21.752H28.6075C28.6635 22.564 28.8688 23.1613 29.2235 23.544C29.5781 23.9267 30.0355 24.118 30.5955 24.118C30.9501 24.118 31.2768 24.0667 31.5755 23.964C31.8741 23.8613 32.1868 23.698 32.5135 23.474L33.0735 24.244C32.2895 24.86 31.4308 25.168 30.4975 25.168C29.4708 25.168 28.6681 24.832 28.0895 24.16C27.5201 23.488 27.2355 22.564 27.2355 21.388C27.2355 20.6227 27.3568 19.946 27.5995 19.358C27.8515 18.7607 28.2061 18.294 28.6635 17.958C29.1301 17.622 29.6761 17.454 30.3015 17.454C31.2815 17.454 32.0328 17.776 32.5555 18.42C33.0781 19.064 33.3395 19.9553 33.3395 21.094ZM32.0655 20.716C32.0655 19.988 31.9208 19.4327 31.6315 19.05C31.3421 18.6673 30.9081 18.476 30.3295 18.476C29.2748 18.476 28.7008 19.2507 28.6075 20.8H32.0655V20.716ZM40.1457 23.278C40.1457 23.5767 40.197 23.8007 40.2997 23.95C40.4023 24.09 40.5563 24.1973 40.7617 24.272L40.4677 25.168C40.085 25.1213 39.777 25.014 39.5437 24.846C39.3103 24.678 39.1377 24.4167 39.0257 24.062C38.531 24.7993 37.7983 25.168 36.8277 25.168C36.0997 25.168 35.5257 24.9627 35.1057 24.552C34.6857 24.1413 34.4757 23.6047 34.4757 22.942C34.4757 22.158 34.7557 21.556 35.3157 21.136C35.885 20.716 36.6877 20.506 37.7237 20.506H38.8577V19.96C38.8577 19.4373 38.7317 19.064 38.4797 18.84C38.2277 18.616 37.8403 18.504 37.3177 18.504C36.7763 18.504 36.1137 18.6347 35.3297 18.896L35.0077 17.958C35.9223 17.622 36.7717 17.454 37.5557 17.454C38.4237 17.454 39.0723 17.6687 39.5017 18.098C39.931 18.518 40.1457 19.12 40.1457 19.904V23.278ZM37.1217 24.202C37.859 24.202 38.4377 23.8193 38.8577 23.054V21.36H37.8917C36.529 21.36 35.8477 21.864 35.8477 22.872C35.8477 23.3107 35.955 23.642 36.1697 23.866C36.3843 24.09 36.7017 24.202 37.1217 24.202ZM46.4309 24.664C45.9456 25 45.3949 25.168 44.7789 25.168C44.1536 25.168 43.6636 24.9907 43.3089 24.636C42.9636 24.272 42.7909 23.7493 42.7909 23.068V18.616H41.5029V17.622H42.7909V15.956L44.0789 15.802V17.622H45.8289L45.6889 18.616H44.0789V23.012C44.0789 23.3947 44.1442 23.6747 44.2749 23.852C44.4149 24.02 44.6436 24.104 44.9609 24.104C45.2502 24.104 45.5769 24.006 45.9409 23.81L46.4309 24.664ZM53.0484 21.094C53.0484 21.3087 53.0391 21.528 53.0204 21.752H48.3164C48.3724 22.564 48.5777 23.1613 48.9324 23.544C49.2871 23.9267 49.7444 24.118 50.3044 24.118C50.6591 24.118 50.9857 24.0667 51.2844 23.964C51.5831 23.8613 51.8957 23.698 52.2224 23.474L52.7824 24.244C51.9984 24.86 51.1397 25.168 50.2064 25.168C49.1797 25.168 48.3771 24.832 47.7984 24.16C47.2291 23.488 46.9444 22.564 46.9444 21.388C46.9444 20.6227 47.0657 19.946 47.3084 19.358C47.5604 18.7607 47.9151 18.294 48.3724 17.958C48.8391 17.622 49.3851 17.454 50.0104 17.454C50.9904 17.454 51.7417 17.776 52.2644 18.42C52.7871 19.064 53.0484 19.9553 53.0484 21.094ZM51.7744 20.716C51.7744 19.988 51.6297 19.4327 51.3404 19.05C51.0511 18.6673 50.6171 18.476 50.0384 18.476C48.9837 18.476 48.4097 19.2507 48.3164 20.8H51.7744V20.716ZM62.1144 17.454C62.7864 17.454 63.3091 17.6547 63.6824 18.056C64.0651 18.4573 64.2564 19.008 64.2564 19.708V25H62.9684V19.89C62.9684 19.3673 62.8704 18.9987 62.6744 18.784C62.4784 18.5693 62.1891 18.462 61.8064 18.462C61.4144 18.462 61.0691 18.574 60.7704 18.798C60.4717 19.022 60.1917 19.344 59.9304 19.764V25H58.6424V17.622H59.7484L59.8604 18.714C60.1217 18.322 60.4437 18.014 60.8264 17.79C61.2184 17.566 61.6477 17.454 62.1144 17.454ZM72.3335 21.094C72.3335 21.3087 72.3242 21.528 72.3055 21.752H67.6015C67.6575 22.564 67.8628 23.1613 68.2175 23.544C68.5722 23.9267 69.0295 24.118 69.5895 24.118C69.9442 24.118 70.2708 24.0667 70.5695 23.964C70.8682 23.8613 71.1808 23.698 71.5075 23.474L72.0675 24.244C71.2835 24.86 70.4248 25.168 69.4915 25.168C68.4648 25.168 67.6622 24.832 67.0835 24.16C66.5142 23.488 66.2295 22.564 66.2295 21.388C66.2295 20.6227 66.3508 19.946 66.5935 19.358C66.8455 18.7607 67.2002 18.294 67.6575 17.958C68.1242 17.622 68.6702 17.454 69.2955 17.454C70.2755 17.454 71.0268 17.776 71.5495 18.42C72.0722 19.064 72.3335 19.9553 72.3335 21.094ZM71.0595 20.716C71.0595 19.988 70.9148 19.4327 70.6255 19.05C70.3362 18.6673 69.9022 18.476 69.3235 18.476C68.2688 18.476 67.6948 19.2507 67.6015 20.8H71.0595V20.716ZM82.7344 17.622L81.0544 25H79.3044L78.0164 18.784L76.6864 25H74.9784L73.2564 17.622H74.5444L75.8744 24.104L77.3304 17.622H78.7724L80.1584 24.104L81.5024 17.622H82.7344ZM92.8487 23.278C92.8487 23.5767 92.9 23.8007 93.0027 23.95C93.1053 24.09 93.2593 24.1973 93.4647 24.272L93.1707 25.168C92.788 25.1213 92.48 25.014 92.2467 24.846C92.0133 24.678 91.8407 24.4167 91.7287 24.062C91.234 24.7993 90.5013 25.168 89.5307 25.168C88.8027 25.168 88.2287 24.9627 87.8087 24.552C87.3887 24.1413 87.1787 23.6047 87.1787 22.942C87.1787 22.158 87.4587 21.556 88.0187 21.136C88.588 20.716 89.3907 20.506 90.4267 20.506H91.5607V19.96C91.5607 19.4373 91.4347 19.064 91.1827 18.84C90.9307 18.616 90.5433 18.504 90.0207 18.504C89.4793 18.504 88.8167 18.6347 88.0327 18.896L87.7107 17.958C88.6253 17.622 89.4747 17.454 90.2587 17.454C91.1267 17.454 91.7753 17.6687 92.2047 18.098C92.634 18.518 92.8487 19.12 92.8487 19.904V23.278ZM89.8247 24.202C90.562 24.202 91.1407 23.8193 91.5607 23.054V21.36H90.5947C89.232 21.36 88.5507 21.864 88.5507 22.872C88.5507 23.3107 88.658 23.642 88.8727 23.866C89.0873 24.09 89.4047 24.202 89.8247 24.202ZM98.0979 17.454C98.5366 17.454 98.9379 17.5193 99.3019 17.65C99.6659 17.7713 100.016 17.972 100.352 18.252L99.7359 19.064C99.4746 18.8773 99.2179 18.742 98.9659 18.658C98.7232 18.5647 98.4526 18.518 98.1539 18.518C97.5566 18.518 97.0899 18.756 96.7539 19.232C96.4272 19.708 96.2639 20.4127 96.2639 21.346C96.2639 22.2793 96.4272 22.97 96.7539 23.418C97.0806 23.8567 97.5472 24.076 98.1539 24.076C98.4432 24.076 98.7092 24.034 98.9519 23.95C99.1946 23.8567 99.4652 23.712 99.7639 23.516L100.352 24.356C99.6799 24.8973 98.9286 25.168 98.0979 25.168C97.0992 25.168 96.3106 24.832 95.7319 24.16C95.1626 23.488 94.8779 22.5593 94.8779 21.374C94.8779 20.59 95.0086 19.904 95.2699 19.316C95.5312 18.728 95.8999 18.2707 96.3759 17.944C96.8612 17.6173 97.4352 17.454 98.0979 17.454ZM104.426 17.454C104.865 17.454 105.266 17.5193 105.63 17.65C105.994 17.7713 106.344 17.972 106.68 18.252L106.064 19.064C105.803 18.8773 105.546 18.742 105.294 18.658C105.051 18.5647 104.781 18.518 104.482 18.518C103.885 18.518 103.418 18.756 103.082 19.232C102.755 19.708 102.592 20.4127 102.592 21.346C102.592 22.2793 102.755 22.97 103.082 23.418C103.409 23.8567 103.875 24.076 104.482 24.076C104.771 24.076 105.037 24.034 105.28 23.95C105.523 23.8567 105.793 23.712 106.092 23.516L106.68 24.356C106.008 24.8973 105.257 25.168 104.426 25.168C103.427 25.168 102.639 24.832 102.06 24.16C101.491 23.488 101.206 22.5593 101.206 21.374C101.206 20.59 101.337 19.904 101.598 19.316C101.859 18.728 102.228 18.2707 102.704 17.944C103.189 17.6173 103.763 17.454 104.426 17.454ZM110.838 17.454C111.874 17.454 112.677 17.7993 113.246 18.49C113.825 19.1807 114.114 20.1187 114.114 21.304C114.114 22.0693 113.983 22.746 113.722 23.334C113.461 23.9127 113.083 24.3653 112.588 24.692C112.093 25.0093 111.505 25.168 110.824 25.168C109.788 25.168 108.981 24.8227 108.402 24.132C107.823 23.4413 107.534 22.5033 107.534 21.318C107.534 20.5527 107.665 19.8807 107.926 19.302C108.187 18.714 108.565 18.2613 109.06 17.944C109.555 17.6173 110.147 17.454 110.838 17.454ZM110.838 18.49C109.559 18.49 108.92 19.4327 108.92 21.318C108.92 23.194 109.555 24.132 110.824 24.132C112.093 24.132 112.728 23.1893 112.728 21.304C112.728 19.428 112.098 18.49 110.838 18.49ZM121.646 25H120.54L120.442 23.852C120.162 24.3093 119.84 24.6453 119.476 24.86C119.112 25.0653 118.669 25.168 118.146 25.168C117.502 25.168 116.998 24.972 116.634 24.58C116.27 24.188 116.088 23.6327 116.088 22.914V17.622H117.376V22.774C117.376 23.278 117.465 23.6373 117.642 23.852C117.819 24.0573 118.109 24.16 118.51 24.16C119.229 24.16 119.845 23.7353 120.358 22.886V17.622H121.646V25ZM127.694 17.454C128.366 17.454 128.889 17.6547 129.262 18.056C129.645 18.4573 129.836 19.008 129.836 19.708V25H128.548V19.89C128.548 19.3673 128.45 18.9987 128.254 18.784C128.058 18.5693 127.769 18.462 127.386 18.462C126.994 18.462 126.649 18.574 126.35 18.798C126.052 19.022 125.772 19.344 125.51 19.764V25H124.222V17.622H125.328L125.44 18.714C125.702 18.322 126.024 18.014 126.406 17.79C126.798 17.566 127.228 17.454 127.694 17.454ZM136.065 24.664C135.58 25 135.029 25.168 134.413 25.168C133.788 25.168 133.298 24.9907 132.943 24.636C132.598 24.272 132.425 23.7493 132.425 23.068V18.616H131.137V17.622H132.425V15.956L133.713 15.802V17.622H135.463L135.323 18.616H133.713V23.012C133.713 23.3947 133.779 23.6747 133.909 23.852C134.049 24.02 134.278 24.104 134.595 24.104C134.885 24.104 135.211 24.006 135.575 23.81L136.065 24.664Z" fill="white"/>
<path d="M152.442 25.4419L162.442 15.4419C162.559 15.3247 162.625 15.1658 162.625 15C162.625 14.8342 162.559 14.6753 162.442 14.5581C162.325 14.4408 162.166 14.375 162 14.375C161.989 14.375 161.978 14.3753 161.968 14.3758C161.813 14.3838 161.667 14.4488 161.558 14.5581L161.558 14.5583L151.558 24.5578L151.558 24.5581C151.441 24.6753 151.375 24.8342 151.375 25C151.375 25.1658 151.441 25.3247 151.558 25.4419C151.675 25.5592 151.834 25.625 152 25.625C152.166 25.625 152.325 25.5592 152.442 25.4419Z" fill="white"/>
<path d="M161.375 15.625V23.125C161.375 23.4702 161.655 23.75 162 23.75C162.345 23.75 162.625 23.4702 162.625 23.125V15C162.625 14.6548 162.345 14.375 162 14.375H153.875C153.53 14.375 153.25 14.6548 153.25 15C153.25 15.3452 153.53 15.625 153.875 15.625H161.375Z" fill="white"/>
<rect x="0.3" y="0.3" width="174.4" height="39.4" rx="19.7" stroke="#ACACB2" stroke-width="0.6"/>
</svg>
