<svg width="18" height="18" viewBox="0 0 18 18" fill="none" xmlns="http://www.w3.org/2000/svg">
<path d="M12.3958 14.875L15.2917 12L14.4167 11.125L12.3958 13.1042L11.5833 12.2917L10.7083 13.1875L12.3958 14.875ZM3 5.5H13V3.83333H3V5.5ZM13 17.1667C11.8472 17.1667 10.8644 16.7603 10.0517 15.9475C9.23889 15.1347 8.83278 14.1522 8.83333 13C8.83333 11.8472 9.23972 10.8644 10.0525 10.0517C10.8653 9.23889 11.8478 8.83278 13 8.83333C14.1528 8.83333 15.1356 9.23972 15.9483 10.0525C16.7611 10.8653 17.1672 11.8478 17.1667 13C17.1667 14.1528 16.7603 15.1356 15.9475 15.9483C15.1347 16.7611 14.1522 17.1672 13 17.1667ZM0.5 16.3333V0.5H15.5V7.72917C15.2361 7.60417 14.9653 7.5 14.6875 7.41667C14.4097 7.33333 14.125 7.27083 13.8333 7.22917V2.16667H2.16667V13.875H7.22917C7.29861 14.3056 7.40639 14.7153 7.5525 15.1042C7.69861 15.4931 7.88944 15.8611 8.125 16.2083L8 16.3333L6.75 15.0833L5.5 16.3333L4.25 15.0833L3 16.3333L1.75 15.0833L0.5 16.3333ZM3 12.1667H7.22917C7.27083 11.875 7.33333 11.5903 7.41667 11.3125C7.5 11.0347 7.60417 10.7639 7.72917 10.5H3V12.1667ZM3 8.83333H8.91667C9.44444 8.31944 10.0592 7.91305 10.7608 7.61417C11.4625 7.31528 12.2089 7.16611 13 7.16667H3V8.83333Z" fill="#FF8E05"/>
</svg>
