<svg width="19" height="18" viewBox="0 0 19 18" fill="none" xmlns="http://www.w3.org/2000/svg">
<path d="M6.14609 8.13516C6.06965 8.05537 6.01774 7.95529 5.99654 7.84684C5.97535 7.73839 5.98577 7.62613 6.02656 7.52344C6.06851 7.41975 6.14041 7.33091 6.23309 7.26829C6.32578 7.20567 6.43502 7.1721 6.54688 7.17188H8.9375V2.8125C8.9375 2.66332 8.99676 2.52024 9.10225 2.41475C9.20774 2.30926 9.35082 2.25 9.5 2.25C9.64918 2.25 9.79226 2.30926 9.89775 2.41475C10.0032 2.52024 10.0625 2.66332 10.0625 2.8125V7.17188H12.4531C12.565 7.1721 12.6742 7.20567 12.7669 7.26829C12.8596 7.33091 12.9315 7.41975 12.9734 7.52344C13.0142 7.62613 13.0246 7.73839 13.0035 7.84684C12.9823 7.95529 12.9304 8.05537 12.8539 8.13516L9.90078 11.0883C9.79326 11.1922 9.64956 11.2504 9.5 11.2504C9.35044 11.2504 9.20674 11.1922 9.09922 11.0883L6.14609 8.13516ZM15.6875 10.125C15.5383 10.125 15.3952 10.1843 15.2898 10.2898C15.1843 10.3952 15.125 10.5383 15.125 10.6875V14.625H3.875V10.6875C3.875 10.5383 3.81574 10.3952 3.71025 10.2898C3.60476 10.1843 3.46168 10.125 3.3125 10.125C3.16332 10.125 3.02024 10.1843 2.91475 10.2898C2.80926 10.3952 2.75 10.5383 2.75 10.6875V14.625C2.75 14.9234 2.86853 15.2095 3.0795 15.4205C3.29048 15.6315 3.57663 15.75 3.875 15.75H15.125C15.4234 15.75 15.7095 15.6315 15.9205 15.4205C16.1315 15.2095 16.25 14.9234 16.25 14.625V10.6875C16.25 10.5383 16.1907 10.3952 16.0852 10.2898C15.9798 10.1843 15.8367 10.125 15.6875 10.125Z" fill="#ACACB2"/>
</svg>
