<svg width="16" height="17" viewBox="0 0 16 17" fill="none" xmlns="http://www.w3.org/2000/svg">
<g clip-path="url(#clip0_5375_468)">
<path d="M12.4445 13.8337H2.66672V4.05588H8.54228L9.43117 3.16699H2.66672C2.43097 3.16699 2.20488 3.26064 2.03818 3.42734C1.87148 3.59404 1.77783 3.82013 1.77783 4.05588V13.8337C1.77783 14.0694 1.87148 14.2955 2.03818 14.4622C2.20488 14.6289 2.43097 14.7225 2.66672 14.7225H12.4445C12.6802 14.7225 12.9063 14.6289 13.073 14.4622C13.2397 14.2955 13.3334 14.0694 13.3334 13.8337V7.16699L12.4445 8.05588V13.8337Z" fill="#FFD9AC"/>
<path d="M14.9022 3.09575L13.4044 1.59797C13.338 1.53132 13.259 1.47843 13.1721 1.44235C13.0851 1.40627 12.9919 1.3877 12.8978 1.3877C12.8036 1.3877 12.7104 1.40627 12.6235 1.44235C12.5365 1.47843 12.4576 1.53132 12.3911 1.59797L6.29777 7.72686L5.80444 9.86464C5.78342 9.96826 5.78563 10.0753 5.81091 10.1779C5.83619 10.2806 5.8839 10.3764 5.95063 10.4584C6.01735 10.5404 6.10143 10.6067 6.1968 10.6523C6.29218 10.698 6.39648 10.7219 6.50222 10.7224C6.55687 10.7284 6.61201 10.7284 6.66666 10.7224L8.82222 10.2469L14.9022 4.10908C14.9689 4.04261 15.0218 3.96364 15.0578 3.8767C15.0939 3.78976 15.1125 3.69655 15.1125 3.60241C15.1125 3.50828 15.0939 3.41507 15.0578 3.32813C15.0218 3.24119 14.9689 3.16222 14.9022 3.09575ZM8.35999 9.42464L6.73333 9.78464L7.11111 8.1713L11.6978 3.55353L12.9511 4.80686L8.35999 9.42464ZM13.4533 4.30464L12.2 3.0513L12.8889 2.34908L14.1511 3.6113L13.4533 4.30464Z" fill="#FFD9AC"/>
</g>
<defs>
<clipPath id="clip0_5375_468">
<rect width="16" height="16" fill="white" transform="translate(0 0.5)"/>
</clipPath>
</defs>
</svg>
