<svg width="24" height="25" viewBox="0 0 24 25" fill="none" xmlns="http://www.w3.org/2000/svg">
<path d="M8.75 10.8125H13.25C13.5607 10.8125 13.8125 10.5607 13.8125 10.25C13.8125 9.93934 13.5607 9.6875 13.25 9.6875H8.75C8.43934 9.6875 8.1875 9.93934 8.1875 10.25C8.1875 10.5607 8.43934 10.8125 8.75 10.8125Z" fill="#585865"/>
<path d="M8.75 13.0625H13.25C13.5607 13.0625 13.8125 12.8107 13.8125 12.5C13.8125 12.1893 13.5607 11.9375 13.25 11.9375H8.75C8.43934 11.9375 8.1875 12.1893 8.1875 12.5C8.1875 12.8107 8.43934 13.0625 8.75 13.0625Z" fill="#585865"/>
<path d="M8.75 15.3125H11C11.3107 15.3125 11.5625 15.0607 11.5625 14.75C11.5625 14.4393 11.3107 14.1875 11 14.1875H8.75C8.43934 14.1875 8.1875 14.4393 8.1875 14.75C8.1875 15.0607 8.43934 15.3125 8.75 15.3125Z" fill="#585865"/>
<path fill-rule="evenodd" clip-rule="evenodd" d="M5.375 19.25H13.017L13.018 19.25C13.018 19.25 13.2396 19.2504 13.4447 19.1662C13.4447 19.1662 13.6506 19.0816 13.8085 18.9245L17.4235 15.3095C17.4235 15.3095 17.5816 15.1506 17.6662 14.9447C17.6662 14.9447 17.7508 14.7387 17.75 14.516L17.75 6.875C17.75 6.875 17.75 6.40901 17.4205 6.07951C17.4205 6.07951 17.091 5.75 16.625 5.75H5.375C5.375 5.75 4.90901 5.75 4.5795 6.07951C4.5795 6.07951 4.25 6.40901 4.25 6.875V18.125C4.25 18.125 4.25 18.591 4.57951 18.9205C4.57951 18.9205 4.90901 19.25 5.375 19.25ZM16.625 14.517L13.017 18.125H5.375V6.875H16.625L16.625 14.517Z" fill="#585865"/>
<path d="M12.6875 14.75V18.6383C12.6875 18.9489 12.9393 19.2008 13.25 19.2008C13.5607 19.2008 13.8125 18.9489 13.8125 18.6383V15.3125H17.1383C17.4489 15.3125 17.7008 15.0607 17.7008 14.75C17.7008 14.4393 17.4489 14.1875 17.1383 14.1875H13.25C12.9393 14.1875 12.6875 14.4393 12.6875 14.75Z" fill="#585865"/>
</svg>
