<svg width="20" height="20" viewBox="0 0 20 20" fill="none" xmlns="http://www.w3.org/2000/svg">
<g clip-path="url(#clip0_3115_8484)">
<path d="M16.8966 4H3.44828C3.32939 4 3.21536 4.04723 3.1313 4.1313C3.04723 4.21537 3 4.32939 3 4.44828V5.1969C3.00008 5.30277 3.02112 5.40759 3.0619 5.5053C3.10267 5.60301 3.16238 5.69168 3.23759 5.76621L8.37931 10.9841V15.5566L9.27586 15.8972V10.7241C9.2762 10.6651 9.2649 10.6067 9.24259 10.552C9.22028 10.4974 9.18741 10.4477 9.14586 10.4059L3.89655 5.16103V4.89655H16.4483V5.17L11.2169 10.4059C11.1721 10.4462 11.1359 10.4952 11.1105 10.5499C11.0851 10.6046 11.0709 10.6639 11.069 10.7241V16.6459L11.9655 17V10.9483L17.1072 5.7931C17.1837 5.71668 17.244 5.62577 17.2848 5.5257C17.3256 5.42562 17.346 5.31841 17.3448 5.21034V4.44828C17.3448 4.32939 17.2976 4.21537 17.2135 4.1313C17.1295 4.04723 17.0154 4 16.8966 4Z" fill="#ACACB2"/>
</g>
<defs>
<clipPath id="clip0_3115_8484">
<rect width="20" height="20" fill="white"/>
</clipPath>
</defs>
</svg>
