<svg width="37" height="12" viewBox="0 0 37 12" fill="none" xmlns="http://www.w3.org/2000/svg">
<g clip-path="url(#clip0_3135_44884)">
<path d="M35.7928 7.3341L36.8074 8.01046C36.4781 8.49546 35.6905 9.3276 34.3289 9.3276C32.638 9.3276 31.3788 8.01938 31.3788 6.35517C31.3788 4.58424 32.6514 3.38281 34.1865 3.38281C35.7305 3.38281 36.4869 4.61088 36.7317 5.27388L36.8652 5.6121L32.8872 7.25846C33.1898 7.85474 33.6615 8.15731 34.3289 8.15731C34.9964 8.15731 35.4591 7.82803 35.7928 7.3341ZM32.6736 6.26181L35.3301 5.15824C35.1832 4.78896 34.7472 4.52646 34.2265 4.52646C33.5636 4.52646 32.6425 5.11381 32.6736 6.26181Z" fill="#FF302F"/>
<path d="M29.4609 0.352611H30.7424V9.05618H29.4609V0.352539V0.352611Z" fill="#20B15A"/>
<path d="M27.4408 3.61372H28.6778V8.89993C28.6778 11.0936 27.383 11.9969 25.8522 11.9969C24.4106 11.9969 23.543 11.0269 23.2181 10.2393L24.3527 9.76757C24.5574 10.2526 25.0513 10.8266 25.8522 10.8266C26.8356 10.8266 27.4408 10.217 27.4408 9.07793V8.65079H27.3963C27.1026 9.00672 26.542 9.32707 25.83 9.32707C24.3438 9.32707 22.9822 8.03222 22.9822 6.36364C22.9822 4.68607 24.3438 3.37793 25.83 3.37793C26.5375 3.37793 27.1026 3.69386 27.3963 4.04093H27.4408V3.61379V3.61372ZM27.5297 6.36364C27.5297 5.3135 26.8312 4.54814 25.9412 4.54814C25.0424 4.54814 24.286 5.3135 24.286 6.36364C24.286 7.40036 25.0424 8.15236 25.9412 8.15236C26.8312 8.15686 27.5298 7.40036 27.5298 6.36364H27.5297Z" fill="#3686F7"/>
<path d="M15.9473 6.34104C15.9473 8.05419 14.6124 9.3134 12.9749 9.3134C11.3375 9.3134 10.0026 8.04976 10.0026 6.34104C10.0026 4.61904 11.3375 3.36426 12.9749 3.36426C14.6124 3.36426 15.9473 4.61904 15.9473 6.34104ZM14.648 6.34104C14.648 5.27319 13.8737 4.5389 12.9749 4.5389C12.0761 4.5389 11.3018 5.27319 11.3018 6.34104C11.3018 7.40004 12.0761 8.14319 12.9749 8.14319C13.8738 8.14319 14.648 7.40004 14.648 6.34104Z" fill="#FF302F"/>
<path d="M22.4393 6.35517C22.4393 8.06831 21.1044 9.32753 19.467 9.32753C17.8295 9.32753 16.4946 8.06824 16.4946 6.35517C16.4946 4.63317 17.8295 3.38281 19.467 3.38281C21.1044 3.38281 22.4393 4.62874 22.4393 6.35517ZM21.1356 6.35517C21.1356 5.28731 20.3613 4.55303 19.4625 4.55303C18.5637 4.55303 17.7894 5.28731 17.7894 6.35517C17.7894 7.41417 18.5637 8.15731 19.4625 8.15731C20.3658 8.15731 21.1356 7.40974 21.1356 6.35517Z" fill="#FFBA40"/>
<path d="M5.11686 8.02355C3.25243 8.02355 1.793 6.51955 1.793 4.65513C1.793 2.79077 3.25243 1.28677 5.11686 1.28677C6.1225 1.28677 6.85665 1.68277 7.3995 2.19005L8.29393 1.2957C7.5375 0.570412 6.52743 0.0185547 5.11686 0.0185547C2.56279 0.0186261 0.413574 2.10113 0.413574 4.65513C0.413574 7.20927 2.56279 9.2917 5.11686 9.2917C6.49629 9.2917 7.5375 8.83784 8.35179 7.99241C9.18829 7.15584 9.44636 5.98113 9.44636 5.02891C9.44636 4.73077 9.41079 4.42377 9.37072 4.19684H5.11686V5.43384H8.14707C8.05807 6.20813 7.81336 6.73763 7.45293 7.09798C7.01686 7.53855 6.32722 8.02355 5.11686 8.02355Z" fill="#3686F7"/>
</g>
<defs>
<clipPath id="clip0_3135_44884">
<rect width="36.5714" height="12" fill="white" transform="translate(0.360474)"/>
</clipPath>
</defs>
</svg>
