<svg width="10" height="14" viewBox="0 0 10 14" fill="none" xmlns="http://www.w3.org/2000/svg">
<g clip-path="url(#clip0_3135_44891)">
<path d="M3.43213 10.1304C3.80811 10.6095 4.1503 11.1142 4.45622 11.6409C4.71743 12.1361 4.82632 12.472 5.01721 13.0687C5.13428 13.3984 5.24009 13.4969 5.46757 13.4969C5.71545 13.4969 5.82792 13.3294 5.91481 13.0705C6.09525 12.507 6.23684 12.0769 6.46021 11.6705C6.89852 10.8859 7.44318 10.1887 7.97834 9.51857C8.12322 9.32892 9.05993 8.22406 9.48163 7.35228C9.48163 7.35228 9.99993 6.39463 9.99993 5.05719C9.99993 3.80615 9.48878 2.93848 9.48878 2.93848L8.01716 3.33259L7.12346 5.68644L6.90235 6.01101L6.85814 6.06981L6.79934 6.14342L6.69612 6.26099L6.54862 6.40845L5.75279 7.05682L3.76312 8.20564L3.43213 10.1304Z" fill="#34A853"/>
<path d="M1.37866 7.19059C1.86427 8.29977 2.80069 9.2748 3.43426 10.1305L6.79941 6.14425C6.79941 6.14425 6.32532 6.76428 5.46534 6.76428C4.50741 6.76428 3.73354 5.99934 3.73354 5.03478C3.73354 4.37334 4.13147 3.91895 4.13147 3.91895L1.84712 4.53104L1.37866 7.19059Z" fill="#FBBC04"/>
<path d="M6.83694 0.705114C7.95458 1.06547 8.9112 1.82198 9.48982 2.93754L6.80038 6.14248C6.80038 6.14248 7.19832 5.67986 7.19832 5.02253C7.19832 4.03552 6.3672 3.29817 5.46935 3.29817C4.62031 3.29817 4.13269 3.91718 4.13269 3.91718V1.8981L6.83694 0.705078V0.705114Z" fill="#4285F4"/>
<path d="M1.99512 2.1211C2.66265 1.32244 3.83726 0.5 5.45662 0.5C6.24229 0.5 6.8342 0.706264 6.8342 0.706264L4.1302 3.91882H2.21438L1.99512 2.1211Z" fill="#1A73E8"/>
<path d="M1.37863 7.19099C1.37863 7.19099 0.931885 6.31613 0.931885 5.04872C0.931885 3.85084 1.39755 2.80375 1.99509 2.12109L4.13169 3.9191L1.37863 7.19099Z" fill="#EA4335"/>
</g>
<defs>
<clipPath id="clip0_3135_44891">
<rect width="9.06812" height="13" fill="white" transform="translate(0.931885 0.5)"/>
</clipPath>
</defs>
</svg>
