<svg width="169" height="33" viewBox="0 0 169 33" fill="none" xmlns="http://www.w3.org/2000/svg">
<path d="M15.336 16.312H13.968V17.368H15.336V19.048H13.968V25H9.672L7.272 19.048H4.752V25H1.824V19.048H0.432V17.368H1.824V16.312H0.432V14.632H1.824V8.824H6L8.4 14.632H11.016V8.824H13.968V14.632H15.336V16.312ZM4.344 11.824L4.608 14.632H5.472L4.344 11.824ZM6.576 17.368L6.168 16.312H4.704L4.728 17.368H6.576ZM11.016 16.312H9.096L9.528 17.368H11.04L11.016 16.312ZM11.448 22.024C11.32 20.968 11.216 19.976 11.136 19.048H10.224L11.448 22.024Z" fill="white"/>
<circle cx="28" cy="17" r="3" fill="#D9D9D9"/>
<circle cx="44" cy="17" r="3" fill="#D9D9D9"/>
<circle cx="60" cy="17" r="3" fill="#D9D9D9"/>
<circle cx="76" cy="17" r="3" fill="#D9D9D9"/>
<circle cx="92" cy="17" r="3" fill="#D9D9D9"/>
<circle cx="108" cy="17" r="3" fill="#D9D9D9"/>
<circle cx="124" cy="17" r="3" fill="#D9D9D9"/>
<circle cx="140" cy="17" r="3" fill="#D9D9D9"/>
<circle cx="156" cy="17" r="3" fill="#D9D9D9"/>
</svg>
