<svg width="30" height="30" viewBox="0 0 30 30" fill="none" xmlns="http://www.w3.org/2000/svg">
<rect x="0.75" y="0.75" width="28.5" height="28.5" rx="12.25" fill="white" fill-opacity="0.4"/>
<rect x="0.75" y="0.75" width="28.5" height="28.5" rx="12.25" stroke="#F8F8FF" stroke-width="0.5"/>
<path d="M8.94726 18.6619L9.75164 17.8631C8.87088 17.0723 8.17887 16.0939 7.72664 15C8.86851 12.1481 12.0185 9.9375 14.9998 9.9375C15.767 9.94763 16.5272 10.0845 17.2498 10.3425L18.1216 9.465C17.1331 9.04724 16.0728 8.82563 14.9998 8.8125C13.1663 8.88145 11.3932 9.48613 9.89969 10.5518C8.40614 11.6175 7.2576 13.0974 6.59601 14.8088C6.55133 14.9323 6.55133 15.0677 6.59601 15.1913C7.09565 16.5171 7.90125 17.7062 8.94726 18.6619Z" fill="#FBFBFB"/>
<path d="M12.7502 14.8491C12.7893 14.31 13.0212 13.8031 13.4033 13.4209C13.7855 13.0388 14.2924 12.8069 14.8315 12.7678L15.8496 11.7441C15.2791 11.5938 14.6792 11.5958 14.1097 11.7497C13.5401 11.9036 13.0209 12.2042 12.6037 12.6213C12.1866 13.0385 11.8861 13.5577 11.7321 14.1272C11.5782 14.6968 11.5763 15.2967 11.7265 15.8672L12.7502 14.8491Z" fill="#FBFBFB"/>
<path d="M23.4037 14.8088C22.7587 13.1287 21.6364 11.674 20.175 10.6238L22.875 7.91813L22.0819 7.125L7.125 22.0819L7.91813 22.875L10.7869 20.0062C12.0659 20.7566 13.5173 21.1635 15 21.1875C16.8335 21.1186 18.6065 20.5139 20.1001 19.4482C21.5936 18.3825 22.7422 16.9026 23.4037 15.1912C23.4484 15.0677 23.4484 14.9323 23.4037 14.8088ZM17.25 15C17.2476 15.3938 17.1419 15.7801 16.9435 16.1203C16.7451 16.4604 16.4608 16.7425 16.1192 16.9384C15.7775 17.1343 15.3904 17.2371 14.9966 17.2365C14.6028 17.2359 14.216 17.1319 13.875 16.935L16.935 13.875C17.1372 14.2157 17.2459 14.6038 17.25 15ZM15 20.0625C13.8199 20.0419 12.6622 19.737 11.625 19.1737L13.0538 17.745C13.7036 18.1959 14.4912 18.4043 15.2791 18.3336C16.0669 18.263 16.8049 17.9179 17.3642 17.3586C17.9235 16.7993 18.2686 16.0613 18.3393 15.2734C18.4099 14.4856 18.2015 13.698 17.7506 13.0481L19.365 11.4338C20.6557 12.3197 21.665 13.5574 22.2731 15C21.1313 17.8519 17.9812 20.0625 15 20.0625Z" fill="#FBFBFB"/>
</svg>
