<svg width="11" height="16" viewBox="0 0 11 16" fill="none" xmlns="http://www.w3.org/2000/svg">
<path fill-rule="evenodd" clip-rule="evenodd" d="M5.51085 8.41763C5.30674 8.57205 5.02506 8.57264 4.82031 8.41908L0.459077 5.14815C0.459077 5.14815 0.242155 4.98338 0.121911 4.74289C0.121911 4.74289 0.00166806 4.5024 1.0911e-05 4.23354L0 1.64769C0 1.64769 0 1.1723 0.336151 0.836151C0.336151 0.836151 0.672303 0.5 1.14769 0.5H9.18154C9.18154 0.5 9.65693 0.5 9.99308 0.836152C9.99308 0.836152 10.3292 1.1723 10.3292 1.64769V4.20131C10.3292 4.20131 10.3276 4.47371 10.2073 4.7142C10.2073 4.7142 10.0871 4.95469 9.87298 5.11733L5.51085 8.41763ZM9.1788 4.20337C9.1788 4.20337 9.18007 4.20238 9.18079 4.20093L9.18133 4.20027L9.18154 4.2013V1.64769H1.14769L1.14768 4.22646C1.14768 4.22646 1.14769 4.22813 1.14844 4.22963L1.14865 4.23045C1.14865 4.23045 1.14848 4.23059 1.1477 4.23L5.16311 7.24156L9.1788 4.20337Z" fill="#262633"/>
<path fill-rule="evenodd" clip-rule="evenodd" d="M9.87298 10.8027C9.87298 10.8027 10.0871 10.9653 10.2073 11.2058C10.2073 11.2058 10.3276 11.4463 10.3292 11.7187V14.2723C10.3292 14.2723 10.3292 14.7477 9.99308 15.0838C9.99308 15.0838 9.65693 15.42 9.18154 15.42H1.14769C1.14769 15.42 0.672303 15.42 0.336152 15.0838C0.336152 15.0838 0 14.7477 0 14.2723L1.0911e-05 11.6865C1.0911e-05 11.6865 0.00166806 11.4176 0.121911 11.1771C0.121911 11.1771 0.242154 10.9366 0.459077 10.7718L4.82031 7.50092C5.02506 7.34736 5.30674 7.34795 5.51085 7.50237L9.87298 10.8027ZM9.18079 11.7191C9.18079 11.7191 9.18007 11.7176 9.17881 11.7166L5.16311 8.67844L1.1477 11.69L1.14865 11.6895L1.14844 11.6904C1.14844 11.6904 1.14769 11.6919 1.14768 11.6935L1.14769 14.2723H9.18154V11.7187L9.18133 11.7197C9.18124 11.7196 9.18093 11.7193 9.18079 11.7191Z" fill="#262633"/>
<path d="M1.34138 5.66462H8.95919C9.27611 5.66462 9.53303 5.4077 9.53303 5.09077C9.53303 4.77384 9.27611 4.51692 8.95919 4.51692H1.34138C1.02445 4.51692 0.767533 4.77384 0.767533 5.09077C0.767533 5.4077 1.02445 5.66462 1.34138 5.66462Z" fill="#262633"/>
<path d="M5.73846 10.8292V7.96C5.73846 7.64307 5.48154 7.38615 5.16461 7.38615C4.84769 7.38615 4.59077 7.64307 4.59077 7.96V10.8292C4.59077 11.1462 4.84769 11.4031 5.16461 11.4031C5.48154 11.4031 5.73846 11.1462 5.73846 10.8292Z" fill="#262633"/>
</svg>
