<svg width="19" height="19" viewBox="0 0 19 19" fill="none" xmlns="http://www.w3.org/2000/svg">
<path d="M12.3332 0.833984C12.7934 0.833984 13.1665 1.20708 13.1665 1.66732V2.50065H17.3332V7.50065H15.6509L17.9391 13.7872C18.0859 14.163 18.1665 14.572 18.1665 14.9998C18.1665 16.8408 16.6741 18.3332 14.8332 18.3332C13.2803 18.3332 11.9754 17.2712 11.6051 15.834H8.0615C7.69142 17.2717 6.38637 18.334 4.83317 18.334C3.21276 18.334 1.8624 17.1777 1.56212 15.6453C1.0298 15.367 0.666504 14.8096 0.666504 14.1673V5.83398C0.666504 5.37375 1.0396 5.00065 1.49984 5.00065H7.33317C7.79342 5.00065 8.1665 5.37375 8.1665 5.83398V10.0007C8.1665 10.4609 8.53959 10.834 8.99984 10.834H10.6665C11.1268 10.834 11.4998 10.4609 11.4998 10.0007V2.50065H8.99984V0.833984H12.3332ZM4.83317 13.334C3.9127 13.334 3.1665 14.0802 3.1665 15.0007C3.1665 15.9212 3.9127 16.6673 4.83317 16.6673C5.75365 16.6673 6.49984 15.9212 6.49984 15.0007C6.49984 14.0802 5.75365 13.334 4.83317 13.334ZM14.8332 13.3332C13.9127 13.3332 13.1665 14.0793 13.1665 14.9998C13.1665 15.9203 13.9127 16.6665 14.8332 16.6665C15.7537 16.6665 16.4998 15.9203 16.4998 14.9998C16.4998 14.7996 16.4645 14.6075 16.3998 14.4297L16.3861 14.3935C16.1436 13.7728 15.5398 13.3332 14.8332 13.3332ZM13.8773 7.50065H13.1665V10.0007C13.1665 11.3814 12.0473 12.5007 10.6665 12.5007H8.99984C7.61909 12.5007 6.49984 11.3814 6.49984 10.0007H2.33317V12.7958C2.94395 12.1038 3.8376 11.6673 4.83317 11.6673C6.38637 11.6673 7.69142 12.7297 8.0615 14.1673H11.6047C11.9744 12.7292 13.2797 11.6665 14.8332 11.6665C15.0305 11.6665 15.2238 11.6837 15.4118 11.7166L13.8773 7.50065ZM6.49984 6.66732H2.33317V8.33398H6.49984V6.66732ZM15.6665 4.16732H13.1665V5.83398H15.6665V4.16732Z" fill="#FF8E05"/>
</svg>
