<svg width="20" height="20" viewBox="0 0 20 20" fill="none" xmlns="http://www.w3.org/2000/svg">
<g clip-path="url(#clip0_1518_13412)">
<path d="M16.6669 1.66675H7.77799V4.44453H8.88911V2.77786H16.6669C17.0002 2.77786 17.2224 3.00008 17.2224 3.33341V9.44453C17.2224 9.77786 17.0002 10.0001 16.6669 10.0001H9.44466V13.889H6.50022L4.44466 15.5001V13.889H2.77799C2.44466 13.889 2.22244 13.6667 2.22244 13.3334V7.2223C2.22244 6.88897 2.44466 6.66675 2.77799 6.66675H10.0002V5.55564H2.77799C1.83355 5.55564 1.11133 6.27786 1.11133 7.2223V13.3334C1.11133 14.2779 1.83355 15.0001 2.77799 15.0001H3.33355V17.8334L6.83355 15.0001H10.5558V11.1112H16.6669C17.6113 11.1112 18.3335 10.389 18.3335 9.44453V3.33341C18.3335 2.38897 17.6113 1.66675 16.6669 1.66675Z" fill="#585865"/>
<path d="M3.44434 12.7223H4.77767L5.111 11.8334H6.83323L7.16656 12.7223H8.49989L6.611 7.77783H5.27767L3.44434 12.7223ZM5.94434 9.16672L6.49989 10.8889H5.38878L5.94434 9.16672Z" fill="#585865"/>
<path d="M11.1113 9.44436C11.7224 9.44436 12.5558 9.2777 13.3336 8.88881C14.1113 9.2777 15.0002 9.44436 15.5558 9.44436V8.33325C15.5558 8.33325 15.0002 8.33325 14.3891 8.11103C15.0558 7.44436 15.5558 6.44436 15.5558 4.99992V4.44436H13.8891V3.33325H12.778V4.44436H11.1113V5.55547H14.3891C14.278 6.55547 13.8336 7.16659 13.3336 7.55547C13.0002 7.2777 12.6669 6.88881 12.4447 6.38881H11.278C11.5002 7.11103 11.8336 7.66659 12.278 8.11103C11.7224 8.33325 11.2224 8.33325 11.1113 8.33325V9.44436Z" fill="#585865"/>
</g>
<defs>
<clipPath id="clip0_1518_13412">
<rect width="20" height="20" fill="white"/>
</clipPath>
</defs>
</svg>
