<svg width="18" height="15" viewBox="0 0 18 15" fill="none" xmlns="http://www.w3.org/2000/svg">
<path d="M13.4587 9.46835C13.165 9.76051 13.1638 10.2354 13.456 10.529C13.7482 10.8226 14.223 10.8238 14.5167 10.5317L13.4587 9.46835ZM17.0292 8.03165C17.3228 7.73949 17.324 7.26462 17.0318 6.971C16.7397 6.67737 16.2648 6.67619 15.9712 6.96835L17.0292 8.03165ZM15.9712 8.03165C16.2648 8.32381 16.7397 8.32263 17.0318 8.02901C17.324 7.73538 17.3228 7.26051 17.0292 6.96835L15.9712 8.03165ZM14.5167 4.46835C14.223 4.17619 13.7482 4.17737 13.456 4.47099C13.1638 4.76462 13.165 5.23949 13.4587 5.53165L14.5167 4.46835ZM16.5002 8.25C16.9144 8.25 17.2502 7.91421 17.2502 7.5C17.2502 7.08579 16.9144 6.75 16.5002 6.75L16.5002 8.25ZM4.8335 6.75C4.41928 6.75 4.0835 7.08579 4.0835 7.5C4.0835 7.91421 4.41928 8.25 4.8335 8.25L4.8335 6.75ZM14.5167 10.5317L17.0292 8.03165L15.9712 6.96835L13.4587 9.46835L14.5167 10.5317ZM17.0292 6.96835L14.5167 4.46835L13.4587 5.53165L15.9712 8.03165L17.0292 6.96835ZM16.5002 6.75L4.8335 6.75L4.8335 8.25L16.5002 8.25L16.5002 6.75Z" fill="#ACACB2"/>
<path d="M11.5 4.9987C11.5 3.15775 10.0076 1.66536 8.16667 1.66536L4.83333 1.66536C2.99239 1.66536 1.5 3.15775 1.5 4.9987L1.5 9.9987C1.5 11.8396 2.99238 13.332 4.83333 13.332L8.16667 13.332C10.0076 13.332 11.5 11.8396 11.5 9.9987" stroke="#ACACB2" stroke-width="1.5" stroke-linecap="round" stroke-linejoin="round"/>
</svg>
