<svg width="74" height="74" viewBox="0 0 74 74" fill="none" xmlns="http://www.w3.org/2000/svg">
<g clip-path="url(#clip0_1434_12413)">
<path d="M49.2618 24.1509L51.9371 26.2706L51.0332 28.9739L47.5895 29.1595C47.1661 29.8616 46.6712 30.5184 46.1185 31.1231L47.0036 34.3666L44.6368 36.0368L41.7401 34.2212C41.2975 34.4094 40.8399 34.5765 40.3737 34.7141V31.6841C43.728 30.218 46.074 26.8698 46.074 22.975C46.074 19.5374 44.2468 16.5271 41.5137 14.8604C40.0736 13.9814 38.3826 13.4741 36.5716 13.4741C34.7829 13.4741 33.1087 13.9707 31.6781 14.8321C28.9176 16.493 27.0713 19.5189 27.0713 22.975C27.0713 26.8698 29.4173 30.218 32.7728 31.6841V34.6652C32.3612 34.5386 31.9597 34.3883 31.5665 34.2212L28.6721 36.0368L26.3056 34.3666L27.1878 31.1231C26.6357 30.5184 26.14 29.8616 25.7165 29.1595L22.2752 28.9739L21.3716 26.2706L24.0445 24.1509C24.0035 23.752 23.983 23.3456 23.983 22.9374C23.983 22.5252 24.0035 22.122 24.0445 21.7204L21.3716 19.6028L22.2752 16.8989L25.7165 16.7121C26.14 16.0097 26.6357 15.3515 27.1878 14.7488L26.3056 11.5044L28.6721 9.83449L31.5665 11.6524C31.6056 11.6353 31.6405 11.6206 31.6781 11.6056C32.4039 11.3021 33.1604 11.0653 33.947 10.8988L35.1931 7.77405H38.1141L39.3599 10.8988C40.1034 11.0569 40.8238 11.2789 41.5137 11.5593C41.5892 11.5882 41.6649 11.6206 41.7401 11.6524L44.6368 9.83449L47.0036 11.5044L46.1185 14.7488C46.6712 15.3515 47.1661 16.01 47.5895 16.7121L51.0332 16.8989L51.9371 19.6028L49.2618 21.7204C49.3028 22.122 49.3236 22.5252 49.3236 22.9374C49.3236 23.3456 49.3028 23.7517 49.2618 24.1509Z" fill="#F78E1E"/>
<path d="M44.1732 22.9746C44.1732 25.2866 43.1407 27.3551 41.5135 28.7516C41.1603 29.0536 40.7776 29.3253 40.3738 29.5572C39.7838 29.8994 39.1473 30.1602 38.4723 30.3374V37.1974L38.1142 38.0996H35.1932L34.6732 36.7962V30.3374C33.9999 30.1602 33.362 29.8991 32.7732 29.5572C32.3844 29.3343 32.0196 29.075 31.6785 28.7886C30.0239 27.3944 28.9731 25.3071 28.9731 22.9746C28.9731 20.6419 30.0242 18.5537 31.6785 17.1602V24.4269L32.7732 25.2267L34.6732 26.6165L36.5963 28.0228L38.4723 26.716L40.3738 25.3929L41.5135 24.5989V17.1986C43.1407 18.5945 44.1732 20.663 44.1732 22.9746Z" fill="white"/>
<path d="M40.3259 19.7534V23.8612L38.4724 25.2088L38.4394 25.2343L37.4936 25.9176L36.5617 26.5946L35.6063 25.9009V20.6654L34.6605 21.3522V25.2146L32.7729 23.8427V19.9788L34.6605 18.6093L34.8172 18.4948L35.6063 17.9219L36.7059 17.1223L37.4936 17.6964V23.1756L37.7703 22.9747L38.4394 22.4896V18.6093L38.5952 18.4948L40.3259 19.7534Z" fill="#F78E1E"/>
<path d="M12.3241 62.4543H7.91188L3.68983 51.1164C3.83032 52.2284 3.93987 53.2092 4.01618 54.0616C4.09423 54.9132 4.13354 55.9232 4.13354 57.0904V62.4543H1.05127V47.8225H5.35743L9.68557 59.1821C9.37598 57.2529 9.22075 55.4373 9.22075 53.735V47.8225H12.3241V62.4543Z" fill="white"/>
<path d="M24.6728 49.2583L22.9219 51.095C22.4011 50.7024 21.918 50.4171 21.4746 50.2405C21.0335 50.0636 20.5222 49.9766 19.9452 49.9766C18.8612 49.9766 17.9949 50.4027 17.348 51.2543C16.7016 52.105 16.3779 53.3954 16.3779 55.1274C16.3779 57.0005 16.6241 58.325 17.1156 59.1075C17.609 59.8889 18.3756 60.2797 19.4176 60.2797C20.1501 60.2797 20.8112 60.1175 21.4023 59.7938V56.4782H19.502L19.1647 54.0304H24.7589V61.272C23.9999 61.7628 23.1619 62.143 22.247 62.4115C21.3312 62.6783 20.4172 62.811 19.5023 62.811C17.278 62.811 15.604 62.1609 14.4779 60.8589C13.3522 59.5564 12.7886 57.6472 12.7886 55.1274C12.7886 53.5228 13.0947 52.1449 13.7075 50.9901C14.3192 49.8364 15.1577 48.9585 16.2195 48.3608C17.2823 47.7635 18.4756 47.4635 19.7986 47.4635C21.6839 47.4638 23.309 48.0636 24.6728 49.2583Z" fill="white"/>
<path d="M35.6625 55.7827C36.2756 56.3163 36.5809 57.1202 36.5809 58.1894C36.5809 59.7515 36.0204 60.8532 34.9017 61.4931C33.7828 62.1337 32.2169 62.4543 30.2045 62.4543H25.4971V47.8225H29.635C31.6885 47.8225 33.2581 48.1159 34.3427 48.6989C35.4255 49.2831 35.9672 50.2356 35.9672 51.5604C35.9672 52.418 35.7114 53.1106 35.198 53.6396C34.6841 54.168 34.047 54.5236 33.2873 54.7051C34.2577 54.8886 35.05 55.2474 35.6625 55.7827ZM28.96 50.2717V53.6708H30.2467C31.711 53.6708 32.4432 53.0797 32.4432 51.8977C32.4432 51.3066 32.2464 50.8895 31.8504 50.642C31.4564 50.396 30.8303 50.2717 29.9735 50.2717H28.96ZM32.3051 59.5301C32.7765 59.2552 33.0121 58.7459 33.0121 57.9995C33.0121 56.6473 32.1669 55.972 30.4788 55.972H28.9597V59.9409H30.2258C31.1396 59.9412 31.8336 59.8039 32.3051 59.5301Z" fill="white"/>
<path d="M48.1491 57.5984C48.1491 58.5971 47.9346 59.4911 47.505 60.2797C47.0764 61.0677 46.4309 61.686 45.5727 62.1364C44.7138 62.5873 43.6654 62.8113 42.4274 62.8113C40.5687 62.8113 39.1555 62.3413 38.1836 61.3978C37.2121 60.4549 36.7271 59.1876 36.7271 57.5981V47.8223H40.1889V57.4492C40.1889 58.3941 40.3698 59.0934 40.7268 59.5498C41.0864 60.0086 41.6524 60.2358 42.4274 60.2358C43.2142 60.2358 43.7886 60.0086 44.1484 59.5498C44.5072 59.0934 44.6858 58.3941 44.6858 57.4492V47.8223H48.1485V57.5984H48.1491Z" fill="white"/>
<path d="M52.5603 47.8223V62.454H49.0977V47.8223H52.5603ZM60.9625 47.8223L56.2979 54.3895L61.3438 62.454H57.331L52.6661 54.6413L57.3114 47.8223H60.9625Z" fill="white"/>
<path d="M68.5854 62.4543L67.824 59.3075H63.5592L62.8209 62.4543H59.2319L63.6442 47.8225H67.8454L72.2577 62.4543H68.5854ZM64.15 56.7962H67.2329L65.6925 50.3353L64.15 56.7962Z" fill="white"/>
</g>
<defs>
<clipPath id="clip0_1434_12413">
<rect width="74" height="74" fill="white"/>
</clipPath>
</defs>
</svg>
