<svg width="16" height="15" viewBox="0 0 16 15" fill="none" xmlns="http://www.w3.org/2000/svg">
<path d="M5.7175 11.25H2.5V12C2.5 12.375 2.2 12.75 1.75 12.75H1C0.625 12.75 0.25 12.375 0.25 12V6L1.825 1.5C1.975 1.05 2.35 0.75 2.875 0.75H11.125C11.575 0.75 12.025 1.05 12.175 1.5L13.6825 5.805C13.1244 5.19164 12.42 4.72976 11.635 4.4625L10.825 2.25H3.1L2.35 4.5H8.4325C7.5925 4.8 6.8575 5.325 6.31 6H1.75V9.75H5.26C5.335 10.2825 5.5 10.785 5.7175 11.25ZM2.5 7.875C2.5 8.475 3.025 9 3.625 9C4.225 9 4.75 8.475 4.75 7.875C4.75 7.275 4.225 6.75 3.625 6.75C3.025 6.75 2.5 7.275 2.5 7.875ZM10.0825 5.7075C8.2075 5.7075 6.7075 7.2075 6.7075 9.0825C6.7075 10.9575 8.2075 12.4575 10.0825 12.4575C10.75 12.4575 11.35 12.27 11.875 11.9475L14.2075 14.25L15.25 13.2075L12.94 10.875C13.27 10.365 13.4575 9.75 13.4575 9.0825C13.4575 7.2075 11.9575 5.7075 10.0825 5.7075ZM10.0825 7.2075C11.125 7.2075 11.9575 8.0475 11.9575 9.0825C11.9575 10.1175 11.125 10.9575 10.0825 10.9575C9.04 10.9575 8.2075 10.125 8.2075 9.0825C8.2075 8.04 9.0475 7.2075 10.0825 7.2075Z" fill="#585865"/>
</svg>
