<svg width="18" height="18" viewBox="0 0 18 18" fill="none" xmlns="http://www.w3.org/2000/svg">
<path d="M2.8125 10.6875H15.1875C15.4982 10.6875 15.75 10.4357 15.75 10.125C15.75 9.81434 15.4982 9.5625 15.1875 9.5625H2.8125C2.50184 9.5625 2.25 9.81434 2.25 10.125C2.25 10.4357 2.50184 10.6875 2.8125 10.6875Z" fill="#585865"/>
<path d="M2.8125 8.4375H15.1875C15.4982 8.4375 15.75 8.18566 15.75 7.875C15.75 7.56434 15.4982 7.3125 15.1875 7.3125H2.8125C2.50184 7.3125 2.25 7.56434 2.25 7.875C2.25 8.18566 2.50184 8.4375 2.8125 8.4375Z" fill="#585865"/>
<path d="M14.0625 14.7657V3.2344C14.0625 2.92374 13.8107 2.6719 13.5 2.6719C13.1893 2.6719 12.9375 2.92374 12.9375 3.2344V13.1307L4.94343 2.88831C4.75229 2.64341 4.39881 2.59983 4.15391 2.79097C4.01734 2.89757 3.9375 3.06115 3.9375 3.2344V14.7657C3.9375 15.0763 4.18934 15.3282 4.5 15.3282C4.81066 15.3282 5.0625 15.0763 5.0625 14.7657V4.86933L13.0566 15.1117C13.1632 15.2483 13.3268 15.3282 13.5 15.3282C13.8107 15.3282 14.0625 15.0763 14.0625 14.7657Z" fill="#585865"/>
</svg>
