<svg width="89" height="71" viewBox="0 0 89 71" fill="none" xmlns="http://www.w3.org/2000/svg">
<g opacity="0.3">
<rect x="28.5" width="32" height="32" rx="10" fill="#DCDCE0"/>
<path fill-rule="evenodd" clip-rule="evenodd" d="M37.25 10.3744C37.25 10.3744 37.25 9.90839 37.5795 9.57888C37.5795 9.57888 37.909 9.24938 38.375 9.24938H40.625C40.625 9.24938 41.091 9.24938 41.4205 9.57888C41.4205 9.57888 41.75 9.90839 41.75 10.3744V21.6244C41.75 21.6244 41.75 22.0904 41.4205 22.4199C41.4205 22.4199 41.091 22.7494 40.625 22.7494H38.375C38.375 22.7494 37.909 22.7494 37.5795 22.4199C37.5795 22.4199 37.25 22.0904 37.25 21.6244V10.3744ZM38.375 10.3744V21.6244H40.625V10.3744H38.375Z" fill="#ACACB2"/>
<path d="M37.8125 13.1869H41.1875C41.4982 13.1869 41.75 12.935 41.75 12.6244C41.75 12.3137 41.4982 12.0619 41.1875 12.0619H37.8125C37.5018 12.0619 37.25 12.3137 37.25 12.6244C37.25 12.935 37.5018 13.1869 37.8125 13.1869Z" fill="#ACACB2"/>
<path fill-rule="evenodd" clip-rule="evenodd" d="M40.625 10.3744C40.625 10.3744 40.625 9.90839 40.9545 9.57888C40.9545 9.57888 41.284 9.24938 41.75 9.24938H44C44 9.24938 44.466 9.24938 44.7955 9.57888C44.7955 9.57888 45.125 9.90839 45.125 10.3744V21.6244C45.125 21.6244 45.125 22.0904 44.7955 22.4199C44.7955 22.4199 44.466 22.7494 44 22.7494H41.75C41.75 22.7494 41.284 22.7494 40.9545 22.4199C40.9545 22.4199 40.625 22.0904 40.625 21.6244V10.3744ZM41.75 10.3744V21.6244H44V10.3744H41.75Z" fill="#ACACB2"/>
<path d="M41.1875 19.9369H44.5625C44.8732 19.9369 45.125 19.685 45.125 19.3744C45.125 19.0637 44.8732 18.8119 44.5625 18.8119H41.1875C40.8768 18.8119 40.625 19.0637 40.625 19.3744C40.625 19.685 40.8768 19.9369 41.1875 19.9369Z" fill="#ACACB2"/>
<path fill-rule="evenodd" clip-rule="evenodd" d="M44.2149 11.0509C44.2149 11.0509 44.0937 10.5989 44.3277 10.1936C44.3277 10.1936 44.5616 9.7883 45.0136 9.66714L47.1961 9.08214C47.1961 9.08214 47.6481 8.96099 48.0534 9.19494C48.0534 9.19494 48.4587 9.42888 48.5799 9.88089L51.5049 20.7934C51.5049 20.7934 51.626 21.2454 51.3921 21.6507C51.3921 21.6507 51.1581 22.056 50.7061 22.1771L48.5236 22.7621C48.5236 22.7621 48.0716 22.8833 47.6663 22.6494C47.6663 22.6494 47.261 22.4154 47.1399 21.9634L44.2149 11.0509ZM45.3061 10.7584L48.2311 21.6709L50.4136 21.0859L47.4886 10.1734L45.3061 10.7584Z" fill="#ACACB2"/>
<path d="M47.1838 20.1425L50.4463 19.2636C50.5904 19.2248 50.7131 19.1304 50.7875 19.0011C50.8366 18.9157 50.8625 18.819 50.8625 18.7205L50.8624 18.7096C50.8615 18.6638 50.855 18.6184 50.8431 18.5742C50.777 18.3286 50.5543 18.158 50.3 18.158L50.2952 18.158C50.2474 18.1584 50.1998 18.1649 50.1537 18.1773L46.8912 19.0563C46.6456 19.1224 46.475 19.3451 46.475 19.5994L46.475 19.6042C46.4754 19.652 46.4819 19.6996 46.4944 19.7457C46.5605 19.9913 46.7832 20.1619 47.0375 20.1619L47.0423 20.1619C47.0901 20.1615 47.1377 20.155 47.1838 20.1425Z" fill="#ACACB2"/>
<path d="M45.439 13.6178L48.7015 12.7459C48.8456 12.7074 48.9685 12.6132 49.0432 12.4841C49.0927 12.3985 49.1187 12.3014 49.1187 12.2025L49.1187 12.1927C49.1179 12.147 49.1115 12.1015 49.0997 12.0573C49.0339 11.8112 48.811 11.64 48.5562 11.64L48.5525 11.64C48.5048 11.6403 48.4572 11.6467 48.411 11.6591L45.1485 12.5309C44.9024 12.5967 44.7312 12.8196 44.7312 13.0744L44.7313 13.0781C44.7316 13.1259 44.738 13.1734 44.7503 13.2196C44.8161 13.4657 45.039 13.6369 45.2937 13.6369L45.2974 13.6369C45.3452 13.6366 45.3928 13.6301 45.439 13.6178Z" fill="#ACACB2"/>
</g>
<path d="M7.95375 42.043L5.06775 47.555V51H3.81975V47.568L0.933752 42.043H2.29875L4.48275 46.476L6.66675 42.043H7.95375ZM10.5435 43.993C11.5055 43.993 12.2508 44.3137 12.7795 44.955C13.3168 45.5963 13.5855 46.4673 13.5855 47.568C13.5855 48.2787 13.4642 48.907 13.2215 49.453C12.9788 49.9903 12.6278 50.4107 12.1685 50.714C11.7092 51.0087 11.1632 51.156 10.5305 51.156C9.56849 51.156 8.81883 50.8353 8.28149 50.194C7.74416 49.5527 7.47549 48.6817 7.47549 47.581C7.47549 46.8703 7.59683 46.2463 7.83949 45.709C8.08216 45.163 8.43316 44.7427 8.89249 44.448C9.35183 44.1447 9.90216 43.993 10.5435 43.993ZM10.5435 44.955C9.35616 44.955 8.76249 45.8303 8.76249 47.581C8.76249 49.323 9.35183 50.194 10.5305 50.194C11.7092 50.194 12.2985 49.3187 12.2985 47.568C12.2985 45.826 11.7135 44.955 10.5435 44.955ZM20.1373 51H19.1103L19.0193 49.934C18.7593 50.3587 18.4603 50.6707 18.1223 50.87C17.7843 51.0607 17.3726 51.156 16.8873 51.156C16.2893 51.156 15.8213 50.974 15.4833 50.61C15.1453 50.246 14.9763 49.7303 14.9763 49.063V44.149H16.1723V48.933C16.1723 49.401 16.2546 49.7347 16.4193 49.934C16.584 50.1247 16.8526 50.22 17.2253 50.22C17.8926 50.22 18.4646 49.8257 18.9413 49.037V44.149H20.1373V51ZM30.3121 41.393V51H29.2591L29.1421 50.051C28.9168 50.3977 28.6351 50.6707 28.2971 50.87C27.9591 51.0607 27.5821 51.156 27.1661 51.156C26.3515 51.156 25.7145 50.8353 25.2551 50.194C24.8045 49.5527 24.5791 48.6903 24.5791 47.607C24.5791 46.905 24.6875 46.281 24.9041 45.735C25.1208 45.189 25.4328 44.7643 25.8401 44.461C26.2475 44.149 26.7241 43.993 27.2701 43.993C27.9721 43.993 28.5875 44.2747 29.1161 44.838V41.25L30.3121 41.393ZM27.4261 50.207C27.7901 50.207 28.1021 50.1247 28.3621 49.96C28.6221 49.7867 28.8735 49.531 29.1161 49.193V45.839C28.8908 45.5443 28.6481 45.3233 28.3881 45.176C28.1368 45.02 27.8508 44.942 27.5301 44.942C27.0015 44.942 26.5898 45.163 26.2951 45.605C26.0091 46.047 25.8661 46.7057 25.8661 47.581C25.8661 48.465 26.0005 49.1237 26.2691 49.557C26.5378 49.9903 26.9235 50.207 27.4261 50.207ZM34.8317 43.993C35.7937 43.993 36.539 44.3137 37.0677 44.955C37.605 45.5963 37.8737 46.4673 37.8737 47.568C37.8737 48.2787 37.7523 48.907 37.5097 49.453C37.267 49.9903 36.916 50.4107 36.4567 50.714C35.9973 51.0087 35.4513 51.156 34.8187 51.156C33.8567 51.156 33.107 50.8353 32.5697 50.194C32.0323 49.5527 31.7637 48.6817 31.7637 47.581C31.7637 46.8703 31.885 46.2463 32.1277 45.709C32.3703 45.163 32.7213 44.7427 33.1807 44.448C33.64 44.1447 34.1903 43.993 34.8317 43.993ZM34.8317 44.955C33.6443 44.955 33.0507 45.8303 33.0507 47.581C33.0507 49.323 33.64 50.194 34.8187 50.194C35.9973 50.194 36.5867 49.3187 36.5867 47.568C36.5867 45.826 36.0017 44.955 34.8317 44.955ZM45.4739 43.993C46.0979 43.993 46.5832 44.1793 46.9299 44.552C47.2852 44.9247 47.4629 45.436 47.4629 46.086V51H46.2669V46.255C46.2669 45.7697 46.1759 45.4273 45.9939 45.228C45.8119 45.0287 45.5432 44.929 45.1879 44.929C44.8239 44.929 44.5032 45.033 44.2259 45.241C43.9486 45.449 43.6886 45.748 43.4459 46.138V51H42.2499V44.149H43.2769L43.3809 45.163C43.6236 44.799 43.9226 44.513 44.2779 44.305C44.6419 44.097 45.0406 43.993 45.4739 43.993ZM51.9211 43.993C52.8831 43.993 53.6284 44.3137 54.1571 44.955C54.6944 45.5963 54.9631 46.4673 54.9631 47.568C54.9631 48.2787 54.8417 48.907 54.5991 49.453C54.3564 49.9903 54.0054 50.4107 53.5461 50.714C53.0867 51.0087 52.5407 51.156 51.9081 51.156C50.9461 51.156 50.1964 50.8353 49.6591 50.194C49.1217 49.5527 48.8531 48.6817 48.8531 47.581C48.8531 46.8703 48.9744 46.2463 49.2171 45.709C49.4597 45.163 49.8107 44.7427 50.2701 44.448C50.7294 44.1447 51.2797 43.993 51.9211 43.993ZM51.9211 44.955C50.7337 44.955 50.1401 45.8303 50.1401 47.581C50.1401 49.323 50.7294 50.194 51.9081 50.194C53.0867 50.194 53.6761 49.3187 53.6761 47.568C53.6761 45.826 53.0911 44.955 51.9211 44.955ZM59.8769 50.688C59.4262 51 58.9149 51.156 58.3429 51.156C57.7622 51.156 57.3072 50.9913 56.9779 50.662C56.6572 50.324 56.4969 49.8387 56.4969 49.206V45.072H55.3009V44.149H56.4969V42.602L57.6929 42.459V44.149H59.3179L59.1879 45.072H57.6929V49.154C57.6929 49.5093 57.7535 49.7693 57.8749 49.934C58.0049 50.09 58.2172 50.168 58.5119 50.168C58.7805 50.168 59.0839 50.077 59.4219 49.895L59.8769 50.688ZM66.7406 43.993C67.3646 43.993 67.8499 44.1793 68.1966 44.552C68.5519 44.9247 68.7296 45.436 68.7296 46.086V51H67.5336V46.255C67.5336 45.7697 67.4382 45.4273 67.2476 45.228C67.0656 45.0287 66.7969 44.929 66.4416 44.929C66.0862 44.929 65.7699 45.033 65.4926 45.241C65.2152 45.449 64.9552 45.7437 64.7126 46.125V51H63.5166V41.406L64.7126 41.276V45.098C65.2499 44.3613 65.9259 43.993 66.7406 43.993ZM75.2288 49.401C75.2288 49.6783 75.2764 49.8863 75.3718 50.025C75.4671 50.155 75.6101 50.2547 75.8008 50.324L75.5278 51.156C75.1724 51.1127 74.8864 51.013 74.6698 50.857C74.4531 50.701 74.2928 50.4583 74.1888 50.129C73.7294 50.8137 73.0491 51.156 72.1478 51.156C71.4718 51.156 70.9388 50.9653 70.5488 50.584C70.1588 50.2027 69.9638 49.7043 69.9638 49.089C69.9638 48.361 70.2238 47.802 70.7438 47.412C71.2724 47.022 72.0178 46.827 72.9798 46.827H74.0328V46.32C74.0328 45.8347 73.9158 45.488 73.6818 45.28C73.4478 45.072 73.0881 44.968 72.6028 44.968C72.1001 44.968 71.4848 45.0893 70.7568 45.332L70.4578 44.461C71.3071 44.149 72.0958 43.993 72.8238 43.993C73.6298 43.993 74.2321 44.1923 74.6308 44.591C75.0294 44.981 75.2288 45.54 75.2288 46.268V49.401ZM72.4208 50.259C73.1054 50.259 73.6428 49.9037 74.0328 49.193V47.62H73.1358C71.8704 47.62 71.2378 48.088 71.2378 49.024C71.2378 49.4313 71.3374 49.739 71.5368 49.947C71.7361 50.155 72.0308 50.259 72.4208 50.259ZM82.0056 44.149L79.6786 51H78.2356L75.8696 44.149H77.1696L78.9636 49.934L80.7446 44.149H82.0056ZM87.9763 47.373C87.9763 47.5723 87.9676 47.776 87.9503 47.984H83.5823C83.6343 48.738 83.8249 49.2927 84.1543 49.648C84.4836 50.0033 84.9083 50.181 85.4283 50.181C85.7576 50.181 86.0609 50.1333 86.3383 50.038C86.6156 49.9427 86.9059 49.791 87.2093 49.583L87.7293 50.298C87.0013 50.87 86.2039 51.156 85.3373 51.156C84.3839 51.156 83.6386 50.844 83.1013 50.22C82.5726 49.596 82.3083 48.738 82.3083 47.646C82.3083 46.9353 82.4209 46.307 82.6463 45.761C82.8803 45.2063 83.2096 44.773 83.6343 44.461C84.0676 44.149 84.5746 43.993 85.1553 43.993C86.0653 43.993 86.7629 44.292 87.2483 44.89C87.7336 45.488 87.9763 46.3157 87.9763 47.373ZM86.7933 47.022C86.7933 46.346 86.6589 45.8303 86.3903 45.475C86.1216 45.1197 85.7186 44.942 85.1813 44.942C84.2019 44.942 83.6689 45.6613 83.5823 47.1H86.7933V47.022ZM7.18873 65.401C7.18873 65.6783 7.2364 65.8863 7.33173 66.025C7.42706 66.155 7.57006 66.2547 7.76073 66.324L7.48773 67.156C7.1324 67.1127 6.8464 67.013 6.62973 66.857C6.41306 66.701 6.25273 66.4583 6.14873 66.129C5.6894 66.8137 5.00906 67.156 4.10773 67.156C3.43173 67.156 2.89873 66.9653 2.50873 66.584C2.11873 66.2027 1.92373 65.7043 1.92373 65.089C1.92373 64.361 2.18373 63.802 2.70373 63.412C3.2324 63.022 3.97773 62.827 4.93973 62.827H5.99273V62.32C5.99273 61.8347 5.87573 61.488 5.64173 61.28C5.40773 61.072 5.04806 60.968 4.56273 60.968C4.06006 60.968 3.44473 61.0893 2.71673 61.332L2.41773 60.461C3.26706 60.149 4.05573 59.993 4.78373 59.993C5.58973 59.993 6.19206 60.1923 6.59073 60.591C6.9894 60.981 7.18873 61.54 7.18873 62.268V65.401ZM4.38073 66.259C5.0654 66.259 5.60273 65.9037 5.99273 65.193V63.62H5.09573C3.8304 63.62 3.19773 64.088 3.19773 65.024C3.19773 65.4313 3.2974 65.739 3.49673 65.947C3.69606 66.155 3.99073 66.259 4.38073 66.259ZM12.349 59.993C12.973 59.993 13.4584 60.1793 13.805 60.552C14.1604 60.9247 14.338 61.436 14.338 62.086V67H13.142V62.255C13.142 61.7697 13.051 61.4273 12.869 61.228C12.687 61.0287 12.4184 60.929 12.063 60.929C11.699 60.929 11.3784 61.033 11.101 61.241C10.8237 61.449 10.5637 61.748 10.321 62.138V67H9.12502V60.149H10.152L10.256 61.163C10.4987 60.799 10.7977 60.513 11.153 60.305C11.517 60.097 11.9157 59.993 12.349 59.993ZM18.8763 67.039C18.6077 67.8363 18.2307 68.4647 17.7453 68.924C17.2687 69.392 16.584 69.6737 15.6913 69.769L15.5613 68.833C16.012 68.755 16.3717 68.6423 16.6403 68.495C16.909 68.3477 17.1213 68.157 17.2773 67.923C17.442 67.6977 17.5937 67.39 17.7323 67H17.3293L15.0283 60.149H16.3023L18.1353 66.129L19.9293 60.149H21.1643L18.8763 67.039ZM28.0652 59.993C28.8452 59.993 29.4649 60.3093 29.9242 60.942C30.3835 61.566 30.6132 62.4413 30.6132 63.568C30.6132 64.2787 30.5049 64.907 30.2882 65.453C30.0715 65.9903 29.7595 66.4107 29.3522 66.714C28.9449 67.0087 28.4682 67.156 27.9222 67.156C27.2029 67.156 26.5962 66.8527 26.1022 66.246L25.9852 67H24.9322V57.393L26.1282 57.25V61.007C26.6222 60.331 27.2679 59.993 28.0652 59.993ZM27.6362 66.207C28.1649 66.207 28.5765 65.9947 28.8712 65.57C29.1745 65.1367 29.3262 64.4693 29.3262 63.568C29.3262 62.6407 29.1875 61.9733 28.9102 61.566C28.6329 61.15 28.2385 60.942 27.7272 60.942C27.1205 60.942 26.5875 61.2973 26.1282 62.008V65.284C26.3102 65.57 26.5312 65.7953 26.7912 65.96C27.0599 66.1247 27.3415 66.207 27.6362 66.207ZM34.705 59.993C35.667 59.993 36.4123 60.3137 36.941 60.955C37.4783 61.5963 37.747 62.4673 37.747 63.568C37.747 64.2787 37.6256 64.907 37.383 65.453C37.1403 65.9903 36.7893 66.4107 36.33 66.714C35.8706 67.0087 35.3246 67.156 34.692 67.156C33.73 67.156 32.9803 66.8353 32.443 66.194C31.9056 65.5527 31.637 64.6817 31.637 63.581C31.637 62.8703 31.7583 62.2463 32.001 61.709C32.2436 61.163 32.5946 60.7427 33.054 60.448C33.5133 60.1447 34.0636 59.993 34.705 59.993ZM34.705 60.955C33.5176 60.955 32.924 61.8303 32.924 63.581C32.924 65.323 33.5133 66.194 34.692 66.194C35.8706 66.194 36.46 65.3187 36.46 63.568C36.46 61.826 35.875 60.955 34.705 60.955ZM41.7768 59.993C42.7388 59.993 43.4841 60.3137 44.0128 60.955C44.5501 61.5963 44.8188 62.4673 44.8188 63.568C44.8188 64.2787 44.6974 64.907 44.4548 65.453C44.2121 65.9903 43.8611 66.4107 43.4018 66.714C42.9424 67.0087 42.3964 67.156 41.7638 67.156C40.8018 67.156 40.0521 66.8353 39.5148 66.194C38.9774 65.5527 38.7088 64.6817 38.7088 63.581C38.7088 62.8703 38.8301 62.2463 39.0728 61.709C39.3154 61.163 39.6664 60.7427 40.1258 60.448C40.5851 60.1447 41.1354 59.993 41.7768 59.993ZM41.7768 60.955C40.5894 60.955 39.9958 61.8303 39.9958 63.581C39.9958 65.323 40.5851 66.194 41.7638 66.194C42.9424 66.194 43.5318 65.3187 43.5318 63.568C43.5318 61.826 42.9468 60.955 41.7768 60.955ZM47.4706 57.25V67H46.2746V57.393L47.4706 57.25ZM51.4096 60.149L48.8876 63.178L51.6956 67H50.2656L47.5486 63.256L50.0706 60.149H51.4096ZM53.6029 60.149V67H52.4069V60.149H53.6029ZM52.9919 56.86C53.2432 56.86 53.4469 56.938 53.6029 57.094C53.7589 57.25 53.8369 57.445 53.8369 57.679C53.8369 57.913 53.7589 58.108 53.6029 58.264C53.4469 58.4113 53.2432 58.485 52.9919 58.485C52.7492 58.485 52.5499 58.4113 52.3939 58.264C52.2379 58.108 52.1599 57.913 52.1599 57.679C52.1599 57.445 52.2379 57.25 52.3939 57.094C52.5499 56.938 52.7492 56.86 52.9919 56.86ZM58.7798 59.993C59.4038 59.993 59.8892 60.1793 60.2358 60.552C60.5912 60.9247 60.7688 61.436 60.7688 62.086V67H59.5728V62.255C59.5728 61.7697 59.4818 61.4273 59.2998 61.228C59.1178 61.0287 58.8492 60.929 58.4938 60.929C58.1298 60.929 57.8092 61.033 57.5318 61.241C57.2545 61.449 56.9945 61.748 56.7518 62.138V67H55.5558V60.149H56.5828L56.6868 61.163C56.9295 60.799 57.2285 60.513 57.5838 60.305C57.9478 60.097 58.3465 59.993 58.7798 59.993ZM68.178 60.461C67.918 60.5477 67.632 60.604 67.32 60.63C67.008 60.656 66.6267 60.669 66.176 60.669C66.982 61.033 67.385 61.6093 67.385 62.398C67.385 63.0827 67.151 63.6417 66.683 64.075C66.215 64.5083 65.578 64.725 64.772 64.725C64.46 64.725 64.1697 64.6817 63.901 64.595C63.797 64.6643 63.7147 64.7597 63.654 64.881C63.5934 64.9937 63.563 65.1107 63.563 65.232C63.563 65.6047 63.862 65.791 64.46 65.791H65.552C66.0114 65.791 66.4187 65.8733 66.774 66.038C67.1294 66.2027 67.4024 66.428 67.593 66.714C67.7924 67 67.892 67.325 67.892 67.689C67.892 68.3563 67.619 68.8677 67.073 69.223C66.527 69.587 65.7297 69.769 64.681 69.769C63.9444 69.769 63.3594 69.691 62.926 69.535C62.5014 69.3877 62.198 69.1623 62.016 68.859C61.834 68.5557 61.743 68.1657 61.743 67.689H62.822C62.822 67.9663 62.874 68.183 62.978 68.339C63.082 68.5037 63.2684 68.625 63.537 68.703C63.8057 68.7897 64.187 68.833 64.681 68.833C65.4004 68.833 65.9117 68.742 66.215 68.56C66.527 68.3867 66.683 68.1223 66.683 67.767C66.683 67.4463 66.5617 67.2037 66.319 67.039C66.0764 66.8743 65.7384 66.792 65.305 66.792H64.226C63.6454 66.792 63.2034 66.6707 62.9 66.428C62.6054 66.1767 62.458 65.8647 62.458 65.492C62.458 65.2667 62.523 65.05 62.653 64.842C62.783 64.634 62.9694 64.4477 63.212 64.283C62.8134 64.075 62.5187 63.8193 62.328 63.516C62.146 63.204 62.055 62.827 62.055 62.385C62.055 61.9257 62.1677 61.514 62.393 61.15C62.627 60.786 62.9434 60.5043 63.342 60.305C63.7494 60.097 64.2 59.993 64.694 59.993C65.2314 60.0017 65.682 59.9843 66.046 59.941C66.41 59.889 66.709 59.824 66.943 59.746C67.1857 59.6593 67.4804 59.538 67.827 59.382L68.178 60.461ZM64.694 60.851C64.2434 60.851 63.8924 60.994 63.641 61.28C63.3984 61.5573 63.277 61.9257 63.277 62.385C63.277 62.853 63.4027 63.23 63.654 63.516C63.9054 63.7933 64.2607 63.932 64.72 63.932C65.188 63.932 65.5434 63.7977 65.786 63.529C66.0374 63.2517 66.163 62.866 66.163 62.372C66.163 61.358 65.6734 60.851 64.694 60.851ZM74.5504 67.039C74.2817 67.8363 73.9047 68.4647 73.4194 68.924C72.9427 69.392 72.258 69.6737 71.3654 69.769L71.2354 68.833C71.686 68.755 72.0457 68.6423 72.3144 68.495C72.583 68.3477 72.7954 68.157 72.9514 67.923C73.116 67.6977 73.2677 67.39 73.4064 67H73.0034L70.7024 60.149H71.9764L73.8094 66.129L75.6034 60.149H76.8384L74.5504 67.039ZM82.809 63.373C82.809 63.5723 82.8004 63.776 82.783 63.984H78.415C78.467 64.738 78.6577 65.2927 78.987 65.648C79.3164 66.0033 79.741 66.181 80.261 66.181C80.5904 66.181 80.8937 66.1333 81.171 66.038C81.4484 65.9427 81.7387 65.791 82.042 65.583L82.562 66.298C81.834 66.87 81.0367 67.156 80.17 67.156C79.2167 67.156 78.4714 66.844 77.934 66.22C77.4054 65.596 77.141 64.738 77.141 63.646C77.141 62.9353 77.2537 62.307 77.479 61.761C77.713 61.2063 78.0424 60.773 78.467 60.461C78.9004 60.149 79.4074 59.993 79.988 59.993C80.898 59.993 81.5957 60.292 82.081 60.89C82.5664 61.488 82.809 62.3157 82.809 63.373ZM81.626 63.022C81.626 62.346 81.4917 61.8303 81.223 61.475C80.9544 61.1197 80.5514 60.942 80.014 60.942C79.0347 60.942 78.5017 61.6613 78.415 63.1H81.626V63.022ZM87.657 66.688C87.2063 67 86.695 67.156 86.123 67.156C85.5423 67.156 85.0873 66.9913 84.758 66.662C84.4373 66.324 84.277 65.8387 84.277 65.206V61.072H83.081V60.149H84.277V58.602L85.473 58.459V60.149H87.098L86.968 61.072H85.473V65.154C85.473 65.5093 85.5337 65.7693 85.655 65.934C85.785 66.09 85.9973 66.168 86.292 66.168C86.5607 66.168 86.864 66.077 87.202 65.895L87.657 66.688Z" fill="#ACACB2"/>
</svg>
