<svg width="89" height="71" viewBox="0 0 89 71" fill="none" xmlns="http://www.w3.org/2000/svg">
<g opacity="0.3">
<rect x="28.5" width="32" height="32" rx="10" fill="#DCDCE0"/>
<path d="M41.25 14.3125H45.75C46.0607 14.3125 46.3125 14.0607 46.3125 13.75C46.3125 13.4393 46.0607 13.1875 45.75 13.1875H41.25C40.9393 13.1875 40.6875 13.4393 40.6875 13.75C40.6875 14.0607 40.9393 14.3125 41.25 14.3125Z" fill="#ACACB2"/>
<path d="M41.25 16.5625H45.75C46.0607 16.5625 46.3125 16.3107 46.3125 16C46.3125 15.6893 46.0607 15.4375 45.75 15.4375H41.25C40.9393 15.4375 40.6875 15.6893 40.6875 16C40.6875 16.3107 40.9393 16.5625 41.25 16.5625Z" fill="#ACACB2"/>
<path d="M41.25 18.8125H43.5C43.8107 18.8125 44.0625 18.5607 44.0625 18.25C44.0625 17.9393 43.8107 17.6875 43.5 17.6875H41.25C40.9393 17.6875 40.6875 17.9393 40.6875 18.25C40.6875 18.5607 40.9393 18.8125 41.25 18.8125Z" fill="#ACACB2"/>
<path fill-rule="evenodd" clip-rule="evenodd" d="M37.875 22.75H45.517L45.518 22.75C45.518 22.75 45.7396 22.7504 45.9447 22.6662C45.9447 22.6662 46.1506 22.5816 46.3085 22.4245L49.9235 18.8095C49.9235 18.8095 50.0816 18.6506 50.1662 18.4447C50.1662 18.4447 50.2508 18.2387 50.25 18.016L50.25 10.375C50.25 10.375 50.25 9.90901 49.9205 9.57951C49.9205 9.57951 49.591 9.25 49.125 9.25H37.875C37.875 9.25 37.409 9.25 37.0795 9.57951C37.0795 9.57951 36.75 9.90901 36.75 10.375V21.625C36.75 21.625 36.75 22.091 37.0795 22.4205C37.0795 22.4205 37.409 22.75 37.875 22.75ZM49.125 18.017L45.517 21.625H37.875V10.375H49.125L49.125 18.017Z" fill="#ACACB2"/>
<path d="M45.1875 18.25V22.1383C45.1875 22.4489 45.4393 22.7008 45.75 22.7008C46.0607 22.7008 46.3125 22.4489 46.3125 22.1383V18.8125H49.6383C49.9489 18.8125 50.2008 18.5607 50.2008 18.25C50.2008 17.9393 49.9489 17.6875 49.6383 17.6875H45.75C45.4393 17.6875 45.1875 17.9393 45.1875 18.25Z" fill="#ACACB2"/>
</g>
<path d="M26.9466 51H25.2956L21.6556 43.395C21.7076 43.993 21.7466 44.5477 21.7726 45.059C21.8073 45.5617 21.8246 46.1727 21.8246 46.892V51H20.6676V42.043H22.2796L25.9586 49.661C25.9326 49.4357 25.8979 49.0413 25.8546 48.478C25.8113 47.9147 25.7896 47.399 25.7896 46.931V42.043H26.9466V51ZM31.5306 43.993C32.4926 43.993 33.238 44.3137 33.7666 44.955C34.304 45.5963 34.5726 46.4673 34.5726 47.568C34.5726 48.2787 34.4513 48.907 34.2086 49.453C33.966 49.9903 33.615 50.4107 33.1556 50.714C32.6963 51.0087 32.1503 51.156 31.5176 51.156C30.5556 51.156 29.806 50.8353 29.2686 50.194C28.7313 49.5527 28.4626 48.6817 28.4626 47.581C28.4626 46.8703 28.584 46.2463 28.8266 45.709C29.0693 45.163 29.4203 44.7427 29.8796 44.448C30.339 44.1447 30.8893 43.993 31.5306 43.993ZM31.5306 44.955C30.3433 44.955 29.7496 45.8303 29.7496 47.581C29.7496 49.323 30.339 50.194 31.5176 50.194C32.6963 50.194 33.2856 49.3187 33.2856 47.568C33.2856 45.826 32.7006 44.955 31.5306 44.955ZM44.2528 44.149V53.769L43.0568 53.626V50.09C42.8315 50.428 42.5498 50.6923 42.2118 50.883C41.8825 51.065 41.5142 51.156 41.1068 51.156C40.2922 51.156 39.6552 50.8353 39.1958 50.194C38.7452 49.5527 38.5198 48.6903 38.5198 47.607C38.5198 46.905 38.6282 46.281 38.8448 45.735C39.0615 45.189 39.3735 44.7643 39.7808 44.461C40.1882 44.149 40.6648 43.993 41.2108 43.993C41.9388 43.993 42.5802 44.3007 43.1348 44.916L43.2258 44.149H44.2528ZM41.3668 50.207C41.7308 50.207 42.0428 50.1247 42.3028 49.96C42.5628 49.7867 42.8142 49.531 43.0568 49.193V45.839C42.8315 45.5443 42.5888 45.3233 42.3288 45.176C42.0775 45.02 41.7915 44.942 41.4708 44.942C40.9422 44.942 40.5305 45.163 40.2358 45.605C39.9498 46.047 39.8068 46.7057 39.8068 47.581C39.8068 48.465 39.9412 49.1237 40.2098 49.557C40.4785 49.9903 40.8642 50.207 41.3668 50.207ZM51.2944 51H50.2674L50.1764 49.934C49.9164 50.3587 49.6174 50.6707 49.2794 50.87C48.9414 51.0607 48.5297 51.156 48.0444 51.156C47.4464 51.156 46.9784 50.974 46.6404 50.61C46.3024 50.246 46.1334 49.7303 46.1334 49.063V44.149H47.3294V48.933C47.3294 49.401 47.4117 49.7347 47.5764 49.934C47.741 50.1247 48.0097 50.22 48.3824 50.22C49.0497 50.22 49.6217 49.8257 50.0984 49.037V44.149H51.2944V51ZM55.8188 43.993C56.7808 43.993 57.5261 44.3137 58.0548 44.955C58.5921 45.5963 58.8608 46.4673 58.8608 47.568C58.8608 48.2787 58.7395 48.907 58.4968 49.453C58.2541 49.9903 57.9031 50.4107 57.4438 50.714C56.9845 51.0087 56.4385 51.156 55.8058 51.156C54.8438 51.156 54.0941 50.8353 53.5568 50.194C53.0195 49.5527 52.7508 48.6817 52.7508 47.581C52.7508 46.8703 52.8721 46.2463 53.1148 45.709C53.3575 45.163 53.7085 44.7427 54.1678 44.448C54.6271 44.1447 55.1775 43.993 55.8188 43.993ZM55.8188 44.955C54.6315 44.955 54.0378 45.8303 54.0378 47.581C54.0378 49.323 54.6271 50.194 55.8058 50.194C56.9845 50.194 57.5738 49.3187 57.5738 47.568C57.5738 45.826 56.9888 44.955 55.8188 44.955ZM63.7746 50.688C63.3239 51 62.8126 51.156 62.2406 51.156C61.6599 51.156 61.2049 50.9913 60.8756 50.662C60.5549 50.324 60.3946 49.8387 60.3946 49.206V45.072H59.1986V44.149H60.3946V42.602L61.5906 42.459V44.149H63.2156L63.0856 45.072H61.5906V49.154C61.5906 49.5093 61.6512 49.7693 61.7726 49.934C61.9026 50.09 62.1149 50.168 62.4096 50.168C62.6782 50.168 62.9816 50.077 63.3196 49.895L63.7746 50.688ZM69.4774 47.373C69.4774 47.5723 69.4688 47.776 69.4514 47.984H65.0834C65.1354 48.738 65.3261 49.2927 65.6554 49.648C65.9848 50.0033 66.4094 50.181 66.9294 50.181C67.2588 50.181 67.5621 50.1333 67.8394 50.038C68.1168 49.9427 68.4071 49.791 68.7104 49.583L69.2304 50.298C68.5024 50.87 67.7051 51.156 66.8384 51.156C65.8851 51.156 65.1398 50.844 64.6024 50.22C64.0738 49.596 63.8094 48.738 63.8094 47.646C63.8094 46.9353 63.9221 46.307 64.1474 45.761C64.3814 45.2063 64.7108 44.773 65.1354 44.461C65.5688 44.149 66.0758 43.993 66.6564 43.993C67.5664 43.993 68.2641 44.292 68.7494 44.89C69.2348 45.488 69.4774 46.3157 69.4774 47.373ZM68.2944 47.022C68.2944 46.346 68.1601 45.8303 67.8914 45.475C67.6228 45.1197 67.2198 44.942 66.6824 44.942C65.7031 44.942 65.1701 45.6613 65.0834 47.1H68.2944V47.022ZM18.082 59.993C18.3247 59.993 18.55 60.019 18.758 60.071L18.537 61.241C18.329 61.189 18.1297 61.163 17.939 61.163C17.5144 61.163 17.172 61.319 16.912 61.631C16.652 61.943 16.4484 62.4283 16.301 63.087V67H15.105V60.149H16.132L16.249 61.54C16.431 61.0287 16.678 60.643 16.99 60.383C17.302 60.123 17.666 59.993 18.082 59.993ZM24.3801 63.373C24.3801 63.5723 24.3714 63.776 24.3541 63.984H19.9861C20.0381 64.738 20.2288 65.2927 20.5581 65.648C20.8874 66.0033 21.3121 66.181 21.8321 66.181C22.1614 66.181 22.4648 66.1333 22.7421 66.038C23.0194 65.9427 23.3098 65.791 23.6131 65.583L24.1331 66.298C23.4051 66.87 22.6078 67.156 21.7411 67.156C20.7878 67.156 20.0424 66.844 19.5051 66.22C18.9764 65.596 18.7121 64.738 18.7121 63.646C18.7121 62.9353 18.8248 62.307 19.0501 61.761C19.2841 61.2063 19.6134 60.773 20.0381 60.461C20.4714 60.149 20.9784 59.993 21.5591 59.993C22.4691 59.993 23.1668 60.292 23.6521 60.89C24.1374 61.488 24.3801 62.3157 24.3801 63.373ZM23.1971 63.022C23.1971 62.346 23.0628 61.8303 22.7941 61.475C22.5254 61.1197 22.1224 60.942 21.5851 60.942C20.6058 60.942 20.0728 61.6613 19.9861 63.1H23.1971V63.022ZM31.0741 60.149V69.769L29.8781 69.626V66.09C29.6528 66.428 29.3711 66.6923 29.0331 66.883C28.7038 67.065 28.3354 67.156 27.9281 67.156C27.1134 67.156 26.4764 66.8353 26.0171 66.194C25.5664 65.5527 25.3411 64.6903 25.3411 63.607C25.3411 62.905 25.4494 62.281 25.6661 61.735C25.8828 61.189 26.1948 60.7643 26.6021 60.461C27.0094 60.149 27.4861 59.993 28.0321 59.993C28.7601 59.993 29.4014 60.3007 29.9561 60.916L30.0471 60.149H31.0741ZM28.1881 66.207C28.5521 66.207 28.8641 66.1247 29.1241 65.96C29.3841 65.7867 29.6354 65.531 29.8781 65.193V61.839C29.6528 61.5443 29.4101 61.3233 29.1501 61.176C28.8988 61.02 28.6128 60.942 28.2921 60.942C27.7634 60.942 27.3518 61.163 27.0571 61.605C26.7711 62.047 26.6281 62.7057 26.6281 63.581C26.6281 64.465 26.7624 65.1237 27.0311 65.557C27.2998 65.9903 27.6854 66.207 28.1881 66.207ZM38.1156 67H37.0886L36.9976 65.934C36.7376 66.3587 36.4386 66.6707 36.1006 66.87C35.7626 67.0607 35.351 67.156 34.8656 67.156C34.2676 67.156 33.7996 66.974 33.4616 66.61C33.1236 66.246 32.9546 65.7303 32.9546 65.063V60.149H34.1506V64.933C34.1506 65.401 34.233 65.7347 34.3976 65.934C34.5623 66.1247 34.831 66.22 35.2036 66.22C35.871 66.22 36.443 65.8257 36.9196 65.037V60.149H38.1156V67ZM45.24 63.373C45.24 63.5723 45.2314 63.776 45.214 63.984H40.846C40.898 64.738 41.0887 65.2927 41.418 65.648C41.7474 66.0033 42.172 66.181 42.692 66.181C43.0214 66.181 43.3247 66.1333 43.602 66.038C43.8794 65.9427 44.1697 65.791 44.473 65.583L44.993 66.298C44.265 66.87 43.4677 67.156 42.601 67.156C41.6477 67.156 40.9024 66.844 40.365 66.22C39.8364 65.596 39.572 64.738 39.572 63.646C39.572 62.9353 39.6847 62.307 39.91 61.761C40.144 61.2063 40.4734 60.773 40.898 60.461C41.3314 60.149 41.8384 59.993 42.419 59.993C43.329 59.993 44.0267 60.292 44.512 60.89C44.9974 61.488 45.24 62.3157 45.24 63.373ZM44.057 63.022C44.057 62.346 43.9227 61.8303 43.654 61.475C43.3854 61.1197 42.9824 60.942 42.445 60.942C41.4657 60.942 40.9327 61.6613 40.846 63.1H44.057V63.022ZM48.489 59.993C48.957 59.993 49.3774 60.058 49.75 60.188C50.1227 60.318 50.478 60.513 50.816 60.773L50.309 61.527C49.997 61.3277 49.698 61.1803 49.412 61.085C49.1347 60.9897 48.84 60.942 48.528 60.942C48.138 60.942 47.8304 61.0243 47.605 61.189C47.3797 61.345 47.267 61.5617 47.267 61.839C47.267 62.1163 47.371 62.333 47.579 62.489C47.7957 62.645 48.1814 62.7967 48.736 62.944C49.4987 63.1347 50.0664 63.3947 50.439 63.724C50.8204 64.0533 51.011 64.504 51.011 65.076C51.011 65.752 50.7467 66.2677 50.218 66.623C49.698 66.9783 49.061 67.156 48.307 67.156C47.267 67.156 46.4047 66.857 45.72 66.259L46.357 65.531C46.9377 65.973 47.579 66.194 48.281 66.194C48.7317 66.194 49.087 66.103 49.347 65.921C49.6157 65.7303 49.75 65.4747 49.75 65.154C49.75 64.92 49.7024 64.7337 49.607 64.595C49.5117 64.4477 49.347 64.322 49.113 64.218C48.879 64.1053 48.5367 63.9883 48.086 63.867C47.358 63.6763 46.8294 63.4207 46.5 63.1C46.1794 62.7793 46.019 62.372 46.019 61.878C46.019 61.5227 46.123 61.202 46.331 60.916C46.5477 60.6213 46.8424 60.396 47.215 60.24C47.5964 60.0753 48.021 59.993 48.489 59.993ZM55.6364 66.688C55.1857 67 54.6744 67.156 54.1024 67.156C53.5217 67.156 53.0667 66.9913 52.7374 66.662C52.4167 66.324 52.2564 65.8387 52.2564 65.206V61.072H51.0604V60.149H52.2564V58.602L53.4524 58.459V60.149H55.0774L54.9474 61.072H53.4524V65.154C53.4524 65.5093 53.513 65.7693 53.6344 65.934C53.7644 66.09 53.9767 66.168 54.2714 66.168C54.54 66.168 54.8434 66.077 55.1814 65.895L55.6364 66.688ZM62.0191 67.039C61.7504 67.8363 61.3734 68.4647 60.8881 68.924C60.4114 69.392 59.7267 69.6737 58.8341 69.769L58.7041 68.833C59.1547 68.755 59.5144 68.6423 59.7831 68.495C60.0517 68.3477 60.2641 68.157 60.4201 67.923C60.5847 67.6977 60.7364 67.39 60.8751 67H60.4721L58.1711 60.149H59.4451L61.2781 66.129L63.0721 60.149H64.3071L62.0191 67.039ZM70.2777 63.373C70.2777 63.5723 70.2691 63.776 70.2517 63.984H65.8837C65.9357 64.738 66.1264 65.2927 66.4557 65.648C66.7851 66.0033 67.2097 66.181 67.7297 66.181C68.0591 66.181 68.3624 66.1333 68.6397 66.038C68.9171 65.9427 69.2074 65.791 69.5107 65.583L70.0307 66.298C69.3027 66.87 68.5054 67.156 67.6387 67.156C66.6854 67.156 65.9401 66.844 65.4027 66.22C64.8741 65.596 64.6097 64.738 64.6097 63.646C64.6097 62.9353 64.7224 62.307 64.9477 61.761C65.1817 61.2063 65.5111 60.773 65.9357 60.461C66.3691 60.149 66.8761 59.993 67.4567 59.993C68.3667 59.993 69.0644 60.292 69.5497 60.89C70.0351 61.488 70.2777 62.3157 70.2777 63.373ZM69.0947 63.022C69.0947 62.346 68.9604 61.8303 68.6917 61.475C68.4231 61.1197 68.0201 60.942 67.4827 60.942C66.5034 60.942 65.9704 61.6613 65.8837 63.1H69.0947V63.022ZM75.1257 66.688C74.675 67 74.1637 67.156 73.5917 67.156C73.011 67.156 72.556 66.9913 72.2267 66.662C71.906 66.324 71.7457 65.8387 71.7457 65.206V61.072H70.5497V60.149H71.7457V58.602L72.9417 58.459V60.149H74.5667L74.4367 61.072H72.9417V65.154C72.9417 65.5093 73.0024 65.7693 73.1237 65.934C73.2537 66.09 73.466 66.168 73.7607 66.168C74.0294 66.168 74.3327 66.077 74.6707 65.895L75.1257 66.688Z" fill="#ACACB2"/>
</svg>
