<svg width="33" height="32" viewBox="0 0 33 32" fill="none" xmlns="http://www.w3.org/2000/svg">
<g opacity="0.3">
<rect x="0.5" width="32" height="32" rx="10" fill="#DCDCE0"/>
<path fill-rule="evenodd" clip-rule="evenodd" d="M9.25 10.3744C9.25 10.3744 9.25 9.90839 9.5795 9.57888C9.5795 9.57888 9.90901 9.24938 10.375 9.24938H12.625C12.625 9.24938 13.091 9.24938 13.4205 9.57888C13.4205 9.57888 13.75 9.90839 13.75 10.3744V21.6244C13.75 21.6244 13.75 22.0904 13.4205 22.4199C13.4205 22.4199 13.091 22.7494 12.625 22.7494H10.375C10.375 22.7494 9.90901 22.7494 9.5795 22.4199C9.5795 22.4199 9.25 22.0904 9.25 21.6244V10.3744ZM10.375 10.3744V21.6244H12.625V10.3744H10.375Z" fill="#ACACB2"/>
<path d="M9.8125 13.1869H13.1875C13.4982 13.1869 13.75 12.935 13.75 12.6244C13.75 12.3137 13.4982 12.0619 13.1875 12.0619H9.8125C9.50184 12.0619 9.25 12.3137 9.25 12.6244C9.25 12.935 9.50184 13.1869 9.8125 13.1869Z" fill="#ACACB2"/>
<path fill-rule="evenodd" clip-rule="evenodd" d="M12.625 10.3744C12.625 10.3744 12.625 9.90839 12.9545 9.57888C12.9545 9.57888 13.284 9.24938 13.75 9.24938H16C16 9.24938 16.466 9.24938 16.7955 9.57888C16.7955 9.57888 17.125 9.90839 17.125 10.3744V21.6244C17.125 21.6244 17.125 22.0904 16.7955 22.4199C16.7955 22.4199 16.466 22.7494 16 22.7494H13.75C13.75 22.7494 13.284 22.7494 12.9545 22.4199C12.9545 22.4199 12.625 22.0904 12.625 21.6244V10.3744ZM13.75 10.3744V21.6244H16V10.3744H13.75Z" fill="#ACACB2"/>
<path d="M13.1875 19.9369H16.5625C16.8732 19.9369 17.125 19.685 17.125 19.3744C17.125 19.0637 16.8732 18.8119 16.5625 18.8119H13.1875C12.8768 18.8119 12.625 19.0637 12.625 19.3744C12.625 19.685 12.8768 19.9369 13.1875 19.9369Z" fill="#ACACB2"/>
<path fill-rule="evenodd" clip-rule="evenodd" d="M16.2149 11.0509C16.2149 11.0509 16.0937 10.5989 16.3277 10.1936C16.3277 10.1936 16.5616 9.7883 17.0136 9.66714L19.1961 9.08214C19.1961 9.08214 19.6481 8.96099 20.0534 9.19494C20.0534 9.19494 20.4587 9.42888 20.5799 9.88089L23.5049 20.7934C23.5049 20.7934 23.626 21.2454 23.3921 21.6507C23.3921 21.6507 23.1581 22.056 22.7061 22.1771L20.5236 22.7621C20.5236 22.7621 20.0716 22.8833 19.6663 22.6494C19.6663 22.6494 19.261 22.4154 19.1399 21.9634L16.2149 11.0509ZM17.3061 10.7584L20.2311 21.6709L22.4136 21.0859L19.4886 10.1734L17.3061 10.7584Z" fill="#ACACB2"/>
<path d="M19.1838 20.1425L22.4463 19.2636C22.5904 19.2248 22.7131 19.1304 22.7875 19.0011C22.8366 18.9157 22.8625 18.819 22.8625 18.7205L22.8624 18.7096C22.8615 18.6638 22.855 18.6184 22.8431 18.5742C22.777 18.3286 22.5543 18.158 22.3 18.158L22.2952 18.158C22.2474 18.1584 22.1998 18.1649 22.1537 18.1773L18.8912 19.0563C18.6456 19.1224 18.475 19.3451 18.475 19.5994L18.475 19.6042C18.4754 19.652 18.4819 19.6996 18.4944 19.7457C18.5605 19.9913 18.7832 20.1619 19.0375 20.1619L19.0423 20.1619C19.0901 20.1615 19.1377 20.155 19.1838 20.1425Z" fill="#ACACB2"/>
<path d="M17.439 13.6178L20.7015 12.7459C20.8456 12.7074 20.9685 12.6132 21.0432 12.4841C21.0927 12.3985 21.1187 12.3014 21.1187 12.2025L21.1187 12.1927C21.1179 12.147 21.1115 12.1015 21.0997 12.0573C21.0339 11.8112 20.811 11.64 20.5562 11.64L20.5525 11.64C20.5048 11.6403 20.4572 11.6467 20.411 11.6591L17.1485 12.5309C16.9024 12.5967 16.7312 12.8196 16.7312 13.0744L16.7313 13.0781C16.7316 13.1259 16.738 13.1734 16.7503 13.2196C16.8161 13.4657 17.039 13.6369 17.2937 13.6369L17.2974 13.6369C17.3452 13.6366 17.3928 13.6301 17.439 13.6178Z" fill="#ACACB2"/>
</g>
</svg>
