<svg width="66" height="50" viewBox="0 0 66 50" fill="none" xmlns="http://www.w3.org/2000/svg">
<path opacity="0.5" d="M49.868 -0.000831201L0.983398 14.9727L9.79729 43.7477L58.6819 28.7742L49.868 -0.000831201Z" fill="#D1D1E4"/>
<path opacity="0.5" d="M49.866 -0.000692424L33.438 5.03125L42.2519 33.8062L58.6799 28.7743L49.866 -0.000692424Z" fill="#D1D1E4"/>
<path d="M49.0794 1.4668C48.5254 4.01554 47.9866 6.56429 47.4629 9.11304L45.9146 16.7774L44.4163 24.4736C43.9259 27.0345 43.4476 29.5999 42.9814 32.1698C43.5354 29.6241 44.0742 27.0754 44.5979 24.5236L46.1462 16.8592L47.6446 9.18115C48.1349 6.60819 48.6132 4.03673 49.0794 1.4668Z" fill="#C7C7EE"/>
<path d="M57.1476 27.8106C55.3314 25.946 53.4985 24.0889 51.649 22.2394L46.1095 16.7181L40.5338 11.2377C38.6691 9.42149 36.7954 7.60527 34.9126 5.78906C36.7288 7.65673 38.5617 9.51381 40.4112 11.3603L45.9506 16.8816L51.5264 22.362C53.3941 24.1964 55.2678 26.0126 57.1476 27.8106Z" fill="#C7C7EE"/>
<path d="M10.3724 18.6821L10.6416 18.5996L9.48335 14.8182L9.21418 14.9007L10.3724 18.6821Z" fill="#C7C7EE"/>
<path d="M9.73327 18.8735L10.0024 18.791L8.84419 15.0096L8.57501 15.0921L9.73327 18.8735Z" fill="#C7C7EE"/>
<path d="M9.08776 19.0785L9.35693 18.9961L8.19868 15.2147L7.92951 15.2972L9.08776 19.0785Z" fill="#C7C7EE"/>
<path d="M8.44957 19.266L8.71875 19.1836L7.56116 15.402L7.29197 15.4844L8.44957 19.266Z" fill="#C7C7EE"/>
<path d="M7.80456 19.4653L8.07373 19.3828L6.91548 15.6014L6.6463 15.6839L7.80456 19.4653Z" fill="#C7C7EE"/>
<path d="M7.16393 19.6567L7.43311 19.5742L6.27485 15.7928L6.00568 15.8753L7.16393 19.6567Z" fill="#C7C7EE"/>
<path d="M6.5155 19.8676L6.78467 19.7852L5.62641 16.0038L5.35725 16.0862L6.5155 19.8676Z" fill="#C7C7EE"/>
<path d="M5.8744 20.0591L6.14355 19.9766L4.98464 16.1954L4.71548 16.2779L5.8744 20.0591Z" fill="#C7C7EE"/>
<path d="M5.22693 20.2621L5.49609 20.1797L4.33784 16.3983L4.06867 16.4808L5.22693 20.2621Z" fill="#C7C7EE"/>
<path d="M12.2054 14.2981L11.0884 14.3254L13.5085 13.5762L12.5641 14.1846L12.9909 15.574C13.7582 15.4423 14.2758 16.0825 14.6663 17.3539L12.2462 18.1167C11.8557 16.8499 11.9238 16.0281 12.6322 15.7057L12.2054 14.2981Z" fill="#C7C7EE"/>
<path d="M14.6392 15.2654L15.2703 15.0701L14.7027 13.2176L16.3192 12.7227L16.8867 14.5752L17.5224 14.38L16.6688 16.7501L14.6392 15.2654Z" fill="#C7C7EE"/>
<path opacity="0.1" d="M0.98584 14.9744L1.70778 17.3354L35.4984 11.7597L33.437 5.03516L0.98584 14.9744Z" fill="#D1D1E4"/>
<path opacity="0.35" d="M65.0162 32.0381L48.584 37.069L42.25 33.8089L58.6822 28.7734L65.0162 32.0381Z" fill="#D1D1E4"/>
<path opacity="0.2" d="M6.37549 50L22.8077 44.9646L26.2267 38.7168L9.79452 43.7477L6.37549 50Z" fill="#D1D1E4"/>
<path d="M17.9445 16.7129C18.9479 16.8037 19.9696 16.89 20.9639 17.0671C21.9583 17.2441 22.9436 17.4621 23.9198 17.7345C25.1986 18.0632 26.4356 18.537 27.6067 19.1466C25.45 18.2158 21.8993 17.5166 20.9049 17.3304C19.9105 17.1442 18.9252 16.9218 17.9354 16.7447C17.9082 16.7538 17.9172 16.7129 17.9445 16.7129Z" fill="#C7C7EE"/>
<path d="M17.2317 20.2973C18.5076 20.4653 19.788 20.5879 21.0594 20.8149C22.3307 21.042 23.5067 21.3689 24.7554 21.6822C24.8507 21.7049 24.8053 21.7503 24.71 21.7276C23.4477 21.4642 22.2672 21.3189 21.0049 21.0737C19.7426 20.8286 18.4894 20.5289 17.2226 20.3246C17.2045 20.3246 17.209 20.2928 17.2317 20.2973Z" fill="#C7C7EE"/>
<path d="M16.0649 23.2561C18.0339 23.4698 19.9755 23.8867 21.8587 24.5002C21.954 24.5274 21.8904 24.5774 21.7905 24.5547C19.8744 24.1006 18.3715 23.7374 16.0604 23.3242C16.0241 23.3196 16.0241 23.2515 16.0649 23.2561Z" fill="#C7C7EE"/>
<path d="M37.016 36.6735C36.9524 36.6326 36.8888 36.5929 36.8252 36.5543L36.8695 36.4805L37.0625 36.602L37.016 36.6735Z" fill="#263238"/>
<path d="M34.2429 48.0527H34.1611V47.9675C34.3127 47.9709 34.4644 47.9652 34.6153 47.9505L34.6244 48.0356C34.5007 48.0447 34.3712 48.0527 34.2429 48.0527ZM35.0854 47.9596L35.0673 47.8767C35.215 47.8432 35.3599 47.7988 35.501 47.7438L35.5317 47.8233C35.3865 47.879 35.2373 47.9238 35.0854 47.9573V47.9596ZM35.9518 47.6189L35.9098 47.5451C36.0403 47.4689 36.1645 47.3823 36.2811 47.2862L36.3356 47.3509C36.2154 47.4512 36.0871 47.5412 35.9518 47.62V47.6189ZM36.6706 47.0284L36.6081 46.9705C36.71 46.8585 36.8038 46.7393 36.8886 46.6139L36.959 46.6616C36.872 46.7915 36.7756 46.9148 36.6706 47.0307V47.0284ZM37.1907 46.2573L37.1134 46.221C37.1782 46.0842 37.231 45.9421 37.2713 45.7963L37.353 45.819C37.3118 45.9699 37.2575 46.117 37.1907 46.2585V46.2573ZM37.4359 45.3579L37.3508 45.3511C37.3508 45.2898 37.3587 45.2273 37.3587 45.1672C37.3584 45.0829 37.3535 44.9988 37.344 44.9151C37.2556 44.9091 37.1676 44.8981 37.0805 44.8821L37.0953 44.7981C37.2339 44.8231 37.3745 44.836 37.5154 44.8367H37.5449V44.9219H37.5143H37.4291C37.4382 45.0041 37.4428 45.0867 37.4427 45.1694C37.4439 45.2308 37.4405 45.2955 37.4359 45.3591V45.3579ZM38.0116 44.8651L37.9923 44.7822C38.1384 44.7476 38.2798 44.6958 38.4136 44.6278L38.4522 44.7038C38.3123 44.7752 38.1644 44.8297 38.0116 44.8662V44.8651ZM36.6286 44.7595C36.4818 44.7065 36.3394 44.642 36.2028 44.5664L36.2448 44.4926C36.377 44.5656 36.5148 44.6279 36.657 44.6789L36.6286 44.7595ZM37.2395 44.4597C37.1897 44.3177 37.1242 44.1817 37.0442 44.0543L37.1157 44.0089C37.1998 44.1414 37.2684 44.2831 37.3201 44.4313L37.2395 44.4597ZM38.8428 44.4415L38.7883 44.3768C38.9035 44.2795 39.0089 44.1711 39.1029 44.0532L39.1687 44.1065C39.0717 44.23 38.9625 44.3434 38.8428 44.4449V44.4415ZM35.8178 44.3053L35.794 44.2825C35.6816 44.1838 35.5921 44.0617 35.5317 43.9248L35.6112 43.893C35.6665 44.0183 35.7487 44.13 35.8519 44.2201L35.8746 44.2405L35.8178 44.3053ZM39.4321 43.725L39.3595 43.6807C39.439 43.549 39.5128 43.4138 39.5775 43.281L39.6547 43.3184C39.5888 43.4536 39.5139 43.591 39.4321 43.725ZM36.7614 43.7079C36.6577 43.6075 36.5435 43.5184 36.4208 43.4422L36.4038 43.4309L36.448 43.3582L36.4662 43.3695C36.5928 43.4494 36.7104 43.5427 36.8171 43.6478L36.7614 43.7079ZM35.6339 43.4888L35.5635 43.4411C35.6121 43.3728 35.6765 43.3172 35.7513 43.2793C35.826 43.2413 35.9089 43.222 35.9927 43.223V43.3082C35.9229 43.3078 35.854 43.324 35.7916 43.3553C35.7292 43.3867 35.6752 43.4325 35.6339 43.4888ZM39.8352 42.8903L39.7558 42.8608C39.8083 42.7183 39.8535 42.5731 39.8909 42.4259L39.9726 42.4463C39.936 42.5969 39.8905 42.7451 39.8364 42.8903H39.8352ZM40.0624 41.9898L39.9772 41.9784C39.9975 41.8278 40.0092 41.6762 40.0124 41.5242H40.0976C40.0945 41.6799 40.0827 41.8354 40.0624 41.9898ZM39.9965 41.07C39.9828 40.9175 39.9612 40.7659 39.9318 40.6157L40.0158 40.5987C40.0454 40.7508 40.0674 40.9043 40.0817 41.0586L39.9965 41.07ZM39.8205 40.1774C39.7773 40.0343 39.7262 39.8901 39.6672 39.747L39.7467 39.7152C39.8057 39.8594 39.8602 40.0071 39.9022 40.1524L39.8205 40.1774ZM39.4798 39.3314C39.4117 39.1985 39.3356 39.0645 39.2527 38.9328L39.3254 38.8885C39.4072 39.0214 39.4844 39.1577 39.5525 39.2928L39.4798 39.3314ZM39.0018 38.5524C38.9144 38.4297 38.8201 38.3082 38.7225 38.1901L38.7883 38.1356C38.8871 38.2549 38.9825 38.3786 39.0711 38.5024L39.0018 38.5524ZM38.4204 37.8461C38.3171 37.7325 38.2081 37.6269 38.0968 37.5224L38.1547 37.46C38.2683 37.5667 38.3818 37.6769 38.4817 37.7881L38.4204 37.8461ZM37.7539 37.2181C37.6403 37.1216 37.5166 37.0262 37.3951 36.9353L37.445 36.8672C37.5688 36.958 37.6914 37.0546 37.8084 37.1534L37.7539 37.2181Z" fill="#263238"/>
<path d="M33.6856 48.0105C33.6092 48.001 33.5334 47.9874 33.4585 47.9696L33.4789 47.8867C33.4789 47.8867 33.5607 47.9072 33.6969 47.9265L33.6856 48.0105Z" fill="#263238"/>
<path d="M32.5398 47.8426C32.4864 48.2968 33.4142 48.5512 33.4846 47.9562C33.555 47.3611 32.5932 47.385 32.5398 47.8426Z" fill="#263238"/>
<path d="M33.7548 48.5938C33.6685 48.7652 33.363 48.7891 33.0474 48.5688C32.833 48.4051 32.6518 48.202 32.5137 47.9703C32.7806 47.9425 33.0504 47.966 33.3085 48.0396C33.6821 48.1656 33.8456 48.42 33.7548 48.5938Z" fill="#EBEBEB"/>
<path d="M32.5171 47.9707C32.6965 48.0513 32.8725 48.1388 33.0485 48.2251C33.2245 48.3114 33.3982 48.4034 33.5697 48.4987C33.3903 48.4181 33.2143 48.3307 33.0383 48.2444C32.8623 48.1581 32.6886 48.0661 32.5171 47.9707Z" fill="#263238"/>
<path d="M33.3414 48.5921C33.3007 48.5448 33.2627 48.4951 33.2279 48.4433C33.1936 48.3919 33.1625 48.3384 33.1348 48.2832C33.1755 48.3305 33.2135 48.3802 33.2483 48.432C33.2829 48.4832 33.314 48.5367 33.3414 48.5921Z" fill="#263238"/>
<path d="M32.96 48.1924C33.0224 48.1761 33.0857 48.1632 33.1496 48.1538C33.214 48.1447 33.2788 48.139 33.3438 48.1367C33.218 48.168 33.0894 48.1867 32.96 48.1924Z" fill="#263238"/>
<path d="M32.8611 48.2674C32.822 48.2187 32.7941 48.1621 32.7793 48.1016C32.8184 48.1502 32.8463 48.2068 32.8611 48.2674Z" fill="#263238"/>
<path d="M33.905 47.405C33.8607 47.2176 33.57 47.1245 33.2123 47.2653C32.9655 47.3752 32.7419 47.5313 32.5537 47.7252C32.809 47.8136 33.0788 47.8521 33.3486 47.8387C33.7312 47.8069 33.9504 47.598 33.905 47.405Z" fill="#EBEBEB"/>
<path d="M32.5537 47.7245C32.7467 47.6882 32.9386 47.6428 33.1294 47.5985C33.3202 47.5542 33.5109 47.5065 33.6972 47.4531C33.5053 47.4895 33.3134 47.5349 33.1226 47.5792C32.9318 47.6235 32.7433 47.6712 32.5537 47.7245Z" fill="#263238"/>
<path d="M33.4993 47.3125C33.4498 47.3476 33.4025 47.3856 33.3573 47.4261C33.3123 47.4685 33.2694 47.5132 33.229 47.5601C33.2789 47.5256 33.3264 47.4876 33.3709 47.4465C33.4163 47.4044 33.4591 47.3596 33.4993 47.3125Z" fill="#263238"/>
<path d="M33.0337 47.6113C33.1487 47.6712 33.2698 47.7188 33.3948 47.7533C33.28 47.6929 33.1589 47.6453 33.0337 47.6113Z" fill="#263238"/>
<path d="M32.9599 47.5156C32.9352 47.5341 32.9127 47.5555 32.8929 47.5792C32.8733 47.6036 32.8562 47.6298 32.8418 47.6576C32.8666 47.6387 32.889 47.6169 32.9088 47.5928C32.9294 47.5697 32.9466 47.5437 32.9599 47.5156Z" fill="#263238"/>
<path d="M32.5399 47.8428C32.5725 47.8466 32.6031 47.8599 32.6281 47.8811C32.6531 47.9023 32.6712 47.9304 32.6802 47.9619C32.6892 47.9934 32.6886 48.0269 32.6786 48.0581C32.6687 48.0892 32.6497 48.1168 32.624 48.1372C32.5984 48.1576 32.5673 48.1699 32.5347 48.1727C32.5021 48.1754 32.4694 48.1685 32.4407 48.1526C32.412 48.1368 32.3887 48.1129 32.3736 48.0838C32.3585 48.0547 32.3524 48.0218 32.356 47.9893C32.3611 47.9455 32.3833 47.9056 32.4178 47.8781C32.4522 47.8507 32.4961 47.838 32.5399 47.8428Z" fill="#455A64"/>
<path d="M32.5787 47.5128C32.6004 47.5154 32.6214 47.5222 32.6405 47.5328C32.6595 47.5435 32.6763 47.5578 32.6899 47.5749C32.7034 47.592 32.7135 47.6117 32.7194 47.6327C32.7254 47.6537 32.7272 47.6757 32.7246 47.6974C32.7221 47.7191 32.7153 47.7401 32.7047 47.7591C32.694 47.7782 32.6797 47.795 32.6626 47.8086C32.6454 47.8221 32.6258 47.8321 32.6048 47.8381C32.5838 47.8441 32.5618 47.8458 32.5401 47.8433C32.4963 47.8382 32.4563 47.8159 32.4289 47.7813C32.4016 47.7466 32.3891 47.7026 32.3942 47.6588C32.3993 47.6149 32.4216 47.575 32.4562 47.5476C32.4908 47.5202 32.5349 47.5077 32.5787 47.5128Z" fill="#455A64"/>
</svg>
