<svg width="15" height="14" viewBox="0 0 15 14" fill="none" xmlns="http://www.w3.org/2000/svg">
<path d="M6.625 2.1875H3.125C2.88338 2.1875 2.6875 2.38338 2.6875 2.625V6.125C2.6875 6.36662 2.88338 6.5625 3.125 6.5625H6.625C6.86662 6.5625 7.0625 6.36662 7.0625 6.125V2.625C7.0625 2.38338 6.86662 2.1875 6.625 2.1875Z" fill="#CCCCD8"/>
<path d="M11.875 2.1875H8.375C8.13338 2.1875 7.9375 2.38338 7.9375 2.625V6.125C7.9375 6.36662 8.13338 6.5625 8.375 6.5625H11.875C12.1166 6.5625 12.3125 6.36662 12.3125 6.125V2.625C12.3125 2.38338 12.1166 2.1875 11.875 2.1875Z" fill="#CCCCD8"/>
<path d="M6.625 7.4375H3.125C2.88338 7.4375 2.6875 7.63338 2.6875 7.875V11.375C2.6875 11.6166 2.88338 11.8125 3.125 11.8125H6.625C6.86662 11.8125 7.0625 11.6166 7.0625 11.375V7.875C7.0625 7.63338 6.86662 7.4375 6.625 7.4375Z" fill="#CCCCD8"/>
<path d="M11.875 7.4375H8.375C8.13338 7.4375 7.9375 7.63338 7.9375 7.875V11.375C7.9375 11.6166 8.13338 11.8125 8.375 11.8125H11.875C12.1166 11.8125 12.3125 11.6166 12.3125 11.375V7.875C12.3125 7.63338 12.1166 7.4375 11.875 7.4375Z" fill="#CCCCD8"/>
</svg>
