<svg width="33" height="32" viewBox="0 0 33 32" fill="none" xmlns="http://www.w3.org/2000/svg">
<g opacity="0.3">
<rect x="0.5" width="32" height="32" rx="10" fill="#DCDCE0"/>
<path d="M13.25 14.3125H17.75C18.0607 14.3125 18.3125 14.0607 18.3125 13.75C18.3125 13.4393 18.0607 13.1875 17.75 13.1875H13.25C12.9393 13.1875 12.6875 13.4393 12.6875 13.75C12.6875 14.0607 12.9393 14.3125 13.25 14.3125Z" fill="#ACACB2"/>
<path d="M13.25 16.5625H17.75C18.0607 16.5625 18.3125 16.3107 18.3125 16C18.3125 15.6893 18.0607 15.4375 17.75 15.4375H13.25C12.9393 15.4375 12.6875 15.6893 12.6875 16C12.6875 16.3107 12.9393 16.5625 13.25 16.5625Z" fill="#ACACB2"/>
<path d="M13.25 18.8125H15.5C15.8107 18.8125 16.0625 18.5607 16.0625 18.25C16.0625 17.9393 15.8107 17.6875 15.5 17.6875H13.25C12.9393 17.6875 12.6875 17.9393 12.6875 18.25C12.6875 18.5607 12.9393 18.8125 13.25 18.8125Z" fill="#ACACB2"/>
<path fill-rule="evenodd" clip-rule="evenodd" d="M9.875 22.75H17.517L17.518 22.75C17.518 22.75 17.7396 22.7504 17.9447 22.6662C17.9447 22.6662 18.1506 22.5816 18.3085 22.4245L21.9235 18.8095C21.9235 18.8095 22.0816 18.6506 22.1662 18.4447C22.1662 18.4447 22.2508 18.2387 22.25 18.016L22.25 10.375C22.25 10.375 22.25 9.90901 21.9205 9.57951C21.9205 9.57951 21.591 9.25 21.125 9.25H9.875C9.875 9.25 9.40901 9.25 9.0795 9.57951C9.0795 9.57951 8.75 9.90901 8.75 10.375V21.625C8.75 21.625 8.75 22.091 9.07951 22.4205C9.07951 22.4205 9.40901 22.75 9.875 22.75ZM21.125 18.017L17.517 21.625H9.875V10.375H21.125L21.125 18.017Z" fill="#ACACB2"/>
<path d="M17.1875 18.25V22.1383C17.1875 22.4489 17.4393 22.7008 17.75 22.7008C18.0607 22.7008 18.3125 22.4489 18.3125 22.1383V18.8125H21.6383C21.9489 18.8125 22.2008 18.5607 22.2008 18.25C22.2008 17.9393 21.9489 17.6875 21.6383 17.6875H17.75C17.4393 17.6875 17.1875 17.9393 17.1875 18.25Z" fill="#ACACB2"/>
</g>
</svg>
