<svg width="15" height="14" viewBox="0 0 15 14" fill="none" xmlns="http://www.w3.org/2000/svg">
<path fill-rule="evenodd" clip-rule="evenodd" d="M7.49972 0.730469C7.38369 0.730469 7.27241 0.776562 7.19036 0.85861C7.10832 0.940657 7.06222 1.05194 7.06222 1.16797V7.56889L6.08222 6.42497C6.04484 6.3813 5.99922 6.34543 5.94798 6.3194C5.89673 6.29336 5.84086 6.27767 5.78355 6.27323C5.72624 6.26879 5.66861 6.27568 5.61397 6.29351C5.55932 6.31134 5.50872 6.33975 5.46506 6.37714C5.42139 6.41452 5.38552 6.46014 5.35948 6.51138C5.33345 6.56263 5.31776 6.6185 5.31332 6.67581C5.30888 6.73312 5.31577 6.79074 5.3336 6.84539C5.35142 6.90004 5.37984 6.95064 5.41722 6.9943L7.16722 9.03597C7.2083 9.084 7.25929 9.12256 7.31668 9.149C7.37408 9.17544 7.43653 9.18913 7.49972 9.18913C7.56292 9.18913 7.62536 9.17544 7.68276 9.149C7.74016 9.12256 7.79115 9.084 7.83222 9.03597L9.58222 6.9943C9.61961 6.95064 9.64802 6.90004 9.66585 6.84539C9.68368 6.79074 9.69057 6.73312 9.68613 6.67581C9.68168 6.6185 9.666 6.56263 9.63996 6.51138C9.61393 6.46014 9.57805 6.41452 9.53439 6.37714C9.49073 6.33975 9.44013 6.31134 9.38548 6.29351C9.33083 6.27568 9.27321 6.26879 9.2159 6.27323C9.15859 6.27767 9.10272 6.29336 9.05147 6.3194C9.00022 6.34543 8.95461 6.3813 8.91722 6.42497L7.93722 7.5683V1.16797C7.93722 1.05194 7.89113 0.940657 7.80908 0.85861C7.72704 0.776562 7.61576 0.730469 7.49972 0.730469Z" fill="#CCCCD8"/>
<path d="M8.81234 5.25V5.4705C9.08497 5.37359 9.38199 5.36954 9.65717 5.45896C9.93235 5.54838 10.1702 5.72626 10.3338 5.96492C10.4974 6.20358 10.5775 6.48963 10.5617 6.77854C10.5458 7.06744 10.4349 7.34301 10.2462 7.56233L8.49617 9.604C8.37295 9.74769 8.22012 9.86302 8.04814 9.9421C7.87616 10.0212 7.68912 10.0621 7.49984 10.0621C7.31055 10.0621 7.12351 10.0212 6.95153 9.9421C6.77956 9.86302 6.62672 9.74769 6.5035 9.604L4.7535 7.56233C4.56531 7.34288 4.45484 7.06743 4.43924 6.77876C4.42364 6.49008 4.50378 6.20433 4.66723 5.96588C4.83068 5.72742 5.06828 5.5496 5.34315 5.46002C5.61802 5.37045 5.91478 5.37413 6.18734 5.4705V5.25H5.1665C3.51684 5.25 2.69142 5.25 2.17925 5.76275C1.6665 6.27492 1.6665 7.10033 1.6665 8.75V9.33333C1.6665 10.983 1.6665 11.8084 2.17925 12.3206C2.69142 12.8333 3.51684 12.8333 5.1665 12.8333H9.83317C11.4828 12.8333 12.3083 12.8333 12.8204 12.3206C13.3332 11.8084 13.3332 10.983 13.3332 9.33333V8.75C13.3332 7.10033 13.3332 6.27492 12.8204 5.76275C12.3083 5.25 11.4828 5.25 9.83317 5.25H8.81234Z" fill="#CCCCD8"/>
</svg>
