<svg width="24" height="24" viewBox="0 0 24 24" fill="none" xmlns="http://www.w3.org/2000/svg">
<path d="M10.1364 12.8889H14.8636C15.19 12.8889 15.4545 12.6236 15.4545 12.2963C15.4545 11.969 15.19 11.7037 14.8636 11.7037H10.1364C9.81001 11.7037 9.54545 11.969 9.54545 12.2963C9.54545 12.6236 9.81001 12.8889 10.1364 12.8889Z" fill="#262633"/>
<path d="M10.1364 15.2593H14.8636C15.19 15.2593 15.4545 14.9939 15.4545 14.6667C15.4545 14.3394 15.19 14.0741 14.8636 14.0741H10.1364C9.81001 14.0741 9.54545 14.3394 9.54545 14.6667C9.54545 14.9939 9.81001 15.2593 10.1364 15.2593Z" fill="#262633"/>
<path fill-rule="evenodd" clip-rule="evenodd" d="M6.34615 5.53232C6.34615 5.53232 6.69229 5.18519 7.18182 5.18519H17.8182C17.8182 5.18519 18.3077 5.18519 18.6539 5.53232C18.6539 5.53232 19 5.87945 19 6.37037V17.6296C19 17.6296 19 18.6115 18.3077 19.3057C18.3077 19.3057 17.6154 20 16.6364 20H8.36364C8.36364 20 7.38459 20 6.69229 19.3057C6.69229 19.3057 6 18.6115 6 17.6296V6.37037C6 6.37037 6 5.87945 6.34615 5.53232ZM7.18182 6.37037V17.6296C7.18182 17.6296 7.18182 18.1205 7.52796 18.4677C7.52796 18.4677 7.87411 18.8148 8.36364 18.8148H16.6364C16.6364 18.8148 17.1259 18.8148 17.472 18.4677C17.472 18.4677 17.8182 18.1205 17.8182 17.6296V6.37037H7.18182Z" fill="#262633"/>
<path d="M8.36364 4.59259V6.96296C8.36364 7.29024 8.6282 7.55556 8.95455 7.55556C9.2809 7.55556 9.54545 7.29024 9.54545 6.96296V4.59259C9.54545 4.26531 9.2809 4 8.95455 4C8.6282 4 8.36364 4.26531 8.36364 4.59259Z" fill="#262633"/>
<path d="M11.9091 4.59259V6.96296C11.9091 7.29024 12.1737 7.55556 12.5 7.55556C12.8264 7.55556 13.0909 7.29024 13.0909 6.96296V4.59259C13.0909 4.26531 12.8264 4 12.5 4C12.1737 4 11.9091 4.26531 11.9091 4.59259Z" fill="#262633"/>
<path d="M15.4545 4.59259V6.96296C15.4545 7.29024 15.7191 7.55556 16.0455 7.55556C16.3718 7.55556 16.6364 7.29024 16.6364 6.96296V4.59259C16.6364 4.26531 16.3718 4 16.0455 4C15.7191 4 15.4545 4.26531 15.4545 4.59259Z" fill="#262633"/>
</svg>
