<svg width="20" height="20" viewBox="0 0 20 20" fill="none" xmlns="http://www.w3.org/2000/svg">
<path d="M7.47063 14.9993C7.26845 16.4128 6.05286 17.4993 4.5835 17.4993C3.11413 17.4993 1.89855 16.4128 1.69636 14.9993H0.833496V4.99935C0.833496 4.53912 1.2066 4.16602 1.66683 4.16602H13.3335C13.7937 4.16602 14.1668 4.53912 14.1668 4.99935V6.66602H16.6668L19.1668 10.0458V14.9993H17.4707C17.2684 16.4128 16.0528 17.4993 14.5835 17.4993C13.1142 17.4993 11.8986 16.4128 11.6963 14.9993H7.47063ZM12.5002 5.83268H2.50016V12.5414C3.02955 12.0012 3.76738 11.666 4.5835 11.666C5.747 11.666 6.75137 12.3473 7.21948 13.3327H11.9475C12.0872 13.0385 12.2748 12.7713 12.5002 12.5414V5.83268ZM14.1668 10.8327H17.5002V10.5952L15.8266 8.33268H14.1668V10.8327ZM14.5835 15.8327C15.1277 15.8327 15.5907 15.4848 15.7623 14.9993C15.8084 14.869 15.8335 14.7288 15.8335 14.5827C15.8335 13.8923 15.2738 13.3327 14.5835 13.3327C13.8932 13.3327 13.3335 13.8923 13.3335 14.5827C13.3335 14.7288 13.3586 14.869 13.4047 14.9993C13.5762 15.4848 14.0392 15.8327 14.5835 15.8327ZM5.8335 14.5827C5.8335 13.8923 5.27385 13.3327 4.5835 13.3327C3.89314 13.3327 3.3335 13.8923 3.3335 14.5827C3.3335 14.7288 3.35856 14.869 3.40462 14.9993C3.57622 15.4848 4.03924 15.8327 4.5835 15.8327C5.12775 15.8327 5.59077 15.4848 5.76237 14.9993C5.80843 14.869 5.8335 14.7288 5.8335 14.5827Z" fill="#FF8E05"/>
</svg>
