<svg width="20" height="20" viewBox="0 0 20 20" fill="none" xmlns="http://www.w3.org/2000/svg">
<path fill-rule="evenodd" clip-rule="evenodd" d="M17.9672 13.8668L17.9672 13.8687C17.9672 13.8687 17.9649 14.2063 17.7942 14.4977C17.7942 14.4977 17.6231 14.79 17.3286 14.9572L10.4301 18.8376C10.4301 18.8376 10.1489 19 9.81711 19C9.81711 19 9.48534 19 9.19801 18.8341L2.30787 14.9585C2.30787 14.9585 2.01115 14.79 1.83998 14.4977C1.83998 14.4977 1.66882 14.2055 1.667 13.8668L1.66699 6.13653C1.66699 6.13653 1.66882 5.7945 1.83998 5.50227C1.83998 5.50227 2.01115 5.21004 2.30564 5.04281L9.20412 1.16241C9.20412 1.16241 9.48534 1 9.81711 1C9.81711 1 10.1489 1 10.4362 1.16589L17.3263 5.04155C17.3263 5.04155 17.6231 5.21004 17.7942 5.50227C17.7942 5.50227 17.9654 5.7945 17.9672 6.13317L17.9672 13.8635L17.9672 13.8668ZM16.7134 6.1399L16.7134 13.8601C16.7134 13.8601 16.7133 13.8624 16.7123 13.864C16.7123 13.864 16.7119 13.8646 16.7113 13.8653C16.7108 13.8659 16.7102 13.8664 16.7094 13.8669L9.81707 17.7438L2.92268 13.8656C2.92268 13.8656 2.92281 13.8655 2.92192 13.864C2.92192 13.864 2.92086 13.8622 2.92085 13.8601L2.92086 6.13653C2.92086 6.13653 2.92125 6.13713 2.92192 6.13598C2.92192 6.13598 2.92298 6.13417 2.92481 6.13313L9.81715 2.25619L16.7115 6.13437C16.7116 6.1346 16.7119 6.13533 16.7123 6.13598C16.7123 6.13598 16.7134 6.1378 16.7134 6.1399Z" fill="#FF8E05"/>
<path d="M6.3583 3.10332C6.26557 3.05218 6.16141 3.02536 6.05552 3.02536L6.04747 3.02541C5.99127 3.02613 5.93543 3.03441 5.88143 3.05001C5.7217 3.09618 5.58685 3.20392 5.50655 3.34951C5.45541 3.44223 5.42858 3.5464 5.42858 3.65229L5.42864 3.66034C5.42936 3.71653 5.43763 3.77238 5.45324 3.82637C5.49941 3.98611 5.60714 4.12096 5.75273 4.20126L13.0301 8.21509V11.92C13.0301 12.2662 13.3108 12.5469 13.6571 12.5469C14.0033 12.5469 14.284 12.2662 14.284 11.92V7.8449C14.284 7.61653 14.1598 7.40622 13.9598 7.29593L6.3583 3.10332Z" fill="#FF8E05"/>
<path d="M9.88469 9.28057L2.68534 5.26757C2.59201 5.21555 2.48694 5.18825 2.3801 5.18825L2.37487 5.18827C2.31866 5.18874 2.26278 5.19676 2.20872 5.21212C2.04878 5.25758 1.91345 5.3647 1.83249 5.50994C1.78047 5.60326 1.75316 5.70833 1.75316 5.81518L1.75319 5.82041C1.75366 5.87661 1.76168 5.93249 1.77704 5.98655C1.8225 6.14649 1.92962 6.28183 2.07486 6.36278L9.58236 10.5476C9.77369 10.6542 10.0068 10.6533 10.1973 10.5451L17.5637 6.36029C17.7083 6.27816 17.8143 6.14196 17.8585 5.98166C17.8734 5.92743 17.881 5.87143 17.881 5.81518L17.8808 5.79979C17.8783 5.69647 17.8502 5.59537 17.7992 5.50551C17.6878 5.3094 17.4796 5.18825 17.2541 5.18825C17.2458 5.18825 17.2376 5.18841 17.2293 5.18873C17.1292 5.19268 17.0315 5.22057 16.9444 5.27006L9.88469 9.28057Z" fill="#FF8E05"/>
<path d="M9.1902 18.3642L9.19018 18.3695C9.19018 18.406 9.19336 18.4425 9.1997 18.4784C9.25219 18.7761 9.50959 18.9939 9.81182 18.9964C9.82187 18.9965 9.83191 18.9964 9.84194 18.996C9.99768 18.9898 10.1455 18.9258 10.2567 18.8165C10.3752 18.7 10.4426 18.5411 10.444 18.3748L10.5145 10.0054L10.5146 9.99998C10.5146 9.9917 10.5144 9.98342 10.5141 9.97514C10.5079 9.81941 10.4439 9.67155 10.3347 9.56042C10.2181 9.44186 10.0592 9.37447 9.89292 9.37307L9.88764 9.37305C9.87935 9.37305 9.87107 9.37321 9.8628 9.37354C9.70706 9.37971 9.55921 9.44368 9.44808 9.55295C9.32952 9.66953 9.26213 9.82843 9.26073 9.9947L9.1902 18.3642Z" fill="#FF8E05"/>
</svg>
