<svg width="18" height="18" viewBox="0 0 18 18" fill="none" xmlns="http://www.w3.org/2000/svg">
<path fill-rule="evenodd" clip-rule="evenodd" d="M8.18329 6.74976L7.0113 8.53229C7.0113 8.53229 7.8197 10.1999 9.48682 11.0019L9.48911 11.0003L11.2436 9.82834C11.2436 9.82834 11.4819 9.66672 11.7686 9.64031C11.7686 9.64031 12.0553 9.61391 12.3157 9.7278L15.6005 11.1386C15.6005 11.1386 15.9495 11.2839 16.1387 11.6111C16.1387 11.6111 16.3279 11.9383 16.2798 12.313C16.2798 12.313 16.091 13.7866 14.9759 14.7682C14.9759 14.7682 13.8607 15.7498 12.375 15.7501C12.375 15.7501 10.361 15.7501 8.50033 14.9794C8.50033 14.9794 6.63965 14.2087 5.21554 12.7846C5.21554 12.7846 3.79144 11.3605 3.02072 9.49978C3.02072 9.49978 2.25 7.6391 2.25 5.62499C2.25 5.62499 2.25034 4.13937 3.23194 3.02423C3.23194 3.02423 4.21354 1.9091 5.68693 1.72032C5.68693 1.72032 6.06184 1.67216 6.38905 1.8614C6.38905 1.8614 6.71626 2.05062 6.85921 2.39416L8.27141 5.68931C8.27141 5.68931 8.38336 5.94707 8.36095 6.22719C8.36095 6.22719 8.33854 6.50732 8.18329 6.74976ZM5.99652 9.01793L5.99562 9.01606C5.99562 9.01606 5.86989 8.75217 5.8886 8.46033C5.8886 8.46033 5.90738 8.16745 6.06683 7.92106L7.23951 6.13743L5.82517 2.83732L5.82497 2.83684C5.82497 2.83684 4.77576 2.97303 4.07638 3.76756C4.07638 3.76756 3.37524 4.56408 3.375 5.62524C3.375 5.62524 3.375 7.41533 4.06008 9.06926C4.06008 9.06926 4.74517 10.7232 6.01104 11.9891C6.01104 11.9891 7.27691 13.2549 8.93085 13.94C8.93085 13.94 10.5848 14.6251 12.375 14.6251C12.375 14.6251 13.436 14.6249 14.2326 13.9237C14.2326 13.9237 15.0272 13.2243 15.1633 12.1751L11.8719 10.7615L10.114 11.9358C10.114 11.9358 9.86925 12.1011 9.57202 12.1237C9.57202 12.1237 9.27478 12.1462 9.00537 12.0187C9.00537 12.0187 6.97709 11.0429 5.99764 9.02027L5.99722 9.0194L5.99697 9.01887L5.99652 9.01793Z" fill="#585865"/>
</svg>
