<svg width="24" height="24" viewBox="0 0 24 24" fill="none" xmlns="http://www.w3.org/2000/svg">
<circle cx="11.5426" cy="11.5426" r="6.95759" stroke="#262633"/>
<mask id="path-2-inside-1_1704_16227" fill="white">
<path fill-rule="evenodd" clip-rule="evenodd" d="M16.2158 15.3132C15.0496 16.6591 13.386 17.5009 11.5394 17.5009C9.67927 17.5009 8.00482 16.6467 6.8374 15.2834C7.31079 14.8152 7.84448 14.419 8.42385 14.1079C9.38272 13.593 10.4403 13.3254 11.5124 13.3264C13.3296 13.3264 14.9833 14.0806 16.2158 15.3132ZM12.8129 11.7591C13.1581 11.3885 13.352 10.8859 13.352 10.3618C13.352 9.83771 13.1581 9.33509 12.8129 8.96451C12.4678 8.59393 11.9996 8.38574 11.5115 8.38574C11.0233 8.38574 10.5552 8.59393 10.21 8.96451C9.86483 9.33509 9.67092 9.83771 9.67092 10.3618C9.67092 10.8859 9.86483 11.3885 10.21 11.7591C10.5552 12.1296 11.0233 12.3378 11.5115 12.3378C11.9996 12.3378 12.4678 12.1296 12.8129 11.7591Z"/>
</mask>
<path fill-rule="evenodd" clip-rule="evenodd" d="M16.2158 15.3132C15.0496 16.6591 13.386 17.5009 11.5394 17.5009C9.67927 17.5009 8.00482 16.6467 6.8374 15.2834C7.31079 14.8152 7.84448 14.419 8.42385 14.1079C9.38272 13.593 10.4403 13.3254 11.5124 13.3264C13.3296 13.3264 14.9833 14.0806 16.2158 15.3132ZM12.8129 11.7591C13.1581 11.3885 13.352 10.8859 13.352 10.3618C13.352 9.83771 13.1581 9.33509 12.8129 8.96451C12.4678 8.59393 11.9996 8.38574 11.5115 8.38574C11.0233 8.38574 10.5552 8.59393 10.21 8.96451C9.86483 9.33509 9.67092 9.83771 9.67092 10.3618C9.67092 10.8859 9.86483 11.3885 10.21 11.7591C10.5552 12.1296 11.0233 12.3378 11.5115 12.3378C11.9996 12.3378 12.4678 12.1296 12.8129 11.7591Z" fill="#262633"/>
<path d="M16.2158 15.3132L16.6184 15.662L16.9432 15.2872L16.5925 14.9365L16.2158 15.3132ZM6.8374 15.2834L6.46282 14.9047L6.11032 15.2533L6.4328 15.6299L6.8374 15.2834ZM8.42385 14.1079L8.17184 13.6386L8.42385 14.1079ZM11.5124 13.3264L11.5119 13.859H11.5124V13.3264ZM12.8129 11.7591L12.4231 11.396V11.396L12.8129 11.7591ZM12.8129 8.96451L12.4231 9.32758V9.32758L12.8129 8.96451ZM10.21 8.96451L9.82021 8.60145V8.60145L10.21 8.96451ZM10.21 11.7591L9.82021 12.1221V12.1221L10.21 11.7591ZM15.8133 14.9643C14.7392 16.2039 13.2182 16.9683 11.5394 16.9683V18.0336C13.5538 18.0336 15.3601 17.1143 16.6184 15.662L15.8133 14.9643ZM11.5394 16.9683C9.84836 16.9683 8.31735 16.1927 7.24201 14.9369L6.4328 15.6299C7.69229 17.1007 9.51017 18.0336 11.5394 18.0336V16.9683ZM7.21198 15.6622C7.64988 15.2291 8.14248 14.8636 8.67586 14.5772L8.17184 13.6386C7.54648 13.9744 6.97169 14.4014 6.46282 14.9047L7.21198 15.6622ZM8.67586 14.5772C9.55833 14.1033 10.5293 13.8582 11.5119 13.859L11.5129 12.7937C10.3512 12.7926 9.20711 13.0827 8.17184 13.6386L8.67586 14.5772ZM11.5124 13.859C13.1775 13.859 14.6986 14.5492 15.8392 15.6898L16.5925 14.9365C15.268 13.612 13.4818 12.7937 11.5124 12.7937V13.859ZM12.8193 10.3618C12.8193 10.7563 12.673 11.1277 12.4231 11.396L13.2027 12.1221C13.6432 11.6492 13.8847 11.0154 13.8847 10.3618H12.8193ZM12.4231 9.32758C12.673 9.59583 12.8193 9.96726 12.8193 10.3618H13.8847C13.8847 9.70816 13.6432 9.07436 13.2027 8.60145L12.4231 9.32758ZM11.5115 8.91843C11.8456 8.91843 12.1745 9.0606 12.4231 9.32758L13.2027 8.60145C12.761 8.12726 12.1536 7.85306 11.5115 7.85306V8.91843ZM10.5998 9.32758C10.8485 9.0606 11.1773 8.91843 11.5115 8.91843V7.85306C10.8693 7.85306 10.2619 8.12726 9.82021 8.60145L10.5998 9.32758ZM10.2036 10.3618C10.2036 9.96726 10.3499 9.59583 10.5998 9.32758L9.82021 8.60145C9.37973 9.07436 9.13823 9.70816 9.13823 10.3618H10.2036ZM10.5998 11.396C10.3499 11.1277 10.2036 10.7563 10.2036 10.3618H9.13823C9.13823 11.0154 9.37973 11.6492 9.82021 12.1221L10.5998 11.396ZM11.5115 11.8052C11.1773 11.8052 10.8485 11.663 10.5998 11.396L9.82021 12.1221C10.2619 12.5963 10.8693 12.8705 11.5115 12.8705V11.8052ZM12.4231 11.396C12.1745 11.663 11.8456 11.8052 11.5115 11.8052V12.8705C12.1536 12.8705 12.761 12.5963 13.2027 12.1221L12.4231 11.396Z" fill="#262633" mask="url(#path-2-inside-1_1704_16227)"/>
</svg>
