<svg width="18" height="18" viewBox="0 0 18 18" fill="none" xmlns="http://www.w3.org/2000/svg">
<path d="M6 12.75C6.41421 12.75 6.75 12.4142 6.75 12C6.75 11.5858 6.41421 11.25 6 11.25C5.58579 11.25 5.25 11.5858 5.25 12C5.25 12.4142 5.58579 12.75 6 12.75Z" fill="#585865"/>
<path d="M15.5497 3.49275C15.409 3.35592 15.2201 3.27993 15.0237 3.28119C14.8274 3.28245 14.6395 3.36087 14.5005 3.4995C14.6395 3.36057 14.7182 3.17253 14.7196 2.97604C14.721 2.77955 14.645 2.5904 14.508 2.4495C13.6733 1.83285 12.6628 1.50006 11.625 1.5C10.3321 1.5 9.09209 2.01361 8.17785 2.92785C7.26361 3.84209 6.75 5.08207 6.75 6.375L6.77325 6.65925C6.5205 6.8385 4.6035 8.2695 3.57975 9.135C2.7285 9.8775 2.25 10.9163 2.25 12C2.25 14.0677 3.93225 15.75 6 15.75C7.09875 15.75 8.1405 15.2625 8.85825 14.412C9.738 13.3807 11.1683 11.4698 11.346 11.2403L11.625 11.25C12.2652 11.25 12.8991 11.1239 13.4906 10.8789C14.082 10.6339 14.6195 10.2748 15.0721 9.82215C15.5248 9.36946 15.8839 8.83204 16.1289 8.24058C16.3739 7.64912 16.5 7.01519 16.5 6.375C16.5 5.295 16.1445 4.3005 15.5497 3.49275ZM6 14.25C5.40326 14.25 4.83097 14.0129 4.40901 13.591C3.98705 13.169 3.75 12.5967 3.75 12C3.75 11.31 4.06725 10.701 4.548 10.281C6.324 8.7795 7.26075 8.22 8.38425 7.26975C8.29932 6.97893 8.25416 6.67794 8.25 6.375C8.25 5.47989 8.60558 4.62145 9.23851 3.98851C9.87145 3.35558 10.7299 3 11.625 3C11.9775 3 12.3105 3.069 12.6293 3.1695L10.5 5.25L10.875 7.125L12.75 7.5L14.8538 5.44425C14.94 5.74125 15 6.0495 15 6.375C15 6.81821 14.9127 7.25708 14.7431 7.66656C14.5735 8.07603 14.3249 8.44809 14.0115 8.76149C13.6981 9.07488 13.326 9.32348 12.9166 9.49309C12.5071 9.6627 12.0682 9.75 11.625 9.75C11.313 9.75 11.0168 9.6945 10.7303 9.615C9.78 10.7385 9.2205 11.676 7.71225 13.4437C7.50321 13.6952 7.24153 13.8977 6.94568 14.0371C6.64983 14.1764 6.32701 14.2491 6 14.25ZM14.538 4.70325L12.5093 6.687L11.5125 6.4875L11.3153 5.502L13.3597 3.50475C13.848 3.7995 14.2523 4.209 14.538 4.70325Z" fill="#585865"/>
</svg>
