<svg width="18" height="18" viewBox="0 0 18 18" fill="none" xmlns="http://www.w3.org/2000/svg">
<path d="M14.625 14.0625C14.625 15.3052 13.6176 16.3125 12.375 16.3125C11.1324 16.3125 10.125 15.3052 10.125 14.0625C10.125 12.8198 11.1324 11.8125 12.375 11.8125C13.6176 11.8125 14.625 12.8198 14.625 14.0625Z" fill="#ACACB2"/>
<path d="M14.625 3.9375C14.625 5.18016 13.6176 6.1875 12.375 6.1875C11.1324 6.1875 10.125 5.18016 10.125 3.9375C10.125 2.69484 11.1324 1.6875 12.375 1.6875C13.6176 1.6875 14.625 2.69484 14.625 3.9375Z" fill="#ACACB2"/>
<path fill-rule="evenodd" clip-rule="evenodd" d="M4.5 6.1875C4.5 6.1875 5.66498 6.1875 6.48874 7.01126C6.48874 7.01126 7.3125 7.83502 7.3125 9C7.3125 9 7.3125 10.165 6.48874 10.9887C6.48874 10.9887 5.66498 11.8125 4.5 11.8125C4.5 11.8125 3.33502 11.8125 2.51126 10.9887C2.51126 10.9887 1.6875 10.165 1.6875 9C1.6875 9 1.6875 7.83502 2.51126 7.01126C2.51126 7.01126 3.33502 6.1875 4.5 6.1875ZM4.5 7.3125C4.5 7.3125 3.80101 7.3125 3.30676 7.80676C3.30676 7.80676 2.8125 8.30101 2.8125 9C2.8125 9 2.8125 9.69899 3.30676 10.1932C3.30676 10.1932 3.80101 10.6875 4.5 10.6875C4.5 10.6875 5.19899 10.6875 5.69324 10.1932C5.69324 10.1932 6.1875 9.69899 6.1875 9C6.1875 9 6.1875 8.30101 5.69324 7.80676C5.69324 7.80676 5.19899 7.3125 4.5 7.3125Z" fill="#ACACB2"/>
<path fill-rule="evenodd" clip-rule="evenodd" d="M12.375 11.25C12.375 11.25 13.54 11.25 14.3637 12.0738C14.3637 12.0738 15.1875 12.8975 15.1875 14.0625C15.1875 14.0625 15.1875 15.2275 14.3637 16.0512C14.3637 16.0512 13.54 16.875 12.375 16.875C12.375 16.875 11.21 16.875 10.3863 16.0512C10.3863 16.0512 9.5625 15.2275 9.5625 14.0625C9.5625 14.0625 9.5625 12.8975 10.3863 12.0738C10.3863 12.0738 11.21 11.25 12.375 11.25ZM12.375 12.375C12.375 12.375 11.676 12.375 11.1818 12.8693C11.1818 12.8693 10.6875 13.3635 10.6875 14.0625C10.6875 14.0625 10.6875 14.7615 11.1818 15.2557C11.1818 15.2557 11.676 15.75 12.375 15.75C12.375 15.75 13.074 15.75 13.5682 15.2557C13.5682 15.2557 14.0625 14.7615 14.0625 14.0625C14.0625 14.0625 14.0625 13.3635 13.5682 12.8693C13.5682 12.8693 13.074 12.375 12.375 12.375Z" fill="#ACACB2"/>
<path fill-rule="evenodd" clip-rule="evenodd" d="M12.375 1.125C12.375 1.125 13.54 1.125 14.3637 1.94876C14.3637 1.94876 15.1875 2.77252 15.1875 3.9375C15.1875 3.9375 15.1875 5.10248 14.3637 5.92624C14.3637 5.92624 13.54 6.75 12.375 6.75C12.375 6.75 11.21 6.75 10.3863 5.92624C10.3863 5.92624 9.5625 5.10248 9.5625 3.9375C9.5625 3.9375 9.5625 2.77252 10.3863 1.94876C10.3863 1.94876 11.21 1.125 12.375 1.125ZM12.375 2.25C12.375 2.25 11.676 2.25 11.1818 2.74426C11.1818 2.74426 10.6875 3.23851 10.6875 3.9375C10.6875 3.9375 10.6875 4.63649 11.1818 5.13074C11.1818 5.13074 11.676 5.625 12.375 5.625C12.375 5.625 13.074 5.625 13.5682 5.13074C13.5682 5.13074 14.0625 4.63649 14.0625 3.9375C14.0625 3.9375 14.0625 3.23851 13.5682 2.74426C13.5682 2.74426 13.074 2.25 12.375 2.25Z" fill="#ACACB2"/>
<path d="M10.7876 5.62751L10.7914 5.62511C10.9503 5.52121 11.046 5.34416 11.046 5.1543C11.046 5.04647 11.0151 4.94091 10.9568 4.8502L10.9544 4.84649C10.8736 4.72291 10.7474 4.63605 10.6031 4.60466L10.599 4.60377C10.561 4.59581 10.5223 4.5918 10.4835 4.5918C10.3757 4.5918 10.2702 4.62279 10.1795 4.68108L6.08745 7.31065L6.08726 7.31077C5.96176 7.39142 5.87343 7.51862 5.84172 7.6644C5.83317 7.70368 5.82886 7.74378 5.82886 7.78398L5.8291 7.80061C5.83212 7.90274 5.8629 8.00212 5.91814 8.08808C6.02163 8.24912 6.19992 8.34648 6.39136 8.34648C6.39946 8.34648 6.40756 8.34631 6.41566 8.34596C6.51514 8.34166 6.61169 8.31103 6.69545 8.2572L6.69563 8.25708L10.7876 5.62751Z" fill="#ACACB2"/>
<path d="M10.1792 13.3195L10.1795 13.3197C10.2702 13.378 10.3757 13.409 10.4835 13.409L10.488 13.409C10.6778 13.4075 10.8541 13.3103 10.9568 13.1506C11.0151 13.0599 11.046 12.9543 11.046 12.8465L11.046 12.8421C11.0445 12.6522 10.9474 12.4759 10.7876 12.3733L10.7874 12.3731L6.69545 9.74358C6.60474 9.68529 6.49918 9.6543 6.39136 9.6543L6.38693 9.65431C6.19708 9.65581 6.02078 9.75298 5.91814 9.9127C5.85985 10.0034 5.82886 10.109 5.82886 10.2168L5.82887 10.2212C5.83037 10.4111 5.92754 10.5874 6.08726 10.69L10.1792 13.3195Z" fill="#ACACB2"/>
</svg>
