<svg width="30" height="30" viewBox="0 0 30 30" fill="none" xmlns="http://www.w3.org/2000/svg">
<rect x="0.75" y="0.75" width="28.5" height="28.5" rx="12.25" fill="white" fill-opacity="0.4"/>
<rect x="0.75" y="0.75" width="28.5" height="28.5" rx="12.25" stroke="#F8F8FF" stroke-width="0.5"/>
<path d="M23.4035 14.8088C22.7419 13.0974 21.5934 11.6175 20.0998 10.5518C18.6063 9.48612 16.8332 8.88145 14.9998 8.8125C13.1663 8.88145 11.3932 9.48612 9.89969 10.5518C8.40614 11.6175 7.2576 13.0974 6.59601 14.8088C6.55133 14.9323 6.55133 15.0677 6.59601 15.1912C7.2576 16.9026 8.40614 18.3825 9.89969 19.4482C11.3932 20.5139 13.1663 21.1186 14.9998 21.1875C16.8332 21.1186 18.6063 20.5139 20.0998 19.4482C21.5934 18.3825 22.7419 16.9026 23.4035 15.1912C23.4482 15.0677 23.4482 14.9323 23.4035 14.8088ZM14.9998 20.0625C12.0185 20.0625 8.86851 17.8519 7.72664 15C8.86851 12.1481 12.0185 9.9375 14.9998 9.9375C17.981 9.9375 21.131 12.1481 22.2729 15C21.131 17.8519 17.981 20.0625 14.9998 20.0625Z" fill="#FBFBFB"/>
<path d="M15 11.625C14.3325 11.625 13.68 11.8229 13.125 12.1938C12.5699 12.5646 12.1374 13.0917 11.8819 13.7084C11.6265 14.3251 11.5596 15.0037 11.6899 15.6584C11.8201 16.3131 12.1415 16.9145 12.6135 17.3865C13.0855 17.8585 13.6869 18.1799 14.3416 18.3102C14.9963 18.4404 15.6749 18.3735 16.2916 18.1181C16.9083 17.8626 17.4354 17.4301 17.8062 16.875C18.1771 16.32 18.375 15.6675 18.375 15C18.375 14.1049 18.0194 13.2464 17.3865 12.6135C16.7536 11.9806 15.8951 11.625 15 11.625ZM15 17.25C14.555 17.25 14.12 17.118 13.75 16.8708C13.38 16.6236 13.0916 16.2722 12.9213 15.861C12.751 15.4499 12.7064 14.9975 12.7932 14.561C12.8801 14.1246 13.0943 13.7237 13.409 13.409C13.7237 13.0943 14.1246 12.88 14.561 12.7932C14.9975 12.7064 15.4499 12.751 15.861 12.9213C16.2722 13.0916 16.6236 13.38 16.8708 13.75C17.118 14.12 17.25 14.555 17.25 15C17.25 15.5967 17.0129 16.169 16.591 16.591C16.169 17.0129 15.5967 17.25 15 17.25Z" fill="#FBFBFB"/>
</svg>
