<svg width="20" height="20" viewBox="0 0 20 20" fill="none" xmlns="http://www.w3.org/2000/svg">
<path d="M17.351 7.8273C17.3062 7.93787 17.2296 8.0326 17.1307 8.09938C17.0319 8.16615 16.9154 8.20195 16.7961 8.20219H14.3968V11.8012C14.3968 11.9603 14.3336 12.1128 14.2211 12.2253C14.1086 12.3378 13.956 12.401 13.797 12.401C13.6379 12.401 13.4853 12.3378 13.3728 12.2253C13.2603 12.1128 13.1971 11.9603 13.1971 11.8012V8.20219H10.7978C10.6796 8.20159 10.5641 8.16651 10.4656 8.10125C10.367 8.03599 10.2897 7.94339 10.243 7.8348C10.1997 7.724 10.1888 7.60323 10.2113 7.48647C10.2339 7.3697 10.2891 7.26171 10.3704 7.17498L13.3696 4.17583C13.4833 4.06319 13.6369 4 13.797 4C13.957 4 14.1106 4.06319 14.2243 4.17583L17.2235 7.17498C17.305 7.26007 17.3604 7.36678 17.383 7.48243C17.4056 7.59808 17.3945 7.71779 17.351 7.8273ZM3.59983 11.2013H8.99831C9.1574 11.2013 9.30997 11.1382 9.42246 11.0257C9.53495 10.9132 9.59814 10.7606 9.59814 10.6015C9.59814 10.4424 9.53495 10.2899 9.42246 10.1774C9.30997 10.0649 9.1574 10.0017 8.99831 10.0017H3.59983C3.44075 10.0017 3.28818 10.0649 3.17569 10.1774C3.0632 10.2899 3 10.4424 3 10.6015C3 10.7606 3.0632 10.9132 3.17569 11.0257C3.28818 11.1382 3.44075 11.2013 3.59983 11.2013ZM3.59983 6.4027H7.79865C7.95774 6.4027 8.1103 6.3395 8.2228 6.22701C8.33529 6.11452 8.39848 5.96195 8.39848 5.80287C8.39848 5.64378 8.33529 5.49121 8.2228 5.37872C8.1103 5.26623 7.95774 5.20304 7.79865 5.20304H3.59983C3.44075 5.20304 3.28818 5.26623 3.17569 5.37872C3.0632 5.49121 3 5.64378 3 5.80287C3 5.96195 3.0632 6.11452 3.17569 6.22701C3.28818 6.3395 3.44075 6.4027 3.59983 6.4027ZM13.797 14.8003H3.59983C3.44075 14.8003 3.28818 14.8635 3.17569 14.976C3.0632 15.0885 3 15.2411 3 15.4002C3 15.5593 3.0632 15.7118 3.17569 15.8243C3.28818 15.9368 3.44075 16 3.59983 16H13.797C13.956 16 14.1086 15.9368 14.2211 15.8243C14.3336 15.7118 14.3968 15.5593 14.3968 15.4002C14.3968 15.2411 14.3336 15.0885 14.2211 14.976C14.1086 14.8635 13.956 14.8003 13.797 14.8003Z" fill="#ACACB2"/>
</svg>
