<svg width="77" height="73" viewBox="0 0 77 73" fill="none" xmlns="http://www.w3.org/2000/svg">
<rect width="77" height="73" rx="34" fill="#CCFFDA"/>
<rect width="77" height="73" rx="34" fill="#E6F9EB"/>
<rect x="5" y="5" width="67" height="63" rx="30" fill="#CCFFDA"/>
<rect x="5" y="5" width="67" height="63" rx="30" fill="#CCFFDA"/>
<rect x="10" y="10" width="57" height="53" rx="26.5" fill="#B9F4CA"/>
<rect x="16" y="16" width="45" height="41" rx="20.5" fill="#92E3A9"/>
<path d="M35.9423 43.9423C35.6773 43.9387 35.4232 43.8362 35.2298 43.6548L28.2298 36.6548C28.0704 36.4605 27.9889 36.2139 28.0012 35.9628C28.0135 35.7118 28.1188 35.4743 28.2966 35.2966C28.4743 35.1188 28.7118 35.0135 28.9628 35.0012C29.2139 34.9889 29.4605 35.0704 29.6548 35.2298L35.9423 41.5298L49.2298 28.2298C49.4241 28.0704 49.6708 27.9889 49.9219 28.0012C50.1729 28.0135 50.4104 28.1188 50.5881 28.2966C50.7659 28.4743 50.8711 28.7118 50.8835 28.9628C50.8958 29.2139 50.8143 29.4605 50.6548 29.6548L36.6548 43.6548C36.4615 43.8362 36.2074 43.9387 35.9423 43.9423Z" fill="#49B768"/>
</svg>
