<svg width="32" height="32" viewBox="0 0 32 32" fill="none" xmlns="http://www.w3.org/2000/svg">
<path d="M13.9423 24.9423C13.6773 24.9387 13.4232 24.8362 13.2298 24.6548L6.22984 17.6548C6.07038 17.4605 5.98889 17.2139 6.00122 16.9628C6.01355 16.7118 6.11882 16.4743 6.29656 16.2966C6.47429 16.1188 6.71178 16.0135 6.96283 16.0012C7.21389 15.9889 7.46055 16.0704 7.65484 16.2298L13.9423 22.5298L27.2298 9.22985C27.4241 9.07038 27.6708 8.98889 27.9219 9.00122C28.1729 9.01355 28.4104 9.11882 28.5881 9.29656C28.7659 9.47429 28.8711 9.71178 28.8835 9.96283C28.8958 10.2139 28.8143 10.4605 28.6548 10.6548L14.6548 24.6548C14.4615 24.8362 14.2074 24.9387 13.9423 24.9423Z" fill="#49B768"/>
</svg>
