<svg width="14" height="14" viewBox="0 0 14 14" fill="none" xmlns="http://www.w3.org/2000/svg">
<path fill-rule="evenodd" clip-rule="evenodd" d="M7 1.75C7 1.75 8.06782 1.75 9.04367 2.16275C9.04367 2.16275 9.9859 2.56128 10.7123 3.28769C10.7123 3.28769 11.4387 4.0141 11.8372 4.95633C11.8372 4.95633 12.25 5.93218 12.25 7C12.25 7 12.25 8.06782 11.8372 9.04367C11.8372 9.04367 11.4387 9.9859 10.7123 10.7123C10.7123 10.7123 9.9859 11.4387 9.04367 11.8372C9.04367 11.8372 8.06782 12.25 7 12.25C7 12.25 5.93218 12.25 4.95633 11.8372C4.95633 11.8372 4.0141 11.4387 3.28769 10.7123C3.28769 10.7123 2.56128 9.9859 2.16275 9.04367C2.16275 9.04367 1.75 8.06782 1.75 7C1.75 7 1.75 5.93218 2.16275 4.95633C2.16275 4.95633 2.56128 4.0141 3.28769 3.28769C3.28769 3.28769 4.0141 2.56128 4.95633 2.16275C4.95633 2.16275 5.93218 1.75 7 1.75ZM7 2.625C7 2.625 6.10962 2.625 5.29719 2.96863C5.29719 2.96863 4.51214 3.30068 3.90641 3.90641C3.90641 3.90641 3.30068 4.51214 2.96863 5.29719C2.96863 5.29719 2.625 6.10962 2.625 7C2.625 7 2.625 7.89038 2.96863 8.70281C2.96863 8.70281 3.30068 9.48786 3.90641 10.0936C3.90641 10.0936 4.51214 10.6993 5.29719 11.0314C5.29719 11.0314 6.10962 11.375 7 11.375C7 11.375 7.89038 11.375 8.70281 11.0314C8.70281 11.0314 9.48786 10.6993 10.0936 10.0936C10.0936 10.0936 10.6993 9.48786 11.0314 8.70281C11.0314 8.70281 11.375 7.89038 11.375 7C11.375 7 11.375 6.10962 11.0314 5.29719C11.0314 5.29719 10.6993 4.51214 10.0936 3.90641C10.0936 3.90641 9.48786 3.30068 8.70281 2.96863C8.70281 2.96863 7.89038 2.625 7 2.625Z" fill="#585865"/>
<path d="M9.47485 5.14389C9.55689 5.06185 9.60313 4.95043 9.60313 4.8344C9.60313 4.71836 9.55703 4.60708 9.47499 4.52504C9.39294 4.44299 9.28166 4.3969 9.16563 4.3969C9.1525 4.3969 9.13938 4.39749 9.12631 4.39867C9.02428 4.40787 8.92871 4.45259 8.85627 4.52504L6.69083 6.69048C6.60878 6.77252 6.5625 6.88399 6.5625 7.00002C6.5625 7.11605 6.60859 7.22733 6.69064 7.30938C6.77269 7.39143 6.88397 7.43752 7 7.43752C7.11603 7.43752 7.22731 7.39143 7.30936 7.30938L9.47485 5.14389Z" fill="#585865"/>
<path d="M5.6875 0.875H8.3125C8.55412 0.875 8.75 0.679125 8.75 0.4375C8.75 0.195875 8.55412 0 8.3125 0H5.6875C5.44588 0 5.25 0.195875 5.25 0.4375C5.25 0.679125 5.44588 0.875 5.6875 0.875Z" fill="#585865"/>
</svg>
