<svg width="77" height="73" viewBox="0 0 77 73" fill="none" xmlns="http://www.w3.org/2000/svg">
<rect width="77" height="73" rx="34" fill="#EC0000" fill-opacity="0.02"/>
<rect x="5" y="5" width="67" height="63" rx="30" fill="#EC0000" fill-opacity="0.05"/>
<rect x="10" y="10" width="57" height="53" rx="26.5" fill="#EC0000" fill-opacity="0.1"/>
<rect x="16" y="16" width="45" height="41" rx="20.5" fill="#EC0000" fill-opacity="0.2"/>
<path d="M46.2929 27.2929L28.2929 45.2929C28.1054 45.4804 28 45.7348 28 46C28 46.2652 28.1054 46.5196 28.2929 46.7071C28.4804 46.8946 28.7348 47 29 47C29.2652 47 29.5196 46.8946 29.7071 46.7071L47.7071 28.7071C47.8946 28.5196 48 28.2652 48 28C48 27.7348 47.8946 27.4804 47.7071 27.2929C47.5196 27.1054 47.2652 27 47 27C46.7348 27 46.4804 27.1054 46.2929 27.2929Z" fill="#EC0000"/>
<path d="M29.7071 27.2929C29.5196 27.1054 29.2652 27 29 27C28.7348 27 28.4804 27.1054 28.2929 27.2929C28.1054 27.4804 28 27.7348 28 28C28 28.2652 28.1054 28.5196 28.2929 28.7071L46.2929 46.7071C46.4804 46.8946 46.7348 47 47 47C47.2652 47 47.5196 46.8946 47.7071 46.7071C47.8946 46.5196 48 46.2652 48 46C48 45.7348 47.8946 45.4804 47.7071 45.2929L29.7071 27.2929Z" fill="#EC0000"/>
</svg>
