<svg width="24" height="24" viewBox="0 0 24 24" fill="none" xmlns="http://www.w3.org/2000/svg">
<circle cx="12" cy="12" r="10" fill="#EC0000" fill-opacity="0.1"/>
<path d="M14.832 12.735C14.9394 12.6412 15 12.5138 15 12.3812C15 12.2486 14.9397 12.1214 14.8322 12.0277C14.7248 11.9339 14.5791 11.8812 14.4272 11.8812C14.2753 11.8812 14.1296 11.9339 14.0222 12.0277L12 13.7929L9.97789 12.0277C9.8704 11.9339 9.72471 11.8812 9.57279 11.8812C9.42088 11.8812 9.27519 11.9339 9.16777 12.0277C9.06035 12.1214 9 12.2486 9 12.3812C9 12.5138 9.06035 12.641 9.16777 12.7348L11.595 14.8535C11.8187 15.0488 12.1813 15.0488 12.405 14.8535L14.832 12.735Z" fill="#EC0000"/>
<path d="M11.4272 9.5V14.5C11.4272 14.7761 11.6837 15 12 15C12.3164 15 12.5728 14.7761 12.5728 14.5V9.5C12.5728 9.22386 12.3164 9 12 9C11.6837 9 11.4272 9.22386 11.4272 9.5Z" fill="#EC0000"/>
</svg>
