<svg width="32" height="32" viewBox="0 0 32 32" fill="none" xmlns="http://www.w3.org/2000/svg">
<g filter="url(#filter0_d_2286_25605)">
<path d="M20.4014 17.4638C19.7297 16.3067 18.6545 15.4382 17.3819 15.0248C17.9919 14.6621 18.4659 14.1092 18.7311 13.4509C18.9964 12.7927 19.0381 12.0656 18.8501 11.3813C18.662 10.697 18.2544 10.0934 17.69 9.6632C17.1256 9.233 16.4356 9 15.7259 9C15.0163 9 14.3262 9.233 13.7618 9.6632C13.1974 10.0934 12.7899 10.697 12.6018 11.3813C12.4137 12.0656 12.4555 12.7927 12.7207 13.4509C12.9859 14.1092 13.46 14.6621 14.0699 15.0248C12.7974 15.4382 11.7222 16.3067 11.0504 17.4638C11.0174 17.5181 11 17.5803 11 17.6438C11 17.7073 11.0174 17.7696 11.0504 17.8238C11.0812 17.879 11.1263 17.9248 11.1809 17.9565C11.2356 17.9882 11.2978 18.0045 11.3609 18.0038H20.0909C20.1541 18.0045 20.2163 17.9882 20.2709 17.9565C20.3256 17.9248 20.3707 17.879 20.4014 17.8238C20.4344 17.7696 20.4518 17.7073 20.4518 17.6438C20.4518 17.5803 20.4344 17.5181 20.4014 17.4638Z" fill="#585865"/>
<rect x="5.8" y="3.8" width="20.4" height="20.4" rx="10.2" stroke="#ECECEE" stroke-width="0.4" shape-rendering="crispEdges"/>
</g>
<defs>
<filter id="filter0_d_2286_25605" x="0.600098" y="0.599609" width="30.7998" height="30.8008" filterUnits="userSpaceOnUse" color-interpolation-filters="sRGB">
<feFlood flood-opacity="0" result="BackgroundImageFix"/>
<feColorMatrix in="SourceAlpha" type="matrix" values="0 0 0 0 0 0 0 0 0 0 0 0 0 0 0 0 0 0 127 0" result="hardAlpha"/>
<feOffset dy="2"/>
<feGaussianBlur stdDeviation="2.5"/>
<feComposite in2="hardAlpha" operator="out"/>
<feColorMatrix type="matrix" values="0 0 0 0 0 0 0 0 0 0 0 0 0 0 0 0 0 0 0.13 0"/>
<feBlend mode="normal" in2="BackgroundImageFix" result="effect1_dropShadow_2286_25605"/>
<feBlend mode="normal" in="SourceGraphic" in2="effect1_dropShadow_2286_25605" result="shape"/>
</filter>
</defs>
</svg>
