<svg width="24" height="24" viewBox="0 0 24 24" fill="none" xmlns="http://www.w3.org/2000/svg">
<path fill-rule="evenodd" clip-rule="evenodd" d="M16.8 6.27273H5.92C5.92 6.27273 5.6549 6.27273 5.46745 6.45911C5.46745 6.45911 5.28 6.6455 5.28 6.90909C5.28 6.90909 5.28 7.17268 5.46745 7.35907C5.46745 7.35907 5.6549 7.54545 5.92 7.54545H18.72C18.72 7.54545 19.2502 7.54545 19.6251 7.91823C19.6251 7.91823 20 8.291 20 8.81818V17.7273C20 17.7273 20 18.2545 19.6251 18.6272C19.6251 18.6272 19.2502 19 18.72 19H5.92C5.92 19 5.12471 19 4.56236 18.4408C4.56236 18.4408 4 17.8817 4 17.0909V6.90909C4 6.90909 4 6.11832 4.56235 5.55916C4.56235 5.55916 5.12471 5 5.92 5H16.8C17.1535 5 17.44 5.28491 17.44 5.63636C17.44 5.98782 17.1535 6.27273 16.8 6.27273ZM5.28 17.0909V8.7151C5.28 8.7151 5.57853 8.81818 5.92 8.81818H18.72V17.7273H5.92C5.92 17.7273 5.6549 17.7273 5.46745 17.5409C5.46745 17.5409 5.28 17.3545 5.28 17.0909Z" fill="#262633"/>
<path d="M16.8 13.2727C16.8 13.7999 16.3702 14.2273 15.84 14.2273C15.3098 14.2273 14.88 13.7999 14.88 13.2727C14.88 12.7456 15.3098 12.3182 15.84 12.3182C16.3702 12.3182 16.8 12.7456 16.8 13.2727Z" fill="#262633"/>
</svg>
