<svg width="18" height="18" viewBox="0 0 18 18" fill="none" xmlns="http://www.w3.org/2000/svg">
<path d="M8.43749 5.625V9.5625C8.43749 9.87316 8.68933 10.125 8.99999 10.125C9.31065 10.125 9.56249 9.87316 9.56249 9.5625V5.625C9.56249 5.31434 9.31065 5.0625 8.99999 5.0625C8.68933 5.0625 8.43749 5.31434 8.43749 5.625Z" fill="#EC0000"/>
<path fill-rule="evenodd" clip-rule="evenodd" d="M11.9931 1.77132C11.788 1.6871 11.5664 1.6875 11.5664 1.6875L11.5656 1.6875L6.43557 1.68751C6.21289 1.68672 6.00691 1.77132 6.00691 1.77132C5.80093 1.85592 5.6421 2.01397 5.6421 2.01397L2.01299 5.64308C1.85592 5.80093 1.77132 6.00691 1.77132 6.00691C1.68672 6.21289 1.6875 6.4336 1.6875 6.4336L1.68751 11.5644C1.68672 11.7871 1.77132 11.9931 1.77132 11.9931C1.85592 12.1991 2.01397 12.3579 2.01397 12.3579L5.64308 15.987C5.80093 16.1441 6.00691 16.2287 6.00691 16.2287C6.21289 16.3133 6.4336 16.3125 6.4336 16.3125L11.5644 16.3125C11.7871 16.3133 11.9931 16.2287 11.9931 16.2287C12.1991 16.1441 12.3579 15.986 12.3579 15.986L15.987 12.3569C16.1441 12.1991 16.2287 11.9931 16.2287 11.9931C16.3133 11.7871 16.3125 11.5664 16.3125 11.5664L16.3125 6.43557C16.3133 6.21289 16.2287 6.00691 16.2287 6.00691C16.1441 5.80093 15.986 5.6421 15.986 5.6421L12.3569 2.01299C12.1991 1.85592 11.9931 1.77132 11.9931 1.77132ZM11.5664 2.25V2.81222L11.5676 2.81245L11.5684 2.8125L11.5664 2.25ZM6.43456 2.8125L11.5654 2.8125L15.1875 6.43456L15.1875 11.5654L11.5654 15.1875L6.43456 15.1875L2.8125 11.5654L2.8125 6.43456L6.43456 2.8125Z" fill="#EC0000"/>
<path d="M9.84374 12.0937C9.84374 12.5597 9.46595 12.9375 8.99999 12.9375C8.53404 12.9375 8.15624 12.5597 8.15624 12.0937C8.15624 11.6278 8.53404 11.25 8.99999 11.25C9.46595 11.25 9.84374 11.6278 9.84374 12.0937Z" fill="#EC0000"/>
</svg>
