<svg width="99" height="35" viewBox="0 0 99 35" fill="none" xmlns="http://www.w3.org/2000/svg">
<rect x="0.75" y="0.75" width="97.5" height="33.5" rx="12.25" fill="white" fill-opacity="0.4"/>
<path fill-rule="evenodd" clip-rule="evenodd" d="M18.9997 11.2295C18.8837 11.2295 18.7724 11.2756 18.6904 11.3576C18.6083 11.4397 18.5622 11.551 18.5622 11.667V18.0679L17.5822 16.924C17.5448 16.8803 17.4992 16.8445 17.448 16.8184C17.3967 16.7924 17.3409 16.7767 17.2835 16.7723C17.2262 16.7678 17.1686 16.7747 17.114 16.7925C17.0593 16.8104 17.0087 16.8388 16.9651 16.8762C16.9214 16.9135 16.8855 16.9592 16.8595 17.0104C16.8334 17.0617 16.8178 17.1175 16.8133 17.1748C16.8089 17.2321 16.8158 17.2898 16.8336 17.3444C16.8514 17.3991 16.8798 17.4497 16.9172 17.4933L18.6672 19.535C18.7083 19.583 18.7593 19.6216 18.8167 19.648C18.8741 19.6745 18.9365 19.6882 18.9997 19.6882C19.0629 19.6882 19.1254 19.6745 19.1828 19.648C19.2402 19.6216 19.2912 19.583 19.3322 19.535L21.0822 17.4933C21.1196 17.4497 21.148 17.3991 21.1659 17.3444C21.1837 17.2898 21.1906 17.2321 21.1861 17.1748C21.1817 17.1175 21.166 17.0617 21.14 17.0104C21.1139 16.9592 21.0781 16.9135 21.0344 16.8762C20.9907 16.8388 20.9401 16.8104 20.8855 16.7925C20.8308 16.7747 20.7732 16.7678 20.7159 16.7723C20.6586 16.7767 20.6027 16.7924 20.5515 16.8184C20.5002 16.8445 20.4546 16.8803 20.4172 16.924L19.4372 18.0673V11.667C19.4372 11.551 19.3911 11.4397 19.3091 11.3576C19.227 11.2756 19.1158 11.2295 18.9997 11.2295Z" fill="white"/>
<path d="M20.3123 15.75V15.9705C20.585 15.8736 20.882 15.8695 21.1572 15.959C21.4323 16.0484 21.6702 16.2263 21.8338 16.4649C21.9974 16.7036 22.0775 16.9896 22.0617 17.2785C22.0458 17.5674 21.9349 17.843 21.7462 18.0623L19.9962 20.104C19.873 20.2477 19.7201 20.363 19.5481 20.4421C19.3762 20.5212 19.1891 20.5621 18.9998 20.5621C18.8106 20.5621 18.6235 20.5212 18.4515 20.4421C18.2796 20.363 18.1267 20.2477 18.0035 20.104L16.2535 18.0623C16.0653 17.8429 15.9548 17.5674 15.9392 17.2788C15.9236 16.9901 16.0038 16.7043 16.1672 16.4659C16.3307 16.2274 16.5683 16.0496 16.8432 15.96C17.118 15.8704 17.4148 15.8741 17.6873 15.9705V15.75H16.6665C15.0168 15.75 14.1914 15.75 13.6793 16.2627C13.1665 16.7749 13.1665 17.6003 13.1665 19.25V19.8333C13.1665 21.483 13.1665 22.3084 13.6793 22.8206C14.1914 23.3333 15.0168 23.3333 16.6665 23.3333H21.3332C22.9828 23.3333 23.8083 23.3333 24.3204 22.8206C24.8332 22.3084 24.8332 21.483 24.8332 19.8333V19.25C24.8332 17.6003 24.8332 16.7749 24.3204 16.2627C23.8083 15.75 22.9828 15.75 21.3332 15.75H20.3123Z" fill="white"/>
<path d="M41.494 12.326L39.716 22H37.308L35.838 14.286L34.326 22H31.988L30.238 12.326H32.072L33.304 20.53L34.886 12.326H36.846L38.4 20.53L39.744 12.326H41.494ZM44.0868 14.594V22H42.2948V14.594H44.0868ZM43.1768 10.842C43.5128 10.842 43.7835 10.9493 43.9888 11.164C44.2035 11.3693 44.3108 11.626 44.3108 11.934C44.3108 12.242 44.2035 12.4987 43.9888 12.704C43.7835 12.9093 43.5128 13.012 43.1768 13.012C42.8501 13.012 42.5795 12.9093 42.3648 12.704C42.1595 12.4987 42.0568 12.242 42.0568 11.934C42.0568 11.626 42.1595 11.3693 42.3648 11.164C42.5795 10.9493 42.8501 10.842 43.1768 10.842ZM49.988 21.65C49.7266 21.8367 49.4326 21.9767 49.106 22.07C48.7886 22.1633 48.462 22.21 48.126 22.21C47.398 22.2007 46.8426 21.9953 46.46 21.594C46.0866 21.1833 45.9 20.5813 45.9 19.788V15.882H44.738V14.594H45.9V12.956L47.692 12.746V14.594H49.414L49.232 15.882H47.692V19.746C47.692 20.11 47.7526 20.3713 47.874 20.53C48.0046 20.6887 48.2053 20.768 48.476 20.768C48.7466 20.768 49.0406 20.6793 49.358 20.502L49.988 21.65ZM54.444 14.384C55.0973 14.384 55.6106 14.5847 55.984 14.986C56.3573 15.3873 56.544 15.938 56.544 16.638V22H54.752V16.918C54.752 16.4793 54.6726 16.1713 54.514 15.994C54.3646 15.8167 54.1406 15.728 53.842 15.728C53.5433 15.728 53.268 15.826 53.016 16.022C52.764 16.2087 52.5213 16.4793 52.288 16.834V22H50.496V11.64L52.288 11.458V15.476C52.8853 14.748 53.604 14.384 54.444 14.384ZM64.3607 11.626V22H62.7787L62.6527 21.062C62.4194 21.4167 62.1207 21.6967 61.7567 21.902C61.4021 22.1073 60.9961 22.21 60.5387 22.21C59.6334 22.21 58.9381 21.86 58.4527 21.16C57.9674 20.46 57.7247 19.508 57.7247 18.304C57.7247 17.548 57.8461 16.876 58.0887 16.288C58.3314 15.6907 58.6767 15.224 59.1247 14.888C59.5821 14.552 60.1094 14.384 60.7067 14.384C61.4161 14.384 62.0367 14.65 62.5687 15.182V11.43L64.3607 11.626ZM61.0427 20.852C61.3601 20.852 61.6401 20.7773 61.8827 20.628C62.1254 20.4693 62.3541 20.2267 62.5687 19.9V16.512C62.3541 16.2507 62.1347 16.0547 61.9107 15.924C61.6961 15.7933 61.4441 15.728 61.1547 15.728C60.6787 15.728 60.3007 15.9427 60.0207 16.372C59.7501 16.792 59.6147 17.4313 59.6147 18.29C59.6147 19.2047 59.7361 19.8627 59.9787 20.264C60.2214 20.656 60.5761 20.852 61.0427 20.852ZM69.6656 14.398C69.9363 14.398 70.1836 14.4307 70.4076 14.496L70.0996 16.232C69.8756 16.176 69.6563 16.148 69.4416 16.148C69.0029 16.148 68.6576 16.3067 68.4056 16.624C68.1536 16.932 67.9529 17.408 67.8036 18.052V22H66.0116V14.594H67.5656L67.7336 16.05C67.9109 15.518 68.1676 15.112 68.5036 14.832C68.8396 14.5427 69.2269 14.398 69.6656 14.398ZM76.0032 20.04C76.0032 20.3293 76.0452 20.544 76.1292 20.684C76.2225 20.8147 76.3672 20.9173 76.5632 20.992L76.1852 22.182C75.7652 22.1447 75.4198 22.042 75.1492 21.874C74.8878 21.706 74.6872 21.4493 74.5472 21.104C74.2952 21.4773 73.9778 21.7573 73.5952 21.944C73.2218 22.1213 72.8018 22.21 72.3352 22.21C71.5978 22.21 71.0145 22 70.5852 21.58C70.1558 21.16 69.9412 20.6093 69.9412 19.928C69.9412 19.1253 70.2305 18.514 70.8092 18.094C71.3972 17.6647 72.2325 17.45 73.3152 17.45H74.2392V17.03C74.2392 16.554 74.1272 16.2227 73.9032 16.036C73.6885 15.84 73.3385 15.742 72.8532 15.742C72.3118 15.742 71.6585 15.8727 70.8932 16.134L70.4732 14.916C71.3972 14.5613 72.2932 14.384 73.1612 14.384C75.0558 14.384 76.0032 15.2333 76.0032 16.932V20.04ZM72.8112 20.908C73.4178 20.908 73.8938 20.6047 74.2392 19.998V18.5H73.4972C72.3398 18.5 71.7612 18.9293 71.7612 19.788C71.7612 20.1427 71.8498 20.418 72.0272 20.614C72.2045 20.81 72.4658 20.908 72.8112 20.908ZM86.6474 14.594L85.0374 22H82.7974L81.6774 16.19L80.5294 22H78.3314L76.6934 14.594H78.4854L79.5214 20.684L80.8094 14.594H82.6434L83.8194 20.684L84.9254 14.594H86.6474Z" fill="white"/>
<rect x="0.75" y="0.75" width="97.5" height="33.5" rx="12.25" stroke="#F8F8FF" stroke-width="0.5"/>
</svg>
