<svg width="20" height="20" viewBox="0 0 20 20" fill="none" xmlns="http://www.w3.org/2000/svg">
<circle cx="10" cy="10" r="10" fill="#2BAF29" fill-opacity="0.1"/>
<path d="M12.832 10.735C12.9394 10.6412 13 10.5138 13 10.3812C13 10.2486 12.9397 10.1214 12.8322 10.0277C12.7248 9.9339 12.5791 9.88123 12.4272 9.88123C12.2753 9.88123 12.1296 9.9339 12.0222 10.0277L10 11.7929L7.97789 10.0277C7.8704 9.9339 7.72471 9.88123 7.57279 9.88123C7.42088 9.88123 7.27519 9.9339 7.16777 10.0277C7.06035 10.1214 7 10.2486 7 10.3812C7 10.5138 7.06035 10.641 7.16777 10.7348L9.59498 12.8535C9.81866 13.0488 10.1813 13.0488 10.405 12.8535L12.832 10.735Z" fill="#2BAF29"/>
<path d="M9.42724 7.5V12.5C9.42724 12.7761 9.68368 13 10 13C10.3164 13 10.5728 12.7761 10.5728 12.5V7.5C10.5728 7.22386 10.3164 7 10 7C9.68368 7 9.42724 7.22386 9.42724 7.5Z" fill="#2BAF29"/>
</svg>
